<svg width="199" height="23" viewBox="0 0 199 23" fill="none" xmlns="http://www.w3.org/2000/svg">
<path d="M9.2982 22.42C6.6582 22.42 4.5582 21.7 2.9982 20.26C1.4382 18.8 0.658203 16.72 0.658203 14.02V8.98C0.658203 6.28 1.4382 4.21 2.9982 2.77C4.5582 1.31 6.6582 0.579999 9.2982 0.579999C11.9382 0.579999 14.0382 1.31 15.5982 2.77C17.1582 4.21 17.9382 6.28 17.9382 8.98V14.02C17.9382 16.72 17.1582 18.8 15.5982 20.26C14.0382 21.7 11.9382 22.42 9.2982 22.42ZM9.2982 18.88C10.7782 18.88 11.9282 18.45 12.7482 17.59C13.5682 16.73 13.9782 15.58 13.9782 14.14V8.86C13.9782 7.42 13.5682 6.27 12.7482 5.41C11.9282 4.55 10.7782 4.12 9.2982 4.12C7.8382 4.12 6.6882 4.55 5.8482 5.41C5.0282 6.27 4.6182 7.42 4.6182 8.86V14.14C4.6182 15.58 5.0282 16.73 5.8482 17.59C6.6882 18.45 7.8382 18.88 9.2982 18.88ZM29.5116 22.42C27.7916 22.42 26.3116 22.11 25.0716 21.49C23.8516 20.85 22.9116 19.95 22.2516 18.79C21.6116 17.61 21.2916 16.22 21.2916 14.62V0.999999H25.2516V14.74C25.2516 16.02 25.6116 17.03 26.3316 17.77C27.0716 18.51 28.1316 18.88 29.5116 18.88C30.8916 18.88 31.9416 18.51 32.6616 17.77C33.4016 17.03 33.7716 16.02 33.7716 14.74V0.999999H37.7316V14.62C37.7316 16.22 37.4016 17.61 36.7416 18.79C36.1016 19.95 35.1616 20.85 33.9216 21.49C32.7016 22.11 31.2316 22.42 29.5116 22.42ZM46.4279 22V4.6H40.3079V0.999999H56.5079V4.6H50.3879V22H46.4279ZM65.615 22.42C64.175 22.42 62.865 22.1 61.685 21.46C60.525 20.8 59.595 19.85 58.895 18.61C58.215 17.35 57.875 15.82 57.875 14.02V8.98C57.875 6.28 58.635 4.21 60.155 2.77C61.675 1.31 63.735 0.579999 66.335 0.579999C68.915 0.579999 70.905 1.27 72.305 2.65C73.725 4.01 74.435 5.86 74.435 8.2V8.32H70.535V8.08C70.535 7.34 70.375 6.67 70.055 6.07C69.755 5.47 69.295 5 68.675 4.66C68.055 4.3 67.275 4.12 66.335 4.12C64.935 4.12 63.835 4.55 63.035 5.41C62.235 6.27 61.835 7.44 61.835 8.92V14.08C61.835 15.54 62.235 16.72 63.035 17.62C63.835 18.5 64.955 18.94 66.395 18.94C67.835 18.94 68.885 18.56 69.545 17.8C70.205 17.04 70.535 16.08 70.535 14.92V14.62H65.555V11.26H74.435V22H70.775V19.99H70.235C70.095 20.33 69.865 20.69 69.545 21.07C69.245 21.45 68.785 21.77 68.165 22.03C67.545 22.29 66.695 22.42 65.615 22.42ZM78.2183 22V0.999999H91.7183V4.6H82.1783V9.61H90.8783V13.21H82.1783V18.4H91.8983V22H78.2183ZM94.8296 22V0.999999H102.36L106.53 19.3H107.07V0.999999H110.97V22H103.44L99.2696 3.7H98.7296V22H94.8296ZM114.927 22V0.999999H128.427V4.6H118.887V9.61H127.587V13.21H118.887V18.4H128.607V22H114.927ZM131.539 22V0.999999H140.659C141.979 0.999999 143.129 1.23 144.109 1.69C145.089 2.15 145.849 2.8 146.389 3.64C146.929 4.48 147.199 5.47 147.199 6.61V6.97C147.199 8.23 146.899 9.25 146.299 10.03C145.699 10.81 144.959 11.38 144.079 11.74V12.28C144.879 12.32 145.499 12.6 145.939 13.12C146.379 13.62 146.599 14.29 146.599 15.13V22H142.639V15.7C142.639 15.22 142.509 14.83 142.249 14.53C142.009 14.23 141.599 14.08 141.019 14.08H135.499V22H131.539ZM135.499 10.48H140.239C141.179 10.48 141.909 10.23 142.429 9.73C142.969 9.21 143.239 8.53 143.239 7.69V7.39C143.239 6.55 142.979 5.88 142.459 5.38C141.939 4.86 141.199 4.6 140.239 4.6H135.499V10.48ZM149.054 22L154.574 0.999999H161.474L166.994 22H162.914L161.774 17.38H154.274L153.134 22H149.054ZM155.204 13.72H160.844L158.294 3.49H157.754L155.204 13.72ZM172.434 22V4.6H166.314V0.999999H182.514V4.6H176.394V22H172.434ZM185.21 22V0.999999H198.71V4.6H189.17V9.61H197.87V13.21H189.17V18.4H198.89V22H185.21Z" fill="black"/>
</svg>
