<svg width="36" height="36" viewBox="0 0 36 36" fill="none" xmlns="http://www.w3.org/2000/svg">
<g clip-path="url(#clip0_68_1503)">
<path d="M28.8935 6.46616C28.5569 6.28154 28.3044 5.95385 28.1127 5.63539C27.8883 5.27077 27.8088 4.83231 27.7481 4.41693C27.692 4.02001 27.7153 3.61846 27.7527 3.22154C27.7995 2.76461 27.9304 2.30769 28.1314 1.89231C28.3465 1.44461 28.7346 0.927708 29.2348 0.729247C29.2395 0.687708 29.2488 0.646161 29.2582 0.604622C29.3844 0.156929 29.8333 -0.0599898 30.2774 0.0323178C30.8759 0.161549 31.4883 0.286149 32.0073 0.623075C32.3392 0.835382 32.5823 1.14 32.8021 1.46307C33.0359 1.81384 33.2042 2.22001 33.307 2.62616C33.4052 3.00462 33.4473 3.42463 33.4005 3.81232C33.3491 4.23693 33.2088 4.61078 33.0078 4.98923C32.6338 5.71385 31.9278 6.29077 31.1704 6.58616C30.8431 6.71539 30.5018 6.78 30.1605 6.78C29.721 6.78923 29.2862 6.68308 28.8935 6.46616ZM29.7585 5.07693C29.7631 5.07693 29.7678 5.08154 29.7725 5.08616C29.7959 5.09539 29.8192 5.10462 29.8426 5.11846C29.88 5.12769 29.9174 5.14154 29.9548 5.15077C29.9969 5.16 30.039 5.16462 30.081 5.16923C30.1231 5.16923 30.1605 5.16923 30.1979 5.16923C30.2353 5.16462 30.2727 5.16 30.3101 5.15077C30.399 5.13231 30.4878 5.10923 30.572 5.08154C30.614 5.06308 30.6514 5.04923 30.6888 5.03077C30.7683 4.98923 30.8478 4.94308 30.9226 4.89693C31.0021 4.84154 31.0816 4.78154 31.1564 4.71693C31.2031 4.67539 31.2499 4.62923 31.292 4.58308C31.3574 4.50923 31.4135 4.43539 31.4696 4.35693C31.5164 4.28308 31.5584 4.20925 31.6005 4.1354C31.6333 4.07079 31.6613 4.00617 31.6847 3.93694C31.7034 3.88156 31.7174 3.82615 31.7314 3.76615C31.7221 3.80307 31.7174 3.84001 31.7081 3.87232C31.7268 3.80309 31.7408 3.72923 31.7455 3.65538C31.7501 3.55846 31.7501 3.46616 31.7455 3.36923C31.7361 3.25846 31.7174 3.14771 31.694 3.04156C31.68 2.98617 31.666 2.93077 31.6473 2.87538C31.6052 2.77384 31.5631 2.67232 31.5164 2.57078C31.4603 2.46001 31.3948 2.35385 31.3247 2.24769C31.292 2.20154 31.2546 2.1554 31.2171 2.11386C31.1938 2.09079 31.1704 2.06308 31.147 2.04462C31.1236 2.02616 31.1003 2.0077 31.0722 1.98924C31.0488 1.97539 31.0301 1.96153 31.0068 1.94769C30.9273 1.91076 30.8478 1.87847 30.7683 1.84616C30.6514 1.81385 30.5346 1.78154 30.4177 1.75385C30.3242 1.99846 30.1185 2.1877 29.866 2.25693C29.8426 2.28001 29.8146 2.30769 29.7912 2.33077C29.7631 2.36308 29.7397 2.3954 29.7164 2.4277C29.6883 2.47847 29.6603 2.52463 29.6322 2.5754C29.5901 2.65848 29.5574 2.74616 29.5247 2.82924C29.492 2.94462 29.4592 3.05539 29.4312 3.17077C29.4078 3.30462 29.3891 3.43846 29.3751 3.57231C29.3657 3.75231 29.3657 3.9323 29.3751 4.1123C29.3891 4.22769 29.4078 4.34307 29.4265 4.46307C29.4452 4.55077 29.4686 4.63846 29.4966 4.72154C29.5107 4.75846 29.5294 4.79539 29.5481 4.83693C29.5434 4.83231 29.5434 4.82769 29.5387 4.82308C29.5434 4.82769 29.5481 4.83231 29.5481 4.84154C29.5574 4.86462 29.5714 4.88308 29.5808 4.90616C29.5714 4.88769 29.5621 4.87385 29.5574 4.85539C29.5621 4.86462 29.5668 4.86923 29.5761 4.87846C29.5714 4.86923 29.5621 4.86 29.5574 4.85077C29.5527 4.83693 29.5434 4.82769 29.5387 4.81385C29.5574 4.83693 29.5714 4.86462 29.5855 4.88769L29.5901 4.89231C29.5901 4.89693 29.5901 4.89693 29.5948 4.90154C29.6182 4.93385 29.6462 4.96616 29.6696 4.99846C29.693 5.02154 29.7164 5.04462 29.7397 5.06769C29.7351 5.06308 29.7257 5.05846 29.721 5.04923C29.7304 5.05846 29.7444 5.06769 29.7585 5.07693Z" fill="black"/>
<path d="M21.787 7.63846C20.9688 7.58307 20.1086 7.25076 19.5662 6.62769C18.9912 5.9723 18.7481 5.09999 18.8462 4.24155C18.9444 3.37385 19.2717 2.4877 19.8842 1.84154C20.1179 1.59231 20.4078 1.33847 20.7351 1.19078C20.7631 1.11694 20.8005 1.04771 20.852 0.987705C21.1371 0.62309 21.6421 0.590778 22.0114 0.840009C22.2218 0.983085 22.4229 1.13076 22.6192 1.28769C22.9886 1.57384 23.3112 1.91538 23.6151 2.26615C23.9143 2.6123 24.1714 2.99999 24.4005 3.3923C24.6156 3.7523 24.7652 4.15848 24.8307 4.56925C24.8961 4.98923 24.8868 5.39076 24.7746 5.79692C24.6623 6.18923 24.4379 6.52615 24.1668 6.82615C23.9003 7.12153 23.5169 7.32923 23.1475 7.46769C22.8062 7.5923 22.4322 7.64307 22.0675 7.64307C21.9694 7.64769 21.8758 7.64307 21.787 7.63846ZM21.4317 2.67692C21.399 2.69538 21.3662 2.71385 21.3335 2.73231C21.3008 2.75538 21.2681 2.78309 21.2353 2.80617C21.1839 2.85232 21.1371 2.90309 21.0857 2.95386C21.039 3.00463 20.9969 3.06 20.9548 3.11539C20.8987 3.20308 20.8426 3.2954 20.7912 3.38771C20.7351 3.51233 20.679 3.63694 20.6322 3.76156C20.5995 3.87694 20.5668 3.9923 20.5387 4.1123C20.5153 4.21846 20.5013 4.32923 20.4873 4.43538C20.4826 4.52769 20.4826 4.61999 20.4873 4.71692C20.4966 4.80923 20.5107 4.90615 20.5247 4.99846C20.5387 5.05384 20.5527 5.10461 20.5714 5.15999C20.5855 5.19692 20.6042 5.23384 20.6182 5.27076C20.6416 5.31692 20.6696 5.36307 20.6977 5.40923C20.7304 5.45999 20.7725 5.50619 20.8099 5.55235C20.8426 5.58466 20.8707 5.6123 20.9034 5.64461C20.9314 5.66769 20.9595 5.68615 20.9875 5.70923C21.039 5.74153 21.0904 5.77384 21.1465 5.80153C21.2307 5.84307 21.3195 5.87999 21.4036 5.9123C21.4925 5.93999 21.5813 5.96307 21.6701 5.98615C21.7356 5.99538 21.801 6.00461 21.8665 6.00923C21.9647 6.01384 22.0629 6.01389 22.1564 6.01389C22.2499 6.00466 22.3387 5.99538 22.4322 5.98153C22.479 5.9723 22.5257 5.95846 22.5725 5.93999C22.6145 5.92153 22.6613 5.90307 22.7034 5.88461C22.7408 5.86615 22.7782 5.84307 22.8109 5.81999C22.853 5.7923 22.8951 5.75999 22.9325 5.72769C22.9558 5.70461 22.9792 5.68615 23.0026 5.66307C23.0213 5.63999 23.04 5.6123 23.0587 5.58923C23.0821 5.5523 23.1008 5.51538 23.1242 5.48307C23.1429 5.44153 23.1616 5.39538 23.1803 5.35384C23.1896 5.31692 23.199 5.27999 23.2083 5.24769C23.213 5.21538 23.2177 5.18769 23.2223 5.15999C23.2223 5.10923 23.2223 5.05846 23.2223 5.00769C23.213 4.9523 23.2083 4.8923 23.199 4.83692C23.1756 4.73999 23.1475 4.64307 23.1242 4.54615C23.0914 4.46307 23.054 4.38 23.0166 4.29693C22.8997 4.08462 22.7642 3.88616 22.6333 3.6877C22.5117 3.51693 22.3808 3.35539 22.2499 3.19847C22.1003 3.03693 21.9507 2.88 21.787 2.73231C21.7449 2.69538 21.7029 2.66309 21.6608 2.62616C21.5813 2.64924 21.5065 2.66769 21.4317 2.67692Z" fill="black"/>
<path d="M12.1605 8.65846C11.4078 8.62153 10.7486 8.19692 10.2997 7.62C9.81351 6.9923 9.6265 6.16153 9.62182 5.38615C9.61715 4.5923 9.89767 3.81692 10.4073 3.20308C10.641 2.92154 10.9403 2.7 11.2442 2.50615C11.4218 2.39538 11.6182 2.3123 11.8192 2.24307C11.9314 2.20153 12.0577 2.16001 12.1792 2.14616C12.2587 2.14155 12.3335 2.14615 12.413 2.15538C12.4504 2.03076 12.5158 1.91539 12.6187 1.81846C12.9273 1.51385 13.4836 1.49077 13.7875 1.81846C14.3392 2.41846 14.9704 2.99537 15.3257 3.73845C15.667 4.45383 15.6764 5.26615 15.4566 6.01846C15.2509 6.71538 14.8301 7.39846 14.2784 7.87846C13.9839 8.1323 13.6613 8.33538 13.3013 8.48769C12.9974 8.6123 12.6608 8.66307 12.3335 8.66307C12.2681 8.66307 12.2166 8.66307 12.1605 8.65846ZM12.4223 3.76614C12.4036 3.77076 12.3896 3.77539 12.3756 3.78C12.3335 3.79846 12.2914 3.8123 12.2447 3.83076C12.1652 3.8723 12.0904 3.91385 12.0156 3.96001C11.9408 4.01539 11.8753 4.06615 11.8052 4.12615C11.7631 4.16769 11.721 4.20924 11.679 4.25078C11.6462 4.29232 11.6135 4.33384 11.5808 4.38C11.5481 4.43076 11.5153 4.48616 11.4873 4.53693C11.4452 4.62461 11.4078 4.7123 11.3704 4.8C11.3564 4.85077 11.3423 4.89692 11.3283 4.94769C11.3096 5.06307 11.2909 5.17384 11.2816 5.28923C11.2769 5.39538 11.2769 5.49692 11.2816 5.59846C11.2956 5.71384 11.3096 5.82923 11.333 5.94461C11.347 6.00923 11.3657 6.06923 11.3844 6.12923C11.4171 6.22615 11.4592 6.31846 11.5013 6.41077C11.5387 6.48461 11.5808 6.55384 11.6275 6.62307C11.6509 6.65538 11.6696 6.68307 11.693 6.71538C11.7164 6.73846 11.7351 6.75692 11.7584 6.78C11.7584 6.78 11.7631 6.78461 11.7678 6.78461C11.7678 6.78923 11.7725 6.79384 11.7771 6.79384C11.8192 6.82615 11.8613 6.85846 11.9081 6.89077C11.9408 6.91384 11.9782 6.9323 12.0156 6.95077C12.039 6.96461 12.067 6.97384 12.0904 6.98307C12.1138 6.9923 12.1325 6.99692 12.1558 7.00153C12.1979 7.00615 12.2353 7.01077 12.2727 7.01538C12.3148 7.01538 12.3569 7.01538 12.4036 7.01538C12.4551 7.01077 12.5018 7.00615 12.5533 6.99692C12.5907 6.98769 12.6281 6.97846 12.6608 6.96923C12.6935 6.95538 12.7216 6.94153 12.7543 6.92769C12.8338 6.88615 12.9086 6.84461 12.9787 6.79846C13.0535 6.74307 13.1283 6.68307 13.1984 6.62307C13.2405 6.58153 13.2826 6.54 13.32 6.49846C13.3808 6.42461 13.4369 6.35538 13.493 6.28153C13.5678 6.17077 13.6333 6.05538 13.6987 5.93538C13.7501 5.82923 13.7922 5.72769 13.8343 5.61692C13.8623 5.52923 13.8904 5.43692 13.9138 5.34923C13.9278 5.26615 13.9371 5.18307 13.9465 5.1C13.9465 5.03538 13.9465 4.97538 13.9465 4.91077C13.9418 4.84153 13.9278 4.7723 13.9184 4.70307C13.9044 4.64307 13.8904 4.58307 13.867 4.52769C13.853 4.49538 13.8436 4.46307 13.8249 4.43538C13.7735 4.34768 13.7221 4.25999 13.666 4.17691C13.666 4.17691 13.6707 4.18154 13.6707 4.18615C13.5678 4.03846 13.4603 3.89999 13.3481 3.76614C13.2265 3.63229 13.1049 3.50307 12.9834 3.37384C12.8712 3.58615 12.6655 3.73845 12.4223 3.76614Z" fill="black"/>
<path d="M2.56676 9.69693C2.36572 9.66923 2.16 9.63231 1.96832 9.55846C1.58961 9.41077 1.26702 9.17539 0.977146 8.88923C0.682601 8.59846 0.486242 8.22 0.322605 7.84616C0.130917 7.39846 0.0420839 6.92308 0.0140319 6.43846C-0.042072 5.56616 0.294549 4.71693 0.874289 4.07078C1.25767 3.64155 1.75793 3.21692 2.32364 3.02307C2.30027 2.77846 2.38443 2.52002 2.56209 2.34925C2.71638 2.19694 2.92677 2.10924 3.14651 2.10924C3.3756 2.10924 3.56261 2.20155 3.73092 2.34925C4.08625 2.65848 4.41351 2.99076 4.73143 3.33692C5.02598 3.65538 5.29247 4.03845 5.47481 4.43076C5.67585 4.85539 5.78338 5.30769 5.82546 5.77385C5.90494 6.64616 5.6665 7.52308 5.22234 8.27539C4.78286 9.01846 4.03949 9.54 3.18858 9.68769C3.0904 9.70616 2.98286 9.71077 2.87533 9.71077C2.77247 9.72 2.66494 9.71077 2.56676 9.69693ZM2.25351 7.84154C2.29559 7.87385 2.33299 7.90616 2.37506 7.93846C2.41714 7.96616 2.45923 7.98923 2.50131 8.01231C2.52468 8.02154 2.54338 8.03077 2.56676 8.03539C2.59481 8.04462 2.62754 8.05385 2.66027 8.05846C2.70235 8.06769 2.74442 8.07231 2.79118 8.07693C2.83793 8.07693 2.88468 8.07693 2.93143 8.07693C2.95948 8.07693 2.98754 8.07231 3.01092 8.06769C3.03897 8.05846 3.06702 8.05385 3.09975 8.04462C3.14183 8.02616 3.18858 8.01231 3.23066 7.98923C3.27274 7.96616 3.31481 7.94308 3.35689 7.91539C3.42234 7.86923 3.48312 7.82308 3.54858 7.77231C3.5813 7.74 3.60936 7.71231 3.63741 7.68C3.67949 7.63385 3.71689 7.58308 3.75429 7.53231C3.8104 7.44 3.8665 7.35231 3.91793 7.26C3.96001 7.16308 4.00208 7.07077 4.04416 6.97385C4.08624 6.84923 4.11896 6.72923 4.14702 6.60462C4.16572 6.48923 4.17975 6.37846 4.19377 6.26308C4.19845 6.15231 4.19845 6.04154 4.19377 5.93077C4.17975 5.82462 4.16572 5.71846 4.14702 5.60769C4.11896 5.49231 4.09092 5.38154 4.05352 5.27077C4.03482 5.22462 4.0161 5.18308 3.9974 5.13693C3.9226 4.99846 3.83845 4.86923 3.75429 4.74C3.67949 4.63385 3.60468 4.53693 3.52052 4.44C3.49248 4.40769 3.46442 4.38 3.43637 4.35231C3.30546 4.45846 3.14183 4.52769 2.96884 4.55077C2.97819 4.55077 2.99222 4.55077 3.00157 4.55077C2.98287 4.55077 2.96415 4.55539 2.94545 4.55539C2.9361 4.55539 2.92676 4.56001 2.91741 4.56462C2.83793 4.59693 2.76313 4.62923 2.68832 4.67077C2.72105 4.65693 2.75378 4.63846 2.78183 4.62462C2.73508 4.64769 2.68832 4.67539 2.64156 4.70769C2.54806 4.77231 2.45923 4.84154 2.3704 4.91539C2.29092 4.98923 2.21143 5.06769 2.13195 5.14616C2.07117 5.21539 2.01508 5.28462 1.96365 5.35846C1.92157 5.42308 1.87949 5.49231 1.84677 5.55693C1.80936 5.63539 1.77663 5.70923 1.74858 5.79231C1.73455 5.83846 1.7252 5.88462 1.71118 5.93077C1.69715 5.99539 1.6878 6.06462 1.68313 6.12923C1.67845 6.25385 1.67377 6.37385 1.68313 6.49385C1.69715 6.6 1.71118 6.70154 1.72988 6.80769C1.75794 6.90923 1.78599 7.01077 1.81871 7.11231C1.85612 7.21385 1.90287 7.31539 1.94494 7.41231C1.9917 7.5 2.04313 7.58308 2.09456 7.66616C2.13664 7.71693 2.17871 7.77231 2.22547 7.81846C2.20209 7.79539 2.1787 7.76769 2.15532 7.74C2.18338 7.77693 2.21611 7.80923 2.25351 7.84154Z" fill="black"/>
<path d="M29.9922 15.5492C29.2722 14.8708 29.0244 13.9154 29.0151 12.96C29.0057 11.9908 29.2956 10.9846 29.88 10.2092C30.1512 9.84462 30.5205 9.56769 30.946 9.40615C31.1377 9.33231 31.3528 9.29077 31.5631 9.29077C31.5818 9.26769 31.6052 9.24462 31.6286 9.22154C31.9465 8.90769 32.4842 8.90308 32.7974 9.22154C33.3538 9.78 33.9148 10.3523 34.3169 11.0354C34.56 11.4554 34.733 11.8985 34.8171 12.3692C34.9107 12.8677 34.8312 13.3754 34.6442 13.8462C34.4712 14.28 34.1813 14.6769 33.8587 15.0185C33.4987 15.3969 33.0919 15.6923 32.6197 15.9138C32.2971 16.0615 31.9325 16.14 31.5678 16.14C30.9881 16.1354 30.4083 15.9415 29.9922 15.5492ZM31.334 11.0492C31.306 11.0769 31.2779 11.1046 31.2499 11.1323C31.2078 11.1831 31.1657 11.2385 31.1236 11.2892C31.0816 11.3585 31.0395 11.4277 30.9974 11.5015C30.9507 11.5985 30.9132 11.6954 30.8712 11.7969C30.8197 11.9538 30.7777 12.1154 30.7403 12.2769C30.7122 12.4338 30.6888 12.5908 30.6748 12.7477C30.6701 12.8908 30.6701 13.0338 30.6748 13.1815C30.6888 13.32 30.7029 13.4538 30.7262 13.5877C30.7496 13.6892 30.7823 13.7908 30.8151 13.8923C30.8338 13.9338 30.8525 13.98 30.8712 14.0262C30.8992 14.0769 30.9319 14.1323 30.9647 14.1831C30.9881 14.2154 31.0161 14.2523 31.0442 14.2846C31.0675 14.3077 31.0862 14.3308 31.1096 14.3493C31.1283 14.3631 31.147 14.3769 31.1657 14.3908C31.1844 14.4 31.2031 14.4138 31.2218 14.4231C31.2545 14.4369 31.2873 14.4462 31.3153 14.4647C31.3481 14.4739 31.3761 14.4831 31.4088 14.4877C31.4416 14.4923 31.4743 14.4969 31.5071 14.5015C31.5304 14.5015 31.5491 14.5015 31.5678 14.5015C31.6145 14.4969 31.6613 14.4923 31.7081 14.4831C31.7735 14.4692 31.8436 14.4508 31.9091 14.4277C31.9465 14.4138 31.9839 14.3954 32.0213 14.3769C32.1055 14.3308 32.1803 14.2847 32.2597 14.2339C32.3158 14.1924 32.3673 14.1554 32.4187 14.1092C32.5029 14.0354 32.5777 13.9569 32.6525 13.8785C32.746 13.7723 32.8348 13.6616 32.919 13.5416C32.9657 13.4677 33.0078 13.3938 33.0499 13.3154C33.0873 13.2462 33.1154 13.1723 33.1434 13.0985C33.1527 13.0754 33.1574 13.0477 33.1621 13.0246C33.1668 12.9877 33.1714 12.9462 33.1761 12.9092C33.1761 12.8631 33.1761 12.8169 33.1761 12.7754C33.1668 12.6831 33.1574 12.5954 33.1434 12.5031C33.1341 12.457 33.12 12.4108 33.106 12.3692C33.0592 12.2492 33.0125 12.1338 32.9564 12.0231C32.8862 11.8846 32.8068 11.7508 32.7226 11.6169C32.6104 11.46 32.4935 11.3077 32.3719 11.1646C32.3299 11.1138 32.2831 11.0677 32.2364 11.0169C32.2317 11.0215 32.2271 11.0262 32.2224 11.0262C31.9512 11.1923 31.6145 11.1646 31.3621 11.0077C31.3621 11.0262 31.3481 11.0354 31.334 11.0492Z" fill="black"/>
<path d="M30.9834 26.4831C30.067 26.1554 29.4265 25.3938 29.1413 24.4892C28.9917 24.0046 28.9823 23.483 29.0151 22.98C29.0525 22.4446 29.2301 21.8908 29.4732 21.4154C29.9174 20.5477 30.6468 19.8323 31.6099 19.5738C32.0353 19.4584 32.4982 19.4815 32.8816 19.7031C33.1668 19.8692 33.3351 20.1877 33.3351 20.5108C33.3351 20.5477 33.3351 20.5846 33.3257 20.6169C33.6623 20.8062 33.9662 21.0507 34.2514 21.3046C34.6535 21.6692 34.9808 22.0892 35.2473 22.5646C35.4904 22.9892 35.6353 23.4785 35.5839 23.9677C35.5418 24.3969 35.4062 24.84 35.1351 25.1862C34.8265 25.5785 34.4431 25.8877 34.0083 26.1323C33.5408 26.3954 33.0171 26.5476 32.4888 26.64C32.3439 26.663 32.199 26.6769 32.0447 26.6769C31.694 26.6769 31.32 26.6031 30.9834 26.4831ZM31.7361 25.0015C31.8249 25.02 31.9138 25.0292 32.0073 25.0385C32.0494 25.0385 32.0914 25.0385 32.1335 25.0385C32.2083 25.0292 32.2784 25.02 32.3532 25.0108C32.5169 24.9738 32.6758 24.9277 32.8395 24.8769C32.933 24.84 33.0218 24.8031 33.1153 24.7615C33.2088 24.7108 33.293 24.6646 33.3818 24.6092C33.4566 24.5585 33.5268 24.503 33.5969 24.4476C33.6623 24.3923 33.7231 24.3323 33.7792 24.2677C33.7979 24.2446 33.8213 24.2169 33.84 24.1938C33.8493 24.18 33.8587 24.1662 33.8634 24.1523C33.8774 24.12 33.8914 24.0877 33.9055 24.0554C33.9148 24.0138 33.9288 23.9769 33.9382 23.9354C33.9475 23.9031 33.9475 23.8662 33.9522 23.8338C33.9522 23.8015 33.9522 23.7692 33.9522 23.7369C33.9522 23.7185 33.9475 23.7 33.9429 23.6815C33.9335 23.6492 33.9242 23.6123 33.9148 23.5754C33.9008 23.5385 33.8821 23.5015 33.8681 23.4646C33.7932 23.3215 33.7138 23.1877 33.6249 23.0538C33.5688 22.9754 33.5081 22.9015 33.4473 22.8277C33.307 22.6754 33.1574 22.5323 33.0031 22.3892C32.9003 22.3062 32.7974 22.2277 32.6899 22.1492C32.6057 22.0985 32.5216 22.0477 32.4374 22.0015C32.1335 21.8677 31.8203 21.7431 31.507 21.6323C31.4556 21.6138 31.4135 21.5907 31.3714 21.5676C31.3481 21.5907 31.3247 21.6185 31.3013 21.6415C31.2358 21.7246 31.1704 21.8077 31.1096 21.8908C31.0535 21.9877 30.9974 22.08 30.9413 22.1769C30.8945 22.2831 30.8478 22.3892 30.8057 22.5C30.7683 22.6154 30.7356 22.7308 30.7075 22.8508C30.6842 22.9892 30.6655 23.1277 30.6514 23.2708C30.6468 23.3769 30.6514 23.4784 30.6514 23.5846C30.6608 23.6907 30.6748 23.7923 30.6935 23.8985C30.7122 23.9862 30.7356 24.0738 30.7636 24.1615C30.7777 24.203 30.7964 24.24 30.8151 24.2815C30.8525 24.3554 30.8945 24.42 30.9413 24.4938C30.974 24.5446 31.0161 24.5908 31.0535 24.6369C31.0956 24.6785 31.1377 24.72 31.1797 24.7615C31.2125 24.7892 31.2405 24.8123 31.2779 24.8354C31.3106 24.8585 31.3481 24.8769 31.3808 24.8954C31.4603 24.9323 31.5397 24.9646 31.6239 24.9877C31.5912 24.9738 31.5584 24.9646 31.521 24.9508C31.5958 24.9646 31.666 24.9831 31.7361 25.0015Z" fill="black"/>
<path d="M31.0442 35.6354C30.5766 35.4738 30.2026 35.1646 29.894 34.7862C29.5761 34.3892 29.4312 33.8677 29.361 33.3785C29.2862 32.8385 29.3797 32.2662 29.5434 31.7492C29.6836 31.3015 29.9127 30.8862 30.2026 30.5169C30.3522 30.3277 30.5345 30.1615 30.7216 30.0138C30.7309 30.0092 30.7356 30.0046 30.7449 29.9954C30.6701 29.8569 30.6374 29.6908 30.6608 29.52C30.7216 29.0815 31.147 28.7538 31.5958 28.8185C33.1714 29.0538 35.0416 29.6677 35.6073 31.3015C35.6727 31.4908 35.6961 31.7123 35.6961 31.9108C35.6961 32.1738 35.6634 32.4138 35.6073 32.6677C35.4904 33.1892 35.1912 33.6877 34.8826 34.1215C34.2982 34.9523 33.3538 35.5662 32.3439 35.7415C32.2083 35.7646 32.068 35.7739 31.9278 35.7739C31.6286 35.7831 31.32 35.7323 31.0442 35.6354ZM31.2732 33.8723C31.2966 33.8954 31.32 33.9231 31.348 33.9462C31.3855 33.9785 31.4229 34.0062 31.4603 34.0338C31.4836 34.0477 31.5117 34.0662 31.5397 34.08C31.5584 34.0892 31.5771 34.0985 31.5958 34.1031C31.6239 34.1123 31.6519 34.1169 31.68 34.1262C31.7221 34.1354 31.7641 34.14 31.8062 34.1446C31.8857 34.1446 31.9652 34.1446 32.0447 34.1446C32.0961 34.14 32.1429 34.1308 32.1943 34.1215C32.2364 34.1123 32.2831 34.0985 32.3252 34.0892C32.4234 34.0523 32.5216 34.0108 32.6151 33.9646C32.6992 33.9185 32.788 33.8723 32.8675 33.8215C32.9564 33.7569 33.0452 33.6877 33.1247 33.6231C33.2182 33.5354 33.307 33.4477 33.3912 33.3554C33.466 33.2631 33.5361 33.1754 33.6062 33.0785C33.6764 32.9677 33.7418 32.8569 33.8026 32.7462C33.8634 32.6215 33.9195 32.4923 33.9709 32.3585C33.9896 32.3077 34.0036 32.2523 34.0177 32.1969C34.0223 32.1554 34.027 32.1138 34.0317 32.0723C34.0317 32.0954 34.0317 32.1185 34.027 32.1415V32.1462C34.027 32.1554 34.027 32.16 34.027 32.1646C34.027 32.1554 34.027 32.1508 34.0317 32.1415C34.0364 32.0677 34.0364 31.9939 34.0317 31.92C34.0364 31.9569 34.0364 31.9939 34.041 32.0308C34.041 31.9477 34.0317 31.8646 34.0177 31.7815C34.0083 31.7492 33.999 31.7123 33.9849 31.68C33.9849 31.68 33.9896 31.6846 33.9896 31.6892C33.9896 31.6892 33.9849 31.6846 33.9849 31.68C33.9803 31.6615 33.9709 31.6431 33.9616 31.6246C33.9662 31.6431 33.9756 31.6569 33.9803 31.6754C33.9756 31.6708 33.9709 31.6662 33.9709 31.6615C33.9756 31.6662 33.9803 31.6708 33.9803 31.6754C33.9849 31.6846 33.9849 31.6939 33.9896 31.6985C33.9896 31.7031 33.9943 31.7031 33.9943 31.7077C33.9943 31.7077 33.9943 31.7031 33.9896 31.7031C33.9943 31.7123 33.9943 31.7169 33.999 31.7262C33.9943 31.7123 33.9896 31.6985 33.9803 31.6846C33.9662 31.6615 33.9522 31.6338 33.9382 31.6108C33.9148 31.5785 33.8867 31.5462 33.8634 31.5185C33.7792 31.4308 33.6951 31.3431 33.6062 31.2646C33.5595 31.2277 33.5127 31.1908 33.466 31.1585C33.3117 31.0615 33.1574 30.9692 32.9938 30.8862C32.8956 30.8446 32.7927 30.8031 32.6945 30.7662C32.6852 30.8262 32.6758 30.8862 32.6571 30.9462C32.5356 31.3754 32.0774 31.6338 31.6379 31.5138C31.6052 31.5046 31.5725 31.4954 31.5397 31.4815C31.4836 31.5462 31.4322 31.6108 31.3854 31.68C31.3387 31.7538 31.2966 31.8277 31.2545 31.9015C31.2078 31.9985 31.1657 32.1046 31.1236 32.2062C31.0909 32.3123 31.0629 32.4185 31.0348 32.5246C31.0161 32.6446 30.9974 32.7646 30.988 32.8892C30.9834 32.9539 30.9834 33.0231 30.988 33.0877C30.9974 33.1846 31.0114 33.2769 31.0254 33.3692C31.0395 33.4339 31.0582 33.4985 31.0769 33.5585C31.1003 33.6138 31.1236 33.6692 31.147 33.72C31.1657 33.7569 31.1891 33.7939 31.2125 33.8262C31.2125 33.8262 31.2125 33.8262 31.2171 33.8262C31.2265 33.8446 31.2405 33.8631 31.2499 33.8769C31.2405 33.8631 31.2312 33.8492 31.2218 33.8308C31.2125 33.8169 31.2031 33.8031 31.1938 33.7892C31.2265 33.8169 31.2545 33.8446 31.2732 33.8723Z" fill="black"/>
<path d="M12.9039 16.8692C12.4925 16.8231 12.1184 16.62 11.7912 16.3892C11.4592 16.1585 11.2488 15.7938 11.0805 15.4385C10.8935 15.0369 10.8514 14.5892 10.8421 14.1554C10.8327 13.7077 10.9309 13.2462 11.0805 12.8262C11.3564 12.0692 11.866 11.3538 12.6561 11.063C13.0068 10.9292 13.3761 10.9292 13.7361 11.0123C13.8857 11.0446 14.0493 11.1231 14.1803 11.2246C14.3065 11.2338 14.428 11.2662 14.5449 11.3215C15.6203 11.8615 17.1912 12.6277 16.8732 14.0677C16.7844 14.4785 16.5647 14.8753 16.3122 15.2169C16.0551 15.563 15.7558 15.8676 15.4192 16.14C14.8161 16.6246 14.04 16.8877 13.2639 16.8877C13.147 16.8877 13.0255 16.8831 12.9039 16.8692ZM13.1283 12.6415C13.1003 12.6646 13.0722 12.6877 13.0442 12.7108C13.0208 12.7338 12.9927 12.7615 12.9693 12.7846C12.9366 12.8215 12.9086 12.8585 12.8758 12.8954C12.8291 12.9738 12.7823 13.0477 12.7403 13.1262C12.7029 13.2092 12.6655 13.2923 12.6374 13.3754C12.6047 13.4862 12.5719 13.5969 12.5439 13.7077C12.5252 13.8185 12.5112 13.9292 12.5018 14.0353C12.5018 14.1507 12.5018 14.2569 12.5065 14.3723C12.5158 14.4462 12.5252 14.5154 12.5392 14.5892C12.5486 14.6308 12.5579 14.6723 12.5719 14.7138C12.5906 14.7692 12.614 14.82 12.6421 14.8754C12.6608 14.9123 12.6842 14.9446 12.7029 14.9815C12.7169 15 12.7309 15.0185 12.7449 15.0369C12.759 15.0508 12.7683 15.06 12.7823 15.0785C12.8057 15.0969 12.8244 15.1108 12.8478 15.1292C12.8758 15.1477 12.9039 15.1662 12.9413 15.1846C12.9693 15.1985 12.9974 15.2077 13.0301 15.2215C13.0582 15.2308 13.0862 15.24 13.1143 15.2446C13.1517 15.2538 13.1891 15.2538 13.2218 15.2585C13.2732 15.2585 13.3247 15.2585 13.3761 15.2585C13.4649 15.2492 13.5538 15.2354 13.6426 15.2215C13.6893 15.2123 13.7361 15.1985 13.7829 15.18C13.881 15.1431 13.9839 15.1015 14.0774 15.0554C14.1616 15.0092 14.2457 14.9585 14.3299 14.9077C14.3813 14.8708 14.4327 14.8338 14.4795 14.7923C14.5964 14.6908 14.7039 14.58 14.8114 14.4692C14.8769 14.3953 14.933 14.3215 14.9938 14.2431C15.0686 14.1277 15.134 14.0169 15.1995 13.8969C15.2182 13.8554 15.2416 13.8092 15.2556 13.7631C15.2556 13.7538 15.2603 13.7446 15.2603 13.7308C15.2603 13.7215 15.2603 13.7123 15.2603 13.7031C15.2556 13.6985 15.2509 13.6938 15.2509 13.6892C15.1948 13.6338 15.1387 13.5738 15.0779 13.5185C15.0452 13.4908 15.0078 13.4677 14.9704 13.44C14.5683 13.1769 14.1429 12.9462 13.7127 12.7292C13.7034 12.7246 13.6987 12.72 13.6893 12.72C13.5304 12.7154 13.3761 12.6692 13.2452 12.5862C13.2405 12.5862 13.2358 12.5862 13.2358 12.5908C13.2265 12.5954 13.2125 12.6 13.2031 12.6046C13.1751 12.6185 13.1517 12.6323 13.1283 12.6415Z" fill="black"/>
<path d="M22.2545 16.6985C21.8618 16.6385 21.4551 16.5046 21.1371 16.26C20.8286 16.02 20.5948 15.72 20.4265 15.3692C20.0338 14.5569 19.9216 13.5969 20.1273 12.72C20.2208 12.3231 20.3704 11.9123 20.6275 11.5846C20.8847 11.2569 21.1932 11.0262 21.5907 10.8831C21.7216 10.8369 21.8665 10.8046 22.0208 10.7908C22.2312 10.4677 22.6707 10.3062 23.04 10.4723C23.2691 10.5785 23.4935 10.6846 23.7226 10.7954C23.8769 10.8692 24.0358 10.9338 24.1901 11.0169C24.3771 11.1185 24.5501 11.2385 24.7231 11.3631C25.4197 11.88 25.8125 12.78 25.7143 13.6385C25.6208 14.4877 25.214 15.2446 24.5875 15.8308C24.2883 16.1123 23.9377 16.3292 23.5543 16.4862C23.241 16.62 22.867 16.7169 22.5117 16.7169C22.4229 16.7169 22.3387 16.7123 22.2545 16.6985ZM22.2686 15.0277C22.2732 15.0323 22.2686 15.0323 22.2686 15.0277C22.3107 15.0462 22.3527 15.0554 22.3948 15.0646C22.4182 15.0692 22.4416 15.0738 22.4649 15.0738C22.4836 15.0738 22.5023 15.0738 22.521 15.0738C22.5678 15.0692 22.6099 15.0646 22.6566 15.0554C22.7081 15.0415 22.7548 15.0323 22.8062 15.0138C22.9044 14.9815 22.9932 14.94 23.0868 14.8985C23.1288 14.8754 23.1756 14.8477 23.2177 14.82C23.2925 14.7646 23.3579 14.7138 23.4281 14.6538C23.4982 14.5892 23.5636 14.52 23.6291 14.4508C23.6665 14.4046 23.7039 14.3585 23.7413 14.3123C23.7927 14.2338 23.8395 14.1508 23.8909 14.0677C23.9236 13.9938 23.9564 13.92 23.9844 13.8462C24.0078 13.7723 24.0265 13.6985 24.0452 13.6246C24.0545 13.5692 24.0639 13.5092 24.0686 13.4492C24.0686 13.4077 24.0686 13.3708 24.0686 13.3292C24.0639 13.2877 24.0592 13.2508 24.0545 13.2092C24.0405 13.1585 24.0265 13.1031 24.0078 13.0523C23.9891 13.0154 23.9751 12.9785 23.961 12.9415C23.9423 12.9092 23.9283 12.8815 23.9096 12.8538C23.8956 12.8354 23.8816 12.8169 23.8675 12.7985C23.8488 12.7754 23.8255 12.7523 23.8021 12.7338C23.7086 12.66 23.6151 12.5862 23.5169 12.5169C23.4842 12.4985 23.4468 12.4754 23.4094 12.4569C23.3766 12.4385 23.3392 12.4246 23.3065 12.4062C23.2691 12.4385 23.227 12.4708 23.1803 12.4985C22.8764 12.6738 22.5117 12.6323 22.2499 12.4292C22.2452 12.4292 22.2405 12.4292 22.2405 12.4246C22.2265 12.4246 22.2171 12.42 22.2078 12.42C22.1891 12.42 22.1704 12.42 22.1517 12.42C22.147 12.42 22.1423 12.42 22.1377 12.4246C22.1423 12.4246 22.1423 12.4246 22.147 12.42C22.1283 12.4292 22.1096 12.4385 22.0909 12.4431C22.0769 12.4523 22.0675 12.4615 22.0535 12.4662C22.0442 12.4754 22.0348 12.48 22.0255 12.4892C22.0208 12.4985 22.0114 12.5031 22.0068 12.5123C21.9881 12.5354 21.9694 12.5585 21.9553 12.5769C21.9273 12.6185 21.9039 12.6646 21.8805 12.7062C21.8571 12.7569 21.8384 12.8031 21.8151 12.8538C21.7917 12.9369 21.7636 13.0154 21.7449 13.0985C21.7262 13.2046 21.7122 13.3108 21.7029 13.4169C21.6982 13.5508 21.6982 13.68 21.7029 13.8138C21.7122 13.9246 21.7262 14.0354 21.7449 14.1415C21.7683 14.2385 21.7964 14.3308 21.8244 14.4231C21.8618 14.5154 21.9039 14.6123 21.946 14.7046C21.9694 14.7508 21.9974 14.7923 22.0255 14.8385C22.0442 14.8569 22.0582 14.88 22.0722 14.8938C22.0816 14.9031 22.0909 14.9123 22.1003 14.9215C22.1143 14.9308 22.1283 14.9446 22.1423 14.9538C22.1704 14.9723 22.1984 14.9862 22.2265 15C22.2592 15.0138 22.292 15.0277 22.3247 15.0415C22.306 15.0369 22.2919 15.0323 22.2732 15.0231C22.2686 15.0231 22.2639 15.0185 22.2639 15.0185C22.2686 15.0185 22.2686 15.0231 22.2732 15.0231C22.2545 15.0185 22.2405 15.0138 22.2218 15.0046C22.2312 15.0138 22.2499 15.0231 22.2686 15.0277Z" fill="black"/>
<path d="M23.2504 26.16C22.8156 26.0031 22.4135 25.68 22.1049 25.3431C21.7964 25.0108 21.5626 24.6231 21.3709 24.2169C21.1558 23.7692 21.0717 23.2708 21.053 22.7815C21.0343 22.3477 21.1512 21.8954 21.3288 21.5031C21.5112 21.0924 21.8291 20.7646 22.2031 20.52C22.3621 20.4138 22.5631 20.3538 22.7455 20.3031C22.9605 20.2431 23.2083 20.2338 23.4281 20.2569C23.5216 20.2662 23.6057 20.2846 23.6945 20.3077C23.7039 20.3077 23.7179 20.3031 23.7273 20.2985C23.9844 20.2523 24.2462 20.2062 24.508 20.1923C24.7278 20.1785 24.9429 20.1877 25.1579 20.2338C25.3917 20.28 25.6021 20.3769 25.8125 20.4923C26.1771 20.6954 26.4764 21 26.7475 21.3138C27.0701 21.6877 27.2805 22.1215 27.4348 22.5877C27.5751 23.0031 27.5704 23.4554 27.4909 23.88C27.4021 24.3415 27.1917 24.7477 26.9158 25.1308C26.64 25.5138 26.2286 25.8231 25.8031 26.0354C25.401 26.2338 24.9475 26.3631 24.4987 26.3723C24.4753 26.3723 24.4566 26.3723 24.4379 26.3723C24.0218 26.3723 23.6384 26.3031 23.2504 26.16ZM22.7081 22.6754C22.7034 22.7446 22.7081 22.8138 22.7081 22.8877C22.7174 22.957 22.7268 23.0216 22.7361 23.0908C22.7595 23.197 22.7875 23.2985 22.8203 23.4C22.8577 23.4969 22.8951 23.5892 22.9418 23.6815C23.0026 23.7923 23.0681 23.9031 23.1382 24.0092C23.1943 24.0831 23.2504 24.1569 23.3112 24.2308C23.3673 24.2862 23.4234 24.3462 23.4795 24.3969C23.5356 24.4431 23.587 24.4846 23.6478 24.5262C23.7039 24.5631 23.7647 24.6 23.8255 24.6323C23.8675 24.6508 23.9096 24.6646 23.9517 24.6831C23.9938 24.6969 24.0358 24.7062 24.0779 24.7154C24.1434 24.7292 24.2135 24.7385 24.279 24.7431C24.3351 24.7431 24.3865 24.7431 24.4426 24.7431C24.5268 24.7338 24.6109 24.7246 24.6951 24.7108C24.7465 24.6969 24.7979 24.6831 24.8447 24.6692C24.9008 24.6462 24.9616 24.6231 25.0223 24.5954C25.1065 24.5538 25.1906 24.5031 25.2701 24.4523C25.3122 24.42 25.3496 24.3924 25.387 24.36C25.4431 24.3093 25.4992 24.2538 25.5506 24.1985C25.5834 24.1569 25.6114 24.1154 25.6442 24.0738C25.6769 24.0231 25.7096 23.9677 25.7377 23.9169C25.7657 23.8615 25.7891 23.8015 25.8125 23.7415C25.8312 23.6862 25.8452 23.6308 25.8592 23.5708C25.8686 23.5154 25.8779 23.4646 25.8826 23.4046C25.8826 23.3631 25.8826 23.3215 25.8826 23.2754C25.8779 23.2338 25.8732 23.1969 25.8639 23.1554C25.8499 23.0954 25.8312 23.0308 25.8125 22.9708C25.7844 22.8923 25.7517 22.8185 25.719 22.74C25.6769 22.6615 25.6301 22.5831 25.5834 22.5092C25.5179 22.4215 25.4478 22.3385 25.3823 22.2554C25.3169 22.1815 25.2468 22.1169 25.1719 22.0477C25.1205 22.0062 25.0691 21.9646 25.013 21.9323C24.9709 21.9092 24.9335 21.8815 24.8914 21.8585C24.8681 21.8492 24.84 21.8354 24.8166 21.8262C24.7605 21.8169 24.7044 21.8123 24.6483 21.8077C24.6857 21.8123 24.7231 21.8123 24.7605 21.8169C24.6764 21.8123 24.5875 21.8124 24.5034 21.8216C24.5408 21.8216 24.5782 21.8169 24.6156 21.8123C24.3912 21.8446 24.1668 21.8723 23.947 21.9138C23.933 21.9185 23.919 21.9185 23.9049 21.9231C23.6945 21.9969 23.4701 21.9785 23.2738 21.8862C23.2691 21.8862 23.2644 21.8815 23.2597 21.8769C23.2551 21.8769 23.2504 21.8769 23.241 21.8769C23.2223 21.8769 23.199 21.8769 23.1803 21.8769C23.1709 21.8769 23.1616 21.8815 23.1522 21.8815C23.1382 21.8862 23.1288 21.8908 23.1148 21.8908C23.0914 21.9 23.0727 21.9092 23.054 21.9138C23.0634 21.9092 23.0681 21.9046 23.0774 21.9046C23.0774 21.9046 23.0727 21.9046 23.0681 21.9046C23.054 21.9138 23.04 21.9231 23.026 21.9277C23.0166 21.9369 23.0073 21.9462 22.9932 21.9554C22.9792 21.9692 22.9652 21.9831 22.9512 22.0015C22.9325 22.0246 22.9091 22.0523 22.8904 22.08C22.8997 22.0662 22.9091 22.0523 22.9184 22.0385C22.9184 22.0385 22.9184 22.0385 22.9138 22.0385C22.8857 22.0846 22.8577 22.1308 22.8296 22.1769C22.8109 22.2138 22.7969 22.2554 22.7782 22.2923C22.7501 22.3846 22.7268 22.4769 22.7127 22.5692C22.7221 22.5323 22.7268 22.4954 22.7361 22.4631C22.7268 22.5369 22.7127 22.6015 22.7081 22.6754Z" fill="black"/>
<path d="M13.8343 25.8462C13.4883 25.8231 13.133 25.6615 12.8431 25.4815C12.5252 25.2877 12.2774 24.9969 12.1231 24.66C11.7725 23.9169 11.7912 23.0723 11.9735 22.2877C12.1465 21.5585 12.5065 20.7969 13.1984 20.4231C13.5164 20.2523 13.853 20.2154 14.2083 20.2569C14.3439 20.2754 14.4842 20.3215 14.6104 20.3862C14.7226 20.3815 14.8348 20.4046 14.9423 20.4508C15.48 20.6908 16.027 20.9308 16.4945 21.2954C17.0696 21.7431 17.3455 22.5415 17.2613 23.2477C17.2192 23.6031 17.121 23.9538 16.9481 24.2677C16.747 24.6323 16.4852 24.9277 16.1579 25.1862C15.5829 25.6477 14.8348 25.8508 14.1055 25.8508C14.0166 25.8554 13.9278 25.8508 13.8343 25.8462ZM13.9231 21.9092C13.9044 21.9323 13.8857 21.9554 13.867 21.9785C13.8296 22.0338 13.7969 22.0938 13.7642 22.1538C13.7268 22.2323 13.694 22.3108 13.666 22.3892C13.6379 22.4815 13.6099 22.5738 13.5865 22.6708C13.5538 22.8508 13.5257 23.0308 13.507 23.2154C13.5023 23.3308 13.4977 23.4462 13.5023 23.5569C13.507 23.6031 13.5117 23.6492 13.521 23.6908C13.5351 23.7415 13.5491 23.7923 13.5631 23.8431C13.5818 23.8846 13.5958 23.9262 13.6146 23.9677C13.6286 23.9908 13.6426 24.0138 13.6566 24.0369C13.6613 24.0415 13.666 24.0508 13.6707 24.0554C13.6753 24.0646 13.6847 24.0692 13.6894 24.0738C13.7081 24.0877 13.7221 24.0969 13.7408 24.1108C13.7595 24.12 13.7829 24.1338 13.8016 24.1431C13.839 24.1615 13.881 24.1754 13.9231 24.1938C13.9465 24.1985 13.9746 24.2077 14.0026 24.2169C14.054 24.2262 14.1008 24.2308 14.1475 24.2354C14.1475 24.2354 14.1475 24.2354 14.1522 24.2354C14.1335 24.2354 14.1101 24.2354 14.0914 24.2308C14.1288 24.2308 14.1662 24.2308 14.2036 24.2308C14.3112 24.2215 14.4187 24.2077 14.5309 24.1846C14.5823 24.1708 14.6291 24.1615 14.6758 24.1431C14.7694 24.1108 14.8582 24.0692 14.9517 24.0277C14.9938 24.0046 15.0358 23.9769 15.0779 23.9538C15.1294 23.9169 15.1808 23.88 15.2275 23.8385C15.2696 23.8015 15.3117 23.7646 15.3491 23.7231C15.3725 23.6954 15.3958 23.6677 15.4192 23.6354C15.452 23.5892 15.48 23.5385 15.5034 23.4877C15.5268 23.4369 15.5501 23.3908 15.5688 23.34C15.5829 23.2892 15.5969 23.2431 15.6062 23.1923C15.6156 23.1462 15.6203 23.1046 15.6249 23.0585C15.6249 23.0169 15.6249 22.9754 15.6249 22.9338C15.6249 22.9108 15.6203 22.8877 15.6156 22.8692C15.6062 22.8369 15.5969 22.8046 15.5875 22.7723C15.5782 22.7446 15.5642 22.7215 15.5548 22.6938C15.5408 22.6708 15.5268 22.6431 15.5127 22.62C15.5034 22.6108 15.494 22.6015 15.4894 22.5923C15.4753 22.5785 15.4566 22.5646 15.4426 22.5508C15.4099 22.5277 15.3771 22.5 15.3444 22.4769C15.2556 22.4215 15.1668 22.3662 15.0779 22.32C14.8488 22.2138 14.6197 22.0985 14.386 21.9923C14.2317 22.0015 14.0727 21.9692 13.9371 21.8954C13.9325 21.9 13.9278 21.9046 13.9231 21.9092Z" fill="black"/>
<path d="M7.25611 35.8661C6.99897 35.8477 6.7652 35.7877 6.52676 35.6908C6.11533 35.5246 5.75066 35.2108 5.50286 34.8508C5.21767 34.44 5.05403 33.9369 4.9465 33.4523C4.82494 32.9123 4.79689 32.3538 4.81092 31.8046C4.82494 31.26 4.91845 30.7154 5.08676 30.1938C5.23637 29.7323 5.47014 29.2985 5.80208 28.9431C6.10598 28.6108 6.48936 28.3708 6.91481 28.2185C7.29819 28.08 7.72832 28.08 8.02754 28.3846C8.06962 28.4308 8.1117 28.4769 8.14442 28.5323C8.17715 28.5185 8.2052 28.5092 8.23793 28.5C8.46234 28.44 8.67273 28.4815 8.87377 28.5831C9.14027 28.7169 9.39741 28.86 9.65923 28.9985C10.1174 29.2431 10.5008 29.5938 10.8281 29.9954C11.132 30.3738 11.3423 30.8215 11.4359 31.2969C11.534 31.7908 11.4966 32.2708 11.3283 32.7461C10.9777 33.7338 10.3091 34.6015 9.43949 35.2015C9.00468 35.4969 8.53715 35.7138 8.02286 35.82C7.8265 35.8615 7.62546 35.8846 7.42442 35.8846C7.36832 35.8708 7.31221 35.8708 7.25611 35.8661ZM6.84936 33.9092C6.86806 33.9369 6.89144 33.9646 6.91014 33.9923C6.93351 34.0154 6.95689 34.0338 6.97559 34.0569C7.00832 34.0846 7.04572 34.1077 7.07845 34.1354C7.11118 34.1538 7.13923 34.1723 7.17195 34.1908C7.19533 34.2 7.22338 34.2092 7.24676 34.2231C7.26546 34.2277 7.27949 34.2323 7.29819 34.2415C7.33559 34.2462 7.37299 34.2508 7.41507 34.2554H7.41975C7.40105 34.2554 7.38702 34.2554 7.36832 34.2508C7.4104 34.2508 7.45247 34.2508 7.48988 34.2508C7.55533 34.2461 7.62546 34.2323 7.68624 34.2231C7.77975 34.2046 7.86858 34.1815 7.95741 34.1492C8.01351 34.1261 8.06962 34.1031 8.12572 34.08C8.2426 34.02 8.35014 33.9554 8.46234 33.8861C8.57923 33.8031 8.68676 33.72 8.79897 33.6323C8.91585 33.5215 9.03273 33.4108 9.14027 33.2862C9.2291 33.18 9.31325 33.0692 9.39273 32.9585C9.47689 32.8338 9.55169 32.7046 9.62182 32.5708C9.67793 32.4415 9.73403 32.3123 9.78546 32.1785C9.80416 32.1231 9.81819 32.0631 9.83221 32.0031C9.83689 31.9708 9.84156 31.9431 9.84624 31.9108C9.84624 31.8831 9.84624 31.8554 9.84624 31.8231C9.83689 31.7492 9.82754 31.6708 9.81351 31.5969C9.79481 31.5323 9.78079 31.4723 9.75741 31.4077C9.73871 31.3662 9.72001 31.3246 9.70131 31.2831C9.67793 31.2369 9.64988 31.1954 9.62182 31.1492C9.55169 31.0477 9.47221 30.9508 9.39741 30.8538C9.36001 30.8123 9.31793 30.7754 9.28053 30.7385C9.18702 30.6646 9.09819 30.5908 9.00001 30.5215C8.69611 30.3277 8.36416 30.1615 8.04157 30.0046C7.92001 29.9446 7.8265 29.8523 7.75637 29.7415C7.63949 29.7923 7.50858 29.8154 7.37767 29.8062C7.35897 29.8154 7.33559 29.8246 7.32157 29.8292C7.27949 29.8523 7.24208 29.8754 7.20468 29.8985C7.17195 29.9215 7.13455 29.9492 7.10182 29.9723C7.07377 29.9954 7.04572 30.0231 7.02234 30.0554C6.98494 30.0969 6.94754 30.1431 6.91481 30.1892C6.86806 30.2585 6.82598 30.3277 6.7839 30.4015C6.74183 30.4938 6.70442 30.5815 6.6717 30.6692C6.62494 30.8123 6.58754 30.9554 6.55481 31.1077C6.51741 31.3108 6.48936 31.5092 6.47066 31.7123C6.45663 31.98 6.46131 32.2477 6.48001 32.52C6.49871 32.7092 6.52209 32.8985 6.55481 33.0831C6.58754 33.2215 6.62494 33.3646 6.6717 33.5031C6.71845 33.6277 6.76988 33.7523 6.82598 33.8723C6.84468 33.9 6.85871 33.9277 6.87273 33.9508C6.86338 33.9369 6.85403 33.9231 6.84468 33.9092C6.84468 33.9 6.84468 33.9046 6.84936 33.9092Z" fill="black"/>
</g>
<defs>
<clipPath id="clip0_68_1503">
<rect width="36" height="36" fill="white"/>
</clipPath>
</defs>
</svg>
