<svg width="184" height="137" viewBox="0 0 184 137" fill="none" xmlns="http://www.w3.org/2000/svg">
<path d="M153.657 119.588C154.143 119.865 154.584 120.099 154.447 120.65C154.283 121.315 153.629 121.433 153.11 121.503C150.864 121.803 148.607 122.001 146.344 122.161C143.849 122.337 141.373 122.761 138.884 123.029C137.991 123.126 137.085 122.986 136.183 123.089C135.053 123.217 133.911 123.289 132.79 123.433C132.257 123.502 131.762 123.341 131.217 123.447C130.467 123.579 129.706 123.645 128.944 123.643C127.569 123.667 126.196 123.766 124.831 123.939C124.082 124.03 123.312 123.934 122.553 123.96C119.863 124.051 117.182 124.278 114.486 124.303C112.56 124.321 110.627 124.512 108.694 124.592C106.55 124.68 104.412 124.914 102.268 125.057C100.262 125.19 98.2566 125.44 96.2545 125.659C95.0043 125.796 93.7424 125.868 92.4921 126.017C91.6283 126.136 90.7553 126.172 89.8845 126.126C88.7907 126.132 87.6987 126.214 86.6163 126.372C86.0613 126.411 85.5015 126.375 84.9442 126.39C83.1558 126.436 81.3635 126.43 79.5806 126.555C77.3877 126.709 75.1955 126.662 73.0026 126.695C70.4446 126.734 67.8856 126.86 65.3291 126.818C63.9138 126.795 62.5103 127.032 61.115 126.962C59.5627 126.884 58.0422 127.119 56.5078 127.177C54.0928 127.27 51.6866 127.574 49.2733 127.737C48.677 127.746 48.082 127.676 47.5046 127.527C47.3492 127.483 47.2155 127.383 47.129 127.246C47.0425 127.11 47.0092 126.946 47.0358 126.787C47.0565 125.801 47.045 124.813 47.1044 123.829C47.0828 123.545 47.0376 123.263 46.9692 122.986C46.8938 122.175 47.2825 121.441 47.2219 120.629C47.1856 120.144 47.7664 119.781 47.8753 119.257C47.9227 119.029 48.0733 118.751 47.6855 118.801C46.8099 118.781 45.9337 118.816 45.0623 118.903C44.6677 119.001 44.6204 119.108 44.5859 119.454C44.5262 120.054 43.6176 120.977 43.106 120.867C42.8781 120.818 42.6744 120.69 42.531 120.507C42.3873 120.323 42.3128 120.095 42.3203 119.862C42.3832 119.414 42.2889 118.958 42.0533 118.571C42.0027 118.481 41.9876 118.376 42.0109 118.275C42.0342 118.175 42.0943 118.087 42.1792 118.029C42.3448 117.855 42.4687 117.647 42.5415 117.418C42.6141 117.19 42.6341 116.947 42.5995 116.71C42.5789 115.479 42.6452 114.249 42.7975 113.027C42.9227 112.242 43.0091 111.451 43.0551 110.669C43.1294 109.408 43.107 108.156 43.2988 106.888C43.3487 106.201 43.3296 105.511 43.2414 104.829C43.1769 104.177 43.2155 103.52 43.3559 102.881C43.3835 102.22 43.3746 101.559 43.3296 100.9C43.3282 99.75 43.3987 98.6013 43.5407 97.4606C43.7321 96.305 43.7812 95.1303 43.6867 93.9628C43.6831 91.9527 43.8451 89.9481 43.8787 87.938C43.8965 86.8679 43.8838 85.8022 43.8975 84.7381C43.9023 84.0992 43.9449 83.461 44.0253 82.8271C44.2087 81.465 44.2425 80.1028 44.3262 78.738C44.3939 78.028 44.4972 77.3219 44.6355 76.6222C44.7979 75.6333 44.6413 74.633 44.8939 73.6516C45.1272 72.3384 45.2631 71.0098 45.3005 69.6766C45.4171 68.5642 45.4533 67.3859 45.6183 66.3042C45.6296 65.2427 45.7461 64.1848 45.9659 63.1462C46.3389 62.1107 45.9279 61.024 46.1253 59.9746C46.3928 58.1662 46.4827 56.336 46.3936 54.5101C46.3829 53.3409 46.4278 52.1638 46.3529 50.9845C46.2885 49.969 46.3783 48.8797 46.3474 47.8489C46.3995 46.9511 46.3882 46.0507 46.3136 45.1544C46.2248 44.6595 46.2553 44.1505 46.4029 43.6698C46.4617 43.0737 46.4199 42.4718 46.2795 41.8895C46.2173 40.2824 46.1016 38.6723 46.1439 37.0671C46.0641 35.4713 46.0763 33.872 46.1806 32.2775C46.1605 31.5261 46.0209 30.7827 45.7668 30.0753C45.6154 29.244 45.7642 28.4202 45.6914 27.6059C45.6093 26.6885 46.0952 25.7797 45.6777 24.87C45.5054 24.4947 45.7788 24.1284 45.7418 23.7275C45.6967 23.2359 45.7298 22.7312 45.6906 22.2272C45.6731 22.1408 45.6746 22.0518 45.695 21.9661C45.7153 21.8804 45.7542 21.8003 45.8085 21.7311C45.8629 21.6618 45.9318 21.605 46.0102 21.565C46.0886 21.5248 46.1749 21.5023 46.2629 21.4988C46.3377 21.4953 46.4582 21.5134 46.4804 21.4759C47.3114 20.074 48.7764 20.6991 49.9328 20.4831C51.6262 20.1668 53.3621 20.0848 55.0632 19.7214C56.0515 19.5423 57.0578 19.4837 58.0602 19.547C58.7248 19.57 59.1015 19.2377 59.0192 18.7379C58.8559 17.7465 59.4468 17.0408 59.7101 16.2095C60.2854 14.7885 61.1363 13.4952 62.2138 12.4041C62.6765 11.8176 63.2212 11.3006 63.8312 10.8689C64.7528 10.1848 65.8437 9.76497 66.9865 9.65473C67.8508 9.48045 68.7482 9.58665 69.5479 9.95798C70.3539 10.4175 71.0443 11.0552 71.5658 11.8223C71.8407 12.2851 72.4457 12.5315 72.4508 13.1842C72.5493 14.0565 72.7225 14.9189 72.9686 15.7617C73.0465 16.2179 73.1528 16.6688 73.2868 17.1116C73.4807 17.7224 73.3867 17.9908 73.0451 18.307C75.5873 18.307 78.2289 18.2432 80.8645 18.3423C81.7624 18.3761 81.9945 17.9384 82.1814 17.3025C82.6521 15.6553 83.6154 14.1914 84.9422 13.1071C86.3805 11.9022 88.0882 11.0613 89.9204 10.6554C90.6896 10.4336 91.497 10.3774 92.2895 10.4902C93.0821 10.603 93.8415 10.8823 94.5183 11.3098C95.0243 11.6419 95.1531 12.2463 95.5871 12.636C96.2716 13.3002 96.7273 14.1644 96.8886 15.1042C96.9936 15.5572 97.2074 15.9778 97.5116 16.3298C97.7105 16.4872 97.8467 16.7108 97.895 16.9598C97.9434 17.2088 97.9009 17.467 97.7754 17.6874C97.4589 18.2047 96.895 18.138 96.366 18.1063C95.5303 18.0561 95.2724 17.5281 95.0997 16.7974C94.8192 15.8959 94.3748 15.0538 93.7885 14.3136C93.6098 14.0525 93.3428 13.8307 93.3009 13.5038C93.2094 12.7889 92.4414 12.7309 92.0973 12.2261C91.7089 11.6563 91.0466 11.9426 90.4529 12.0512C89.1233 12.373 87.8854 12.9956 86.8347 13.8711C85.9518 14.5161 85.2633 15.3913 84.8449 16.4013C84.6868 16.7595 84.2816 17.0758 84.116 17.5119C83.8318 18.2609 83.9462 18.4123 84.7031 18.4662C88.5687 18.7413 92.4411 18.5012 96.3056 18.6434C97.4863 18.6868 98.6711 18.5539 99.8218 18.6562C101.879 18.839 103.938 18.6312 105.992 18.8518C106.547 18.8309 107.102 18.851 107.654 18.9118C108.302 19.0742 108.597 18.686 108.65 18.1368C108.775 16.8172 109.112 15.5265 109.65 14.3145C110.273 12.8033 111.378 11.5398 112.793 10.7198C113.648 10.1085 114.595 9.63698 115.599 9.32287C116.731 9.03672 117.929 9.18267 118.96 9.73204C120.031 10.3885 120.883 11.3492 121.406 12.4914C122.029 13.801 122.573 15.1462 123.036 16.5202C123.073 16.6246 123.086 16.7359 123.074 16.8461C123.062 16.9562 123.026 17.0624 122.968 17.1568C122.91 17.2512 122.832 17.3314 122.739 17.3917C122.646 17.4519 122.541 17.4908 122.431 17.5054C121.839 17.6221 121.228 17.5826 120.656 17.3906C120.226 17.2469 120.307 16.7963 120.29 16.5643C120.157 15.5961 119.832 14.6641 119.333 13.823C118.934 12.9749 118.423 12.1846 117.812 11.4735C116.899 10.4447 116.866 10.3152 115.633 10.877C114.048 11.4776 112.715 12.5989 111.853 14.0568C111.202 15.176 110.789 16.4177 110.642 17.704C110.648 17.8293 110.636 17.9547 110.606 18.0765C110.284 18.9277 110.368 18.9728 111.299 18.9288C112.757 18.8743 114.216 18.9035 115.669 19.0159C116.489 19.0708 117.339 19.0539 118.176 19.0603C120.672 19.079 123.17 19.0075 125.664 19.0838C128.191 19.1609 130.715 19.315 133.237 19.5461C134.913 19.7007 136.596 19.7907 138.267 20.0756C138.997 20.2 139.797 20.216 140.564 20.2883C141.45 20.372 141.731 20.838 141.552 21.7598C141.41 22.4937 141.791 23.2343 141.57 23.9838C141.632 24.0693 141.717 24.1366 141.814 24.1786C141.912 24.2207 142.019 24.236 142.124 24.2229C142.751 24.0882 143.385 23.9925 144.023 23.9365C145.38 23.6737 146.751 23.4869 148.129 23.377C149.27 23.2556 150.419 23.2385 151.564 23.3259C151.721 23.3422 151.873 23.3894 152.012 23.4649C152.15 23.5405 152.273 23.6428 152.371 23.766C152.47 23.8891 152.543 24.0307 152.587 24.1823C152.632 24.3341 152.645 24.4928 152.627 24.6498C152.63 25.1733 152.396 25.692 152.623 26.2361C152.819 26.7087 152.466 27.1808 152.46 27.6944C152.54 28.4754 152.562 29.262 152.522 30.0462C152.247 31.6275 152.135 33.2325 152.188 34.8365C152.249 36.1555 152.111 37.4998 152.251 38.7831C152.403 40.1839 152.479 41.5961 152.665 42.9942C152.904 44.7926 153.095 46.6008 153.422 48.3833C153.745 49.5148 153.996 50.6652 154.176 51.828C154.52 53.532 154.607 55.2779 154.431 57.0075C154.42 57.0518 154.338 57.1099 154.347 57.1235C155.058 58.1983 154.251 59.322 154.45 60.4196C154.487 60.6512 154.475 60.8879 154.418 61.1154C154.36 61.3428 154.257 61.5562 154.115 61.743C153.92 62.0094 154.1 62.2474 154.095 62.4978C154.076 63.677 153.635 64.8098 153.603 65.9757C153.559 67.6201 153.153 69.2308 153.239 70.8844C153.293 71.9034 153.078 72.9173 153.13 73.9478C153.145 74.2409 153.259 74.4974 153.267 74.7875C153.247 75.5057 153.182 76.2222 153.075 76.9328C152.991 77.8298 153.218 78.6926 153.185 79.5875C153.066 80.5506 153.029 81.5217 153.072 82.491C153.171 83.4696 153.076 84.458 152.798 85.401C152.671 85.8748 152.91 86.3345 152.819 86.8383C152.761 88.0337 152.804 89.232 152.947 90.4203C152.985 90.8179 152.929 91.2187 152.782 91.5906C152.621 91.9294 152.598 92.3176 152.72 92.6729C152.848 93.1081 152.878 93.5667 152.807 94.015C152.747 95.424 152.863 96.8349 153.153 98.2151C153.154 99.0866 153.2 99.9576 153.288 100.825C153.474 101.971 153.217 103.094 153.316 104.235C153.34 104.891 153.479 105.538 153.727 106.146C153.82 106.561 153.821 106.992 153.733 107.409C153.698 108.178 154.303 108.757 154.169 109.504C154.153 109.586 154.295 109.717 154.265 109.773C153.724 110.814 154.357 111.832 154.373 112.86C154.391 114.238 154.229 115.61 154.28 116.987C154.255 117.209 154.284 117.434 154.362 117.643C154.895 118.35 154.633 118.85 154.027 119.302C153.923 119.378 153.824 119.458 153.657 119.588ZM47.008 21.9157C47.1719 22.6837 47.2487 23.4678 47.237 24.2529C47.0108 26.1397 47.1972 28.0265 47.0696 29.9033C47.0289 30.5013 47.5477 30.7187 47.5411 31.2594C47.5212 32.8972 47.7692 34.5346 47.6546 36.1736C47.5564 37.5797 48.0136 38.9439 47.9309 40.3328C47.8245 42.1191 48.0273 43.896 48.0348 45.6781C48.0397 46.817 47.9232 47.9597 48.036 49.1151C48.2074 50.8687 48.1291 52.6447 48.1367 54.4115C48.1442 56.1759 48.2053 57.9386 48.084 59.7015C48.0316 60.4625 47.958 61.2219 47.9122 61.9832C47.8933 63.4477 47.7975 64.9101 47.6249 66.3646C47.4723 67.2737 47.4909 68.1803 47.3724 69.0834C47.1666 70.6528 47.1387 72.2448 46.9607 73.8186C46.6411 76.0683 46.4469 78.334 46.379 80.6051C46.3375 81.5448 46.2461 82.4814 46.1051 83.4114C46.0394 83.8361 46.0052 84.265 46.0023 84.6947C46.0422 85.8253 45.9426 86.9566 45.9328 88.0884C45.9196 89.6296 45.6507 91.1712 45.6023 92.7248C45.6848 93.2977 45.6784 93.8798 45.5831 94.4508C45.3016 95.222 45.2085 96.0494 45.3118 96.8638C45.5217 99.5553 45.3306 102.237 45.3334 104.921C45.2358 105.608 45.1944 106.301 45.2098 106.994C45.2999 107.826 45.305 108.663 45.2248 109.496C45.1974 110.542 44.9533 111.585 44.9641 112.628C44.9773 113.899 44.6963 115.137 44.682 116.398C44.6077 116.788 44.615 117.189 44.7036 117.575C44.8541 117.882 45.2938 117.572 45.6061 117.563C47.0429 117.524 48.487 117.516 49.9123 117.354C51.5805 117.165 53.249 117.013 54.9246 116.963C56.3533 116.92 57.7863 116.994 59.2133 116.926C60.4055 116.843 61.6012 116.821 62.7955 116.861C64.5046 116.959 66.2086 116.891 67.9121 116.922C70.4108 116.967 72.9143 116.86 75.4129 116.755C77.1913 116.681 78.977 116.736 80.7446 116.618C82.9305 116.471 85.121 116.407 87.3068 116.249C89.0874 116.121 90.8766 116.084 92.6612 115.956C94.8176 115.8 96.9841 115.783 99.1403 115.625C102.85 115.354 106.569 115.246 110.277 114.934C112.507 114.746 114.751 114.679 116.988 114.563C118.921 114.463 120.857 114.493 122.786 114.246C124.133 114.073 125.507 114.097 126.852 113.91C128.92 113.623 131.006 113.619 133.078 113.419C134.209 113.314 135.344 113.268 136.48 113.281C136.694 113.282 137.017 113.314 136.891 112.944C136.657 111.952 136.565 110.933 136.618 109.916C136.495 109.303 136.464 108.675 136.524 108.053C136.63 107.474 136.556 106.877 136.314 106.341C136.249 106.208 136.202 106.067 136.174 105.921C136.162 104.187 135.805 102.482 135.809 100.736C135.601 99.4865 135.53 98.2183 135.594 96.9533C135.863 95.6968 135.202 94.4446 135.626 93.1798C135.899 92.3675 135.665 91.4667 135.957 90.6478C136.218 89.6516 136.302 88.6174 136.207 87.5918C136.041 86.6243 136.029 85.6367 136.172 84.6654C136.663 83.3966 136.142 82.2141 136.372 80.9889C136.584 79.855 136.167 78.6121 136.758 77.4824C136.786 77.4118 136.797 77.3357 136.791 77.2601C136.795 76.2851 136.746 75.307 136.809 74.3362C136.898 72.9485 136.766 71.5599 136.859 70.1785C136.915 69.3541 136.847 68.5417 136.856 67.7271C136.868 66.6888 136.871 65.6517 136.839 64.6142C136.808 63.6327 137.053 62.6762 137.105 61.7057C137.164 60.5742 137.767 59.5756 137.775 58.4204C137.817 57.5423 137.952 56.6709 138.177 55.8211C138.342 54.1699 138.397 52.5098 138.343 50.8513C138.346 50.0339 138.283 49.2175 138.154 48.4103C137.992 46.8025 138.027 45.181 138.26 43.582C138.524 42.0905 138.735 40.592 138.993 39.101C139.264 37.1941 139.32 35.2629 139.159 33.3436C139.127 32.7268 138.977 32.5399 138.345 32.5506C137.872 32.5856 137.398 32.5882 136.924 32.5585C133.941 32.1907 130.934 32.3747 127.945 32.1499C125.556 31.9703 123.159 31.9082 120.768 31.7726C118.662 31.6529 116.555 31.5651 114.45 31.4436C110.34 31.2063 106.219 31.1684 102.103 31.051C100.183 30.9962 98.2572 31.1296 96.3465 31.0705C92.4379 30.9495 88.5311 31.0286 84.6254 31.0293C80.8479 31.0299 77.0712 31.3078 73.2925 31.3778C71.4415 31.4121 69.5825 31.3553 67.7329 31.3838C64.2819 31.4369 60.8265 31.2745 57.3792 31.5532C55.9537 31.6684 54.5235 31.615 53.0933 31.7758C51.7162 31.8681 50.3354 31.8914 48.956 31.8455C48.7268 31.8481 48.5382 31.7756 48.5106 31.5348C48.5012 31.4779 48.5043 31.4194 48.5193 31.3637C48.5346 31.308 48.5615 31.2559 48.5984 31.2115C48.6354 31.167 48.6815 31.1312 48.7338 31.1061C48.7859 31.0812 48.8427 31.0675 48.9006 31.0664C49.3757 31.0081 49.8376 30.8892 50.3235 30.8664C51.5736 30.8076 52.856 30.8492 54.0667 30.6683C56.6846 30.2773 59.3156 30.2147 61.9399 30.0562C64.7272 29.888 67.5265 29.9054 70.3207 29.8693C72.5434 29.8407 74.7667 29.8998 76.9869 29.7157C77.7671 29.651 78.5561 29.7005 79.3404 29.6772C81.2645 29.6201 83.1878 29.5413 85.1119 29.4901C86.3853 29.4562 87.6614 29.4066 88.9326 29.4562C89.785 29.4895 90.6334 29.4122 91.49 29.4737C92.2018 29.5513 92.9191 29.5691 93.6339 29.5268C95.1358 29.3749 96.6317 29.4987 98.1259 29.47C99.4438 29.4446 100.784 29.539 102.104 29.553C104.776 29.5816 107.435 29.8469 110.103 29.8407C111.872 29.8366 113.623 30.059 115.385 30.1255C117.842 30.2184 120.299 30.2843 122.756 30.4045C125.931 30.56 129.11 30.8178 132.297 30.7292C132.6 30.717 132.905 30.7309 133.206 30.7708C135.127 30.9853 137.06 31.0691 138.993 31.0213C139.286 31.0242 139.361 30.9265 139.402 30.637C139.481 30.0773 139.266 29.532 139.306 29.0115C139.396 27.8265 139.343 26.6459 139.331 25.4664C139.319 24.2601 139.354 23.0578 139.381 21.8215C138.238 21.6738 137.07 21.4861 135.894 21.3781C132.911 21.1035 129.918 20.9949 126.927 20.8343C126.192 20.7947 125.474 20.9161 124.737 20.8521C123.333 20.7305 121.92 20.7072 120.51 20.6809C117.814 20.6302 115.118 20.6162 112.422 20.5632C111.814 20.5512 111.214 20.5812 110.61 20.6195C110.296 20.6393 110.202 20.7278 110.155 21.0532C109.946 22.4392 109.952 23.8491 110.174 25.2332C110.274 25.8406 110.061 26.4063 109.593 26.4156C108.983 26.4277 108.779 25.9998 108.673 25.4523C108.409 23.9759 108.298 22.476 108.343 20.9768C108.348 20.6724 108.249 20.5806 107.94 20.5025C107.265 20.4294 106.583 20.4379 105.91 20.5274C104.58 20.5026 103.251 20.4239 101.921 20.4052C100.383 20.3837 98.8442 20.4165 97.3058 20.4011C94.9186 20.3774 92.5311 20.3495 90.1446 20.2895C89.061 20.3154 87.9767 20.2834 86.8964 20.1939C85.9109 20.0642 84.9094 20.0589 83.9162 19.9819C83.6237 19.9593 83.5049 20.0233 83.5217 20.3461C83.5747 20.9354 83.5776 21.528 83.5301 22.1177C83.4152 23.4084 83.4588 24.7081 83.6598 25.9881C83.7555 26.7597 83.5314 27.1789 82.9485 27.2342C82.1897 27.3062 82.1019 26.7119 82.0376 26.1959C81.821 25.2294 81.6865 24.2462 81.6352 23.2572C81.6674 22.3983 81.4677 21.5065 81.5709 20.624C81.6405 20.0301 81.431 19.7924 80.8144 19.8318C79.7494 19.937 78.6784 19.9702 77.609 19.9312C75.7885 19.8003 73.982 20.0268 72.1702 20.0521C68.9851 20.0963 65.8088 20.4631 62.6354 20.7777C62.1326 20.8275 61.6249 20.8267 61.1203 20.8611C60.9549 20.8724 60.7013 20.853 60.7453 21.1133C60.8463 21.7102 60.5867 22.2745 60.6912 22.8915C60.8393 24.0028 61.0435 25.1058 61.3034 26.1965C61.3529 26.3696 61.3427 26.5542 61.2744 26.7208C61.206 26.8874 61.0837 27.026 60.9268 27.1146C60.5817 27.3025 60.3416 27.0345 60.1652 26.7935C59.5555 25.9237 59.1519 24.9265 58.9849 23.8777C58.852 23.1245 58.8533 22.322 58.7574 21.5373C58.6887 20.9751 58.4866 20.983 58.1411 21.0025C56.985 21.0132 55.8309 21.0995 54.6862 21.2607C52.1532 21.7428 49.5845 21.6416 47.008 21.9157ZM71.3562 18.4831C70.9731 18.3324 70.8816 18.0873 70.7172 17.7806C70.36 17.1139 70.6264 16.3573 70.249 15.7061C69.8082 14.9457 69.8106 14.0205 69.3232 13.2262C69.1228 12.8996 68.9711 12.349 68.7717 11.9284C68.6452 11.6601 68.4425 11.4349 68.1889 11.2808C67.9353 11.1268 67.6419 11.0506 67.3454 11.0621C66.3725 11.2201 65.4763 11.6866 64.789 12.3926C63.6052 13.4401 62.6001 14.6733 61.8127 16.0436C61.2827 17.0691 60.914 18.17 60.7198 19.3078C64.3116 19.0381 67.7964 18.4597 71.3562 18.4831Z" fill="#212222"/>
<path d="M47.008 21.9159C49.5845 21.6416 52.1532 21.7428 54.6861 21.2607C55.8309 21.0994 56.985 21.0131 58.1411 21.0024C58.4866 20.9829 58.6887 20.975 58.7574 21.5372C58.8533 22.3219 58.852 23.1244 58.9848 23.8776C59.1517 24.9264 59.5554 25.9236 60.1653 26.7934C60.3416 27.0344 60.5815 27.3024 60.9268 27.1144C61.0836 27.0258 61.206 26.8873 61.2743 26.7208C61.3425 26.5543 61.3529 26.3695 61.3034 26.1964C61.0434 25.1057 60.8391 24.0027 60.6912 22.8913C60.5867 22.2745 60.8461 21.7101 60.7453 21.1132C60.7011 20.8529 60.9549 20.8723 61.1203 20.861C61.6249 20.8266 62.1326 20.8273 62.6354 20.7776C65.8088 20.4629 68.9849 20.0965 72.1702 20.0521C73.982 20.0268 75.7884 19.8002 77.6089 19.9311C78.6784 19.97 79.7492 19.937 80.8144 19.8317C81.4308 19.7924 81.6404 20.03 81.5708 20.6238C81.4675 21.5064 81.6674 22.3981 81.6351 23.2571C81.6864 24.2463 81.8211 25.2293 82.0375 26.1958C82.1019 26.7118 82.1897 27.3062 82.9484 27.2341C83.5313 27.1788 83.7555 26.7596 83.6597 25.988C83.4586 24.7081 83.4151 23.4083 83.5301 22.1176C83.5774 21.5279 83.5747 20.9353 83.5217 20.346C83.5049 20.0232 83.6237 19.9592 83.9162 19.9819C84.9093 20.0588 85.9108 20.0641 86.8963 20.1938C87.9765 20.2833 89.0609 20.3153 90.1445 20.2894C92.531 20.3492 94.9186 20.3772 97.3057 20.4011C98.8441 20.4163 100.383 20.3836 101.921 20.4051C103.251 20.4238 104.58 20.5025 105.91 20.5275C106.583 20.4378 107.265 20.4296 107.94 20.5025C108.249 20.5807 108.348 20.6722 108.343 20.9767C108.298 22.4759 108.409 23.9759 108.673 25.4523C108.779 25.9999 108.983 26.4276 109.593 26.4154C110.061 26.4061 110.274 25.8405 110.174 25.2331C109.952 23.849 109.946 22.4391 110.154 21.0531C110.202 20.7276 110.296 20.6392 110.609 20.6194C111.214 20.5812 111.814 20.5512 112.422 20.5631C115.118 20.6161 117.814 20.6301 120.51 20.6808C121.92 20.7071 123.333 20.7304 124.737 20.852C125.474 20.9159 126.192 20.7946 126.927 20.8342C129.918 20.9948 132.911 21.1033 135.894 21.3779C137.07 21.486 138.238 21.6737 139.38 21.8215C139.354 23.0579 139.319 24.26 139.331 25.4663C139.343 26.6457 139.396 27.8264 139.306 29.0114C139.266 29.5319 139.48 30.0771 139.402 30.6369C139.361 30.9264 139.286 31.0241 138.993 31.0214C137.06 31.069 135.127 30.9851 133.206 30.7707C132.904 30.7308 132.6 30.7169 132.297 30.7293C129.11 30.8177 125.931 30.5598 122.756 30.4044C120.299 30.2842 117.842 30.2184 115.385 30.1255C113.623 30.0589 111.872 29.8365 110.103 29.8406C107.435 29.8468 104.775 29.5815 102.104 29.553C100.784 29.5389 99.4438 29.4447 98.1259 29.4699C96.6317 29.4987 95.1358 29.3749 93.6339 29.5267C92.9189 29.569 92.2018 29.5512 91.4899 29.4736C90.6333 29.4121 89.7848 29.4894 88.9326 29.4562C87.6614 29.4066 86.3853 29.4561 85.1119 29.49C83.1878 29.5412 81.2643 29.62 79.3404 29.6771C78.5561 29.7004 77.767 29.6509 76.9868 29.7156C74.7666 29.8995 72.5434 29.8406 70.3206 29.8692C67.5263 29.9053 64.7272 29.8879 61.9399 30.0561C59.3156 30.2146 56.6845 30.2773 54.0668 30.6682C52.856 30.8491 51.5736 30.8076 50.3234 30.8664C49.8375 30.8892 49.3757 31.008 48.9004 31.0663C48.8427 31.0673 48.7857 31.081 48.7337 31.106C48.6816 31.1311 48.6354 31.1669 48.5984 31.2113C48.5614 31.2558 48.5344 31.3078 48.5193 31.3636C48.5041 31.4194 48.5012 31.4777 48.5107 31.5347C48.5382 31.7755 48.7266 31.8479 48.956 31.8453C50.3354 31.8913 51.7162 31.868 53.0931 31.7758C54.5236 31.6149 55.9537 31.6683 57.3792 31.5531C60.8263 31.2744 64.282 31.4368 67.7327 31.3837C69.5825 31.3552 71.4414 31.412 73.2923 31.3777C77.071 31.3078 80.8477 31.0297 84.6252 31.0291C88.5311 31.0285 92.4378 30.9494 96.3464 31.0704C98.2572 31.1294 100.183 30.9961 102.103 31.0509C106.219 31.1683 110.34 31.2062 114.45 31.4435C116.555 31.565 118.662 31.6528 120.768 31.7724C123.159 31.9082 125.556 31.9702 127.945 32.1498C130.934 32.3746 133.94 32.1906 136.924 32.5584C137.397 32.588 137.872 32.5855 138.345 32.5504C138.977 32.5398 139.127 32.7267 139.159 33.3435C139.32 35.2627 139.264 37.194 138.993 39.1009C138.735 40.5919 138.524 42.0904 138.26 43.5818C138.027 45.1809 137.992 46.8024 138.154 48.4102C138.283 49.2174 138.346 50.0338 138.343 50.8512C138.397 52.5097 138.342 54.1698 138.177 55.821C137.952 56.6708 137.817 57.5421 137.775 58.4203C137.767 59.5755 137.164 60.5742 137.104 61.7059C137.053 62.6764 136.808 63.6325 136.839 64.6141C136.871 65.6516 136.868 66.6887 136.856 67.727C136.847 68.5414 136.915 69.3541 136.859 70.1784C136.766 71.5598 136.898 72.9484 136.809 74.336C136.746 75.3071 136.795 76.2851 136.791 77.2599C136.797 77.3356 136.786 77.4117 136.758 77.4823C136.167 78.612 136.584 79.8549 136.371 80.9888C136.142 82.2142 136.663 83.3965 136.173 84.6654C136.029 85.6366 136.041 86.6242 136.207 87.5917C136.302 88.6172 136.218 89.6514 135.957 90.6477C135.665 91.4665 135.899 92.3674 135.626 93.1796C135.202 94.4445 135.863 95.6966 135.594 96.9532C135.53 98.2182 135.601 99.4864 135.809 100.736C135.805 102.482 136.162 104.187 136.174 105.921C136.202 106.067 136.249 106.208 136.314 106.341C136.556 106.877 136.63 107.474 136.524 108.053C136.464 108.675 136.495 109.303 136.618 109.915C136.565 110.933 136.657 111.953 136.891 112.944C137.017 113.314 136.694 113.282 136.48 113.281C135.344 113.268 134.209 113.314 133.078 113.419C131.006 113.619 128.92 113.622 126.852 113.91C125.507 114.097 124.133 114.073 122.785 114.246C120.857 114.494 118.921 114.463 116.988 114.563C114.751 114.679 112.507 114.746 110.277 114.933C106.568 115.245 102.85 115.354 99.1402 115.625C96.984 115.783 94.8176 115.8 92.6611 115.956C90.8767 116.085 89.0874 116.121 87.3066 116.249C85.121 116.408 82.9304 116.471 80.7446 116.617C78.977 116.736 77.1912 116.68 75.4129 116.755C72.9141 116.859 70.4108 116.966 67.9122 116.921C66.2086 116.891 64.5046 116.959 62.7955 116.861C61.601 116.821 60.4055 116.843 59.2133 116.926C57.7864 116.994 56.3532 116.92 54.9245 116.963C53.2488 117.013 51.5805 117.165 49.9121 117.354C48.4869 117.516 47.0428 117.524 45.6061 117.563C45.2939 117.571 44.8541 117.882 44.7035 117.575C44.615 117.189 44.6075 116.788 44.682 116.398C44.6963 115.137 44.9772 113.899 44.9641 112.628C44.9533 111.585 45.1974 110.541 45.2249 109.496C45.305 108.663 45.3 107.825 45.2098 106.994C45.1944 106.301 45.2357 105.608 45.3335 104.921C45.3304 102.237 45.5217 99.5552 45.3117 96.8637C45.2086 96.0493 45.3016 95.2221 45.5831 94.4508C45.6785 93.8799 45.6849 93.2976 45.6021 92.7246C45.6507 91.1712 45.9196 89.6295 45.9328 88.0883C45.9424 86.9565 46.0422 85.8252 46.0023 84.6946C46.0052 84.2649 46.0395 83.8359 46.1049 83.4112C46.2461 82.4813 46.3375 81.5447 46.3788 80.605C46.4469 78.3339 46.6411 76.0682 46.9605 73.8185C47.1386 72.2445 47.1666 70.6527 47.3724 69.0833C47.4909 68.1802 47.4723 67.2735 47.6249 66.3645C47.7974 64.91 47.8933 63.4476 47.9121 61.9831C47.9581 61.2218 48.0316 60.4624 48.084 59.7014C48.2053 57.9387 48.144 56.1759 48.1366 54.4115C48.1291 52.6448 48.2074 50.8687 48.036 49.1151C47.9232 47.9597 48.0395 46.8169 48.0348 45.6779C48.0272 43.8959 47.8243 42.119 47.9308 40.3327C48.0135 38.9439 47.5564 37.5797 47.6546 36.1736C47.7692 34.5347 47.521 32.897 47.541 31.2593C47.5476 30.7186 47.0289 30.5015 47.0696 29.9034C47.1972 28.0267 47.0106 26.1396 47.2368 24.2528C47.2487 23.4678 47.1719 22.6839 47.008 21.9159ZM83.08 72.0797C83.2291 72.4336 83.1569 72.7249 82.8853 72.8397C81.5586 73.5337 80.4307 74.5539 79.6079 75.8041C78.3429 77.4583 77.5967 79.4501 77.4634 81.5278C77.3618 82.0674 77.3894 82.6232 77.5437 83.1502C77.6981 83.6772 77.975 84.1602 78.3519 84.5597C78.8769 85.037 79.2745 85.7221 79.9733 85.9297C81.3638 86.4546 82.8171 86.796 84.2959 86.9454C85.6939 87.0783 87.1007 87.09 88.5007 86.9808C91.1458 86.6251 93.6516 85.5827 95.7682 83.9576C96.4495 83.4685 97.0129 82.8334 97.4172 82.0988C97.8214 81.3641 98.0563 80.5484 98.1048 79.7115C98.1532 78.8744 98.0138 78.0372 97.697 77.2608C97.3802 76.4845 96.8938 75.7889 96.2734 75.2244C95.9018 74.8882 95.521 74.4657 95.9921 73.8841C96.7266 72.9773 97.0867 71.8461 97.8403 70.9261C98.7244 69.8467 99.3605 68.5796 100.263 67.4894C101.419 66.0937 102.506 64.6387 103.767 63.3354C104.071 63.0215 104.44 62.7102 104.214 62.3484C104.098 62.1062 103.892 61.9181 103.641 61.8232C103.389 61.7284 103.111 61.7342 102.863 61.8391C101.99 62.3772 101.193 63.0293 100.493 63.7782C99.8083 64.3611 99.5158 65.2788 98.85 65.8492C98.1702 66.5392 97.5671 67.3009 97.0512 68.1207C95.9997 69.6412 95.0421 71.2246 94.1841 72.8619C94.0092 73.1621 93.851 73.1451 93.5824 72.9804C92.7797 72.3916 91.8574 71.9862 90.8808 71.7926C89.6342 71.4006 88.2944 71.4193 87.0594 71.8463C86.482 72.1495 85.7991 71.8028 85.197 72.0711C85.1053 72.1121 84.985 71.9769 85.0091 71.8866C85.1446 71.3755 84.7209 70.9145 84.8747 70.4182C84.958 69.9543 84.951 69.4788 84.8542 69.0176C84.8309 68.6961 84.6487 68.2121 84.1992 68.1951C83.7358 68.1777 83.4819 68.537 83.4303 68.9772C83.377 70.0175 83.26 71.0537 83.08 72.0797ZM67.7789 59.1963C68.8585 59.2928 69.9465 59.1902 70.9891 58.8937C72.0921 58.5932 73.119 58.063 74.0024 57.338C74.8859 56.613 75.606 55.7094 76.1154 54.6866C76.7757 53.2694 77.2759 51.7833 77.6069 50.2554C77.6779 49.9083 77.4614 49.6532 77.5303 49.3133C77.675 48.5333 77.6108 47.7288 77.3444 46.9816C77.0782 46.2343 76.6191 45.5706 76.0136 45.0576C75.5701 44.5305 75.0749 44.049 74.5355 43.6203C73.7292 42.8547 72.6537 42.4371 71.5417 42.4583C71.3785 42.4632 71.2208 42.5193 71.0913 42.619C70.9617 42.7186 70.867 42.8565 70.8204 43.0131C70.8002 43.1897 70.8405 43.3677 70.9344 43.5185C71.0284 43.6694 71.1707 43.7841 71.3381 43.8441C73.0591 44.6801 74.4981 46.0008 75.4779 47.6434C75.5475 47.7323 75.5987 47.834 75.6287 47.9428C75.6586 48.0517 75.6665 48.1654 75.652 48.2773C75.4444 48.7988 75.7105 49.3177 75.5934 49.813C75.4922 50.2408 75.7428 50.6051 75.6612 51.0462C75.3916 52.011 75.0344 52.9493 74.5939 53.8491C74.2944 54.6087 73.8439 55.2996 73.2696 55.8802C72.6952 56.4609 72.009 56.9189 71.2525 57.2269C69.3051 58.0305 67.1231 58.055 65.1582 57.2954C63.2767 56.7795 61.5238 55.8762 60.0119 54.6437C59.4375 54.2451 59.0055 53.6739 58.7789 53.0129C58.5521 52.352 58.5425 51.6358 58.7514 50.9689C59.1572 49.675 59.7289 48.4391 60.4521 47.2918C61.2255 46.1244 62.1195 45.0413 63.1192 44.0606C63.9552 43.1967 64.9925 42.5534 66.1381 42.1879C66.4025 42.0984 66.7233 42.1672 66.6855 41.7523C66.6479 41.3399 66.3128 41.4308 66.0484 41.3953C65.1401 41.3977 64.2614 41.718 63.5647 42.3003C62.2261 43.0227 61.0679 44.0376 60.1762 45.2692C59.1076 46.6887 58.1883 48.2144 57.433 49.8222C56.8683 50.8328 56.7177 52.0226 57.0124 53.1418C57.3072 54.2611 58.0244 55.2226 59.0136 55.8245C60.3576 56.7908 61.8178 57.5846 63.3597 58.1874C64.7663 58.7672 66.2598 59.1083 67.7789 59.1963ZM91.3277 42.2951C90.8892 42.431 90.3973 42.3155 89.889 42.4187C88.6891 42.7936 87.5831 43.4203 86.6448 44.2566C86.2604 44.5154 85.9108 44.8223 85.6045 45.1698C84.6021 46.4675 84.0021 48.0301 83.8784 49.6646C83.4315 52.8299 85.1242 54.7082 87.4491 56.1543C88.4399 56.774 89.5445 57.1896 90.6983 57.3767C91.9226 57.6651 93.1914 57.7132 94.4342 57.5182C95.1111 57.3665 95.7667 57.1209 96.4326 56.9203C96.8207 56.8334 97.1927 56.6851 97.5342 56.4811C99.3224 55.2271 100.713 53.4869 101.542 51.4669C102.105 50.2257 102.201 48.8233 101.813 47.5169C101.637 46.9315 101.348 46.3861 100.962 45.9113C100.133 44.8252 99.1097 43.9018 97.9439 43.1885C96.5094 42.3513 94.856 41.9643 93.1986 42.078C92.5845 42.2172 91.9572 42.2899 91.3277 42.2951ZM116.038 57.2212C117.727 57.164 119.388 56.7765 120.927 56.0803C122.041 55.6187 123.002 54.8508 123.697 53.8661C124.393 52.8814 124.795 51.7199 124.858 50.516C124.896 50.1406 124.736 49.7108 124.867 49.3855C124.962 49.0423 124.979 48.682 124.916 48.3313C124.853 47.9807 124.711 47.6489 124.501 47.3606C124.058 46.5104 123.519 45.7136 122.894 44.9859C122.227 44.1813 121.367 43.5585 120.394 43.1752C119.422 42.7921 118.368 42.661 117.331 42.7944C116.977 42.8242 116.622 42.8041 116.274 42.7349C115.438 42.4479 114.536 42.4152 113.682 42.6406C112.092 43.137 110.642 44.0049 109.455 45.1724C108.574 46.2777 107.974 47.5798 107.706 48.9675C107.583 49.8765 107.585 50.7982 107.712 51.7067C107.76 52.7487 108.116 53.7527 108.736 54.5922C109.355 55.4316 110.21 56.0688 111.191 56.4228C112.726 57.052 114.383 57.3249 116.038 57.2212ZM111.853 85.332C114.031 85.3702 116.187 84.8898 118.142 83.9305C119.393 83.5243 120.504 82.7748 121.349 81.7675C122.194 80.7601 122.739 79.5357 122.921 78.2338C122.981 77.5801 122.91 76.9206 122.713 76.2944C122.516 75.6681 122.196 75.0873 121.772 74.5857C121.092 73.6972 120.231 72.9636 119.245 72.4337C117.993 71.6942 116.613 71.1963 115.177 70.9657C113.567 70.8702 111.952 70.9004 110.347 71.0558C110.046 71.0357 109.744 71.0657 109.452 71.1447C108.118 71.567 106.913 72.3234 105.953 73.3422C104.993 74.3609 104.31 75.6079 103.969 76.9648C103.604 78.0984 103.517 79.3029 103.715 80.477C103.929 81.4642 104.414 82.3723 105.114 83.0999C105.815 83.8277 106.705 84.346 107.684 84.5973C109.024 85.0697 110.432 85.318 111.853 85.332ZM64.9337 87.4643C65.844 87.4864 66.7445 87.2746 67.5495 86.8495C69.5013 86.0308 71.0738 84.5088 71.9548 82.5853C72.1839 82.1205 72.3181 81.6123 72.5149 81.1567C72.7492 80.6148 72.471 80.166 72.5729 79.6663C72.9153 78.4757 72.818 77.2018 72.2989 76.0769C71.7966 75.0987 71.1168 74.2223 70.2939 73.4926C69.4859 72.881 68.6191 72.3512 67.7061 71.911C66.7894 71.401 65.7418 71.8399 64.8851 71.2225C64.6521 71.0546 64.1604 71.2867 63.791 71.331C60.5261 71.7224 58.316 73.8258 56.196 76.0227C55.4678 76.8322 54.9427 77.8029 54.6638 78.8552C54.3944 79.7346 54.3312 80.6642 54.4792 81.5721C54.7435 82.5646 55.3379 83.4377 56.1646 84.0478C57.3299 85.1653 58.7042 86.0421 60.2088 86.6283C61.7136 87.2145 63.3192 87.4987 64.9337 87.4643Z" fill="white"/>
<path d="M71.3562 18.4831C67.7962 18.4596 64.3117 19.0382 60.7198 19.3078C60.9141 18.1701 61.2827 17.0691 61.8127 16.0436C62.6001 14.6733 63.6052 13.4401 64.789 12.3926C65.4763 11.6866 66.3725 11.2202 67.3454 11.0622C67.6419 11.0507 67.9353 11.1267 68.1889 11.2807C68.4425 11.4347 68.6451 11.6601 68.7715 11.9284C68.9711 12.3491 69.1228 12.8996 69.3232 13.2262C69.8106 14.0206 69.808 14.9455 70.2489 15.7059C70.6265 16.3571 70.36 17.114 70.7171 17.7806C70.8814 18.0875 70.9731 18.3324 71.3562 18.4831Z" fill="white"/>
<path d="M83.08 72.0798C83.26 71.0538 83.377 70.0176 83.4303 68.9773C83.4819 68.5371 83.736 68.1777 84.1992 68.1952C84.6488 68.2121 84.831 68.6962 84.8543 69.0177C84.951 69.4788 84.958 69.9545 84.8747 70.4181C84.7209 70.9147 85.1448 71.3756 85.0091 71.8868C84.9852 71.977 85.1053 72.1121 85.1972 72.0713C85.7993 71.8029 86.482 72.1497 87.0596 71.8464C88.2946 71.4194 89.6342 71.4006 90.8808 71.7927C91.8574 71.9863 92.7797 72.3917 93.5824 72.9805C93.851 73.145 94.0092 73.1622 94.1841 72.8621C95.0422 71.2246 95.9997 69.6413 97.0512 68.1208C97.5671 67.3011 98.1702 66.5394 98.85 65.8493C99.516 65.279 99.8083 64.3612 100.493 63.7783C101.193 63.0294 101.99 62.3773 102.863 61.8392C103.111 61.7342 103.389 61.7285 103.641 61.8234C103.892 61.9182 104.098 62.1063 104.214 62.3485C104.44 62.7102 104.071 63.0216 103.767 63.3355C102.506 64.6389 101.419 66.0938 100.263 67.4895C99.3605 68.5797 98.7245 69.8468 97.8403 70.9262C97.0868 71.8463 96.7267 72.9774 95.9921 73.8842C95.521 74.4659 95.9018 74.8883 96.2734 75.2245C96.8938 75.789 97.3802 76.4846 97.697 77.261C98.014 78.0373 98.1532 78.8745 98.1047 79.7114C98.0563 80.5485 97.8214 81.3643 97.4172 82.0989C97.0129 82.8335 96.4495 83.4684 95.7682 83.9577C93.6516 85.5828 91.146 86.6251 88.5006 86.981C87.1007 87.0901 85.6939 87.0782 84.2959 86.9453C82.8171 86.7962 81.3639 86.4547 79.9733 85.9299C79.2744 85.7222 78.877 85.0371 78.3519 84.5599C77.975 84.1603 77.6983 83.6771 77.5438 83.1503C77.3894 82.6233 77.3618 82.0675 77.4635 81.5279C77.5967 79.4501 78.3429 77.4584 79.6079 75.8041C80.4307 74.5538 81.5588 73.5338 82.8853 72.8398C83.1569 72.7249 83.2291 72.4335 83.08 72.0798ZM83.0754 74.0769C82.5322 74.4312 82.0408 74.8592 81.6156 75.3488C80.001 77.1727 79.1191 79.5294 79.1398 81.9645C79.1128 82.5358 79.2648 83.1011 79.5744 83.5822C79.884 84.063 80.336 84.4357 80.8674 84.648C81.929 85.1432 83.0606 85.4723 84.2223 85.6238C85.1943 85.7362 86.1729 85.7798 87.151 85.7539C88.7524 85.7343 90.3309 85.3691 91.7779 84.683C93.6775 83.7631 95.4378 82.8163 96.1929 80.6193C96.3775 79.8918 96.3662 79.1286 96.1603 78.4069C95.9543 77.6852 95.561 77.031 95.0203 76.5102C94.672 76.2695 94.4778 76.3455 94.3608 76.6717C93.7643 78.0003 92.9642 79.2278 91.989 80.3098C91.4631 81.0463 90.7137 81.5934 89.852 81.8706C89.1753 82.0922 88.4577 82.1618 87.7509 82.0738C87.0442 81.9859 86.3656 81.7427 85.764 81.362C85.0982 81.0122 84.5491 80.4758 84.1843 79.8183C83.3927 78.0107 83.0137 76.0493 83.0754 74.0769ZM86.6664 73.0261C86.0864 72.9803 85.5058 73.1042 84.9952 73.3825C84.8031 73.5271 85.0005 74.1215 84.9171 74.4878C84.6913 76.189 85.1428 77.911 86.1745 79.2828C86.413 79.7433 86.7916 80.1159 87.2559 80.3474C87.72 80.5788 88.2458 80.6569 88.7573 80.5706C89.6835 80.4398 90.2799 79.5744 90.6794 78.7059C90.9656 77.9396 91.4069 77.2406 91.9759 76.6525C92.5729 76.1356 92.4399 75.281 93.0813 74.8624C93.1858 74.7942 93.0952 74.6689 93.0125 74.6179C92.2577 74.046 91.4015 73.6222 90.489 73.369C89.2482 73.1548 87.9739 73.1341 86.6663 73.0261H86.6664Z" fill="#212222"/>
<path d="M67.7789 59.1965C66.2598 59.1085 64.7663 58.7674 63.3597 58.1876C61.8178 57.5848 60.3576 56.791 59.0136 55.8246C58.0244 55.2228 57.3072 54.2613 57.0124 53.142C56.7177 52.0227 56.8683 50.833 57.433 49.8224C58.1883 48.2146 59.1076 46.6889 60.1762 45.2696C61.0679 44.0378 62.2261 43.0231 63.5647 42.3005C64.2614 41.7182 65.1401 41.3979 66.0484 41.3955C66.3128 41.431 66.6479 41.3401 66.6855 41.7525C66.7233 42.1674 66.4025 42.0986 66.1381 42.1881C64.9924 42.5536 63.9552 43.1969 63.1192 44.0608C62.1195 45.0417 61.2255 46.1247 60.4521 47.292C59.7289 48.4393 59.1572 49.6752 58.7513 50.9691C58.5425 51.636 58.5521 52.3522 58.7789 53.0131C59.0055 53.6741 59.4376 54.2453 60.0119 54.6439C61.5238 55.8764 63.2767 56.7797 65.1582 57.2957C67.1231 58.0553 69.3051 58.0307 71.2525 57.2271C72.009 56.9191 72.6952 56.4611 73.2696 55.8805C73.8439 55.2999 74.2944 54.6089 74.5939 53.8493C75.0344 52.9495 75.3916 52.0112 75.6612 51.0464C75.7428 50.6053 75.4922 50.241 75.5934 49.8132C75.7105 49.3179 75.4444 48.799 75.652 48.2775C75.6665 48.1656 75.6586 48.0519 75.6287 47.943C75.5989 47.8342 75.5475 47.7325 75.4779 47.6438C74.4981 46.001 73.0591 44.6803 71.3381 43.8443C71.1707 43.7843 71.0284 43.6696 70.9344 43.5187C70.8406 43.3679 70.8002 43.1899 70.8203 43.0133C70.867 42.8568 70.9617 42.7188 71.0912 42.6192C71.2208 42.5197 71.3784 42.4633 71.5417 42.4585C72.6537 42.4373 73.7293 42.855 74.5355 43.6205C75.0749 44.0494 75.5701 44.5308 76.0136 45.0578C76.6191 45.5708 77.0782 46.2345 77.3444 46.9818C77.6108 47.7292 77.675 48.5335 77.5303 49.3135C77.4616 49.6534 77.6779 49.9084 77.6067 50.2556C77.2759 51.7835 76.7757 53.2696 76.1154 54.6868C75.606 55.7096 74.8859 56.6132 74.0024 57.3382C73.119 58.0632 72.0921 58.5934 70.9891 58.8939C69.9465 59.1904 68.8583 59.293 67.7789 59.1965Z" fill="#212222"/>
<path d="M91.3275 42.2953C91.9572 42.2899 92.5844 42.2172 93.1986 42.078C94.856 41.9643 96.5094 42.3513 97.944 43.1887C99.1099 43.902 100.133 44.825 100.962 45.9111C101.348 46.3859 101.637 46.9315 101.813 47.5171C102.201 48.8233 102.105 50.2257 101.542 51.4668C100.713 53.4869 99.3224 55.2273 97.5342 56.4813C97.1927 56.6853 96.8207 56.8334 96.4326 56.9202C95.7667 57.1209 95.1111 57.3663 94.4343 57.5181C93.1916 57.7131 91.9228 57.665 90.6983 57.3765C89.5446 57.1896 88.4399 56.774 87.449 56.1542C85.1242 54.7081 83.4315 52.83 83.8784 49.6648C84.0021 48.0301 84.6021 46.4675 85.6045 45.17C85.9108 44.8223 86.2604 44.5153 86.6448 44.2565C87.5831 43.4203 88.6891 42.7938 89.889 42.4187C90.3973 42.3157 90.889 42.4312 91.3275 42.2953ZM92.2903 56.2059C93.5099 56.339 94.7426 56.128 95.8486 55.597C96.9546 55.0659 97.8895 54.236 98.5478 53.2012C99.5015 52.1223 100.019 50.727 99.9991 49.2876C99.9559 48.992 100.25 48.7213 100.055 48.3624C99.5219 47.1837 98.7343 46.1377 97.7491 45.2988C96.9544 44.5853 96.0092 44.0598 94.9836 43.7615C94.142 43.5514 93.276 43.4561 92.409 43.4782C91.0878 43.4549 89.7932 43.8494 88.7098 44.6055C87.702 45.2315 86.8779 46.1128 86.3213 47.1603C85.7647 48.2077 85.4954 49.3836 85.5408 50.5687C85.6014 51.2802 85.806 51.9719 86.1422 52.6019C86.4782 53.2321 86.9386 53.7874 87.4958 54.2344C88.8242 55.4156 90.5147 56.1108 92.2903 56.2059Z" fill="#212222"/>
<path d="M116.038 57.2213C114.383 57.3249 112.726 57.0518 111.191 56.4228C110.21 56.0688 109.355 55.4317 108.736 54.5922C108.116 53.7529 107.76 52.7487 107.712 51.7067C107.585 50.7982 107.583 49.8764 107.706 48.9673C107.974 47.5798 108.574 46.2777 109.455 45.1724C110.642 44.0049 112.092 43.1369 113.682 42.6406C114.536 42.4151 115.438 42.4478 116.274 42.7349C116.621 42.8041 116.977 42.8244 117.331 42.7945C118.368 42.6612 119.421 42.7923 120.394 43.1754C121.367 43.5585 122.227 44.1813 122.894 44.9858C123.519 45.7136 124.058 46.5103 124.501 47.3606C124.711 47.6489 124.853 47.9808 124.916 48.3313C124.979 48.6819 124.962 49.0422 124.867 49.3855C124.736 49.7108 124.896 50.1405 124.858 50.516C124.795 51.7198 124.393 52.8814 123.697 53.8661C123.001 54.8508 122.041 55.6187 120.927 56.0803C119.387 56.7765 117.726 57.164 116.038 57.2213ZM115.78 55.8162C117.418 55.8293 119.03 55.4086 120.453 54.5968C121.12 54.2308 121.691 53.7127 122.119 53.0843C122.547 52.4561 122.82 51.7355 122.917 50.9815C122.96 49.9971 122.816 49.0136 122.493 48.0829C122.237 47.1728 121.734 46.3511 121.04 45.7087C120.347 45.0663 119.488 44.6282 118.561 44.443C117.888 44.3496 117.219 44.2263 116.544 44.1569C116.066 44.1078 115.785 43.6773 115.25 43.6663C113.857 43.7322 112.544 44.3353 111.588 45.3491C110.784 46.0772 110.17 46.9905 109.8 48.0097C109.43 49.0288 109.315 50.123 109.465 51.1968C109.522 52.0049 109.792 52.7834 110.248 53.453C110.704 54.1226 111.33 54.6595 112.062 55.0087C113.237 55.5154 114.5 55.7898 115.78 55.8162Z" fill="#212222"/>
<path d="M111.853 85.332C110.432 85.3178 109.024 85.0695 107.684 84.5972C106.705 84.3459 105.815 83.8276 105.114 83.0999C104.413 82.3722 103.929 81.464 103.715 80.4769C103.517 79.3028 103.604 78.0982 103.968 76.9648C104.31 75.6077 104.993 74.3607 105.953 73.342C106.913 72.3232 108.117 71.5668 109.452 71.1446C109.744 71.0657 110.046 71.0356 110.347 71.0557C111.952 70.9002 113.567 70.8701 115.177 70.9656C116.613 71.1962 117.993 71.6942 119.245 72.4336C120.231 72.9635 121.092 73.697 121.772 74.5855C122.196 75.0871 122.516 75.668 122.713 76.2942C122.91 76.9206 122.981 77.5796 122.921 78.2336C122.739 79.5354 122.194 80.76 121.349 81.7674C120.504 82.7748 119.393 83.5242 118.142 83.9303C116.187 84.8896 114.031 85.37 111.853 85.332ZM112.63 83.9551C113.781 84.0867 114.947 83.8881 115.989 83.3826C118.14 82.3786 120.376 81.5121 121.037 78.867C121.221 78.3961 121.287 77.8877 121.231 77.3855C121.174 76.8835 120.996 76.4028 120.711 75.9848C119.526 74.4091 117.839 73.2833 115.928 72.7918C114.662 72.4554 113.341 72.3721 112.042 72.5465C111.234 72.663 110.36 73.1271 109.661 72.255C109.644 72.2343 109.518 72.2719 109.468 72.3126C108.962 72.7173 108.318 72.8775 107.828 73.3318C107.042 74.0266 106.403 74.8704 105.947 75.8141C105.49 76.7579 105.226 77.7828 105.169 78.8294C105.037 79.6485 105.179 80.488 105.572 81.2186C105.965 81.9493 106.587 82.5306 107.343 82.873C108.999 83.6342 110.808 84.0046 112.63 83.9554V83.9551Z" fill="#212222"/>
<path d="M64.9337 87.4643C63.319 87.4986 61.7134 87.2145 60.2088 86.6283C58.7041 86.0421 57.3297 85.1653 56.1645 84.0478C55.3377 83.4377 54.7434 82.5646 54.4791 81.5719C54.331 80.6642 54.3943 79.7346 54.6637 78.8551C54.9426 77.8029 55.4676 76.832 56.1959 76.0225C58.3158 73.8256 60.5261 71.7222 63.7911 71.3309C64.1603 71.2866 64.652 71.0543 64.885 71.2223C65.7418 71.8396 66.7893 71.4007 67.7059 71.9107C68.6189 72.3509 69.4858 72.8808 70.2938 73.4924C71.1166 74.2222 71.7966 75.0984 72.2988 76.0766C72.8179 77.2015 72.9152 78.4754 72.5728 79.6661C72.4709 80.1657 72.749 80.6148 72.5148 81.1567C72.318 81.6123 72.1838 82.1205 71.9547 82.5853C71.0737 84.5088 69.5011 86.0308 67.5493 86.8495C66.7445 87.2746 65.8438 87.4864 64.9337 87.4643ZM70.6907 77.9949C70.6431 77.6694 70.8621 77.3079 70.5876 77.0171C70.4458 76.8823 70.333 76.72 70.256 76.5401C70.179 76.3601 70.1395 76.1665 70.1397 75.9709C70.1221 75.8351 70.0743 75.705 69.9998 75.5904C69.9253 75.4756 69.826 75.3791 69.7092 75.3078C68.5568 74.4044 67.2802 73.6717 65.9185 73.1327C65.5247 72.9994 64.8663 73.0619 64.7299 72.5115C64.6099 72.0264 64.3555 72.0999 64.0314 72.1546C62.8109 72.4141 61.6595 72.93 60.6535 73.6678C59.5013 74.3195 58.4937 75.1982 57.6916 76.2507C56.8897 77.3032 56.3098 78.5075 55.9875 79.7908C55.8196 80.4855 55.8734 81.2153 56.1409 81.8781C56.4085 82.5408 56.8766 83.1036 57.4798 83.4876C58.3701 84.0734 59.2904 84.612 60.2372 85.1012C61.6694 85.8189 63.247 86.1996 64.849 86.2144C65.6947 86.1771 66.5213 85.9524 67.2694 85.5567C68.0174 85.1609 68.668 84.604 69.1743 83.926C69.5717 83.5762 69.8934 83.1486 70.1192 82.6698C70.69 81.1818 70.8863 79.5764 70.6907 77.9949Z" fill="#212222"/>
<path d="M83.0754 74.0769C83.0137 76.0491 83.3925 78.0106 84.1843 79.8183C84.5491 80.4757 85.098 81.0122 85.764 81.3618C86.3656 81.7427 87.0442 81.9856 87.7509 82.0736C88.4577 82.1614 89.1751 82.0922 89.8519 81.8704C90.7137 81.5933 91.4631 81.0461 91.9889 80.3098C92.964 79.2278 93.7643 78.0003 94.3608 76.6718C94.4778 76.3455 94.672 76.2697 95.0203 76.5103C95.561 77.0311 95.9543 77.6853 96.1603 78.407C96.3662 79.1287 96.3775 79.892 96.1929 80.6193C95.4377 82.8164 93.6775 83.7631 91.7781 84.683C90.3309 85.3689 88.7524 85.7344 87.151 85.754C86.1729 85.7799 85.1941 85.7361 84.2223 85.6236C83.0605 85.4721 81.929 85.1432 80.8674 84.6478C80.336 84.4356 79.884 84.0631 79.5744 83.5823C79.2649 83.1012 79.1128 82.5359 79.1398 81.9646C79.1191 79.5295 80.001 77.1728 81.6156 75.3487C82.0408 74.8593 82.5322 74.4311 83.0754 74.0769Z" fill="white"/>
<path d="M86.6663 73.026C87.9739 73.1338 89.2481 73.1547 90.4888 73.369C91.4015 73.6223 92.2577 74.0461 93.0124 74.618C93.0952 74.669 93.1858 74.7943 93.0813 74.8624C92.4397 75.2811 92.5729 76.1358 91.9759 76.6529C91.4069 77.2408 90.9654 77.9396 90.6792 78.7059C90.2799 79.5743 89.6835 80.4399 88.7573 80.5706C88.2458 80.6569 87.72 80.5789 87.2558 80.3475C86.7916 80.1159 86.413 79.7433 86.1743 79.2828C85.1426 77.911 84.6912 76.1891 84.9169 74.4878C85.0004 74.1216 84.803 73.5272 84.995 73.3825C85.5058 73.1041 86.0864 72.9802 86.6663 73.026Z" fill="white"/>
<path d="M92.2903 56.2057C90.5148 56.1106 88.8242 55.4155 87.4958 54.2341C86.9388 53.7872 86.4782 53.2319 86.1422 52.6019C85.8061 51.9717 85.6016 51.28 85.5408 50.5686C85.4954 49.3836 85.7647 48.2075 86.3213 47.1601C86.8779 46.1128 87.7021 45.2313 88.7099 44.6053C89.7932 43.8492 91.0879 43.4547 92.409 43.478C93.276 43.4559 94.1422 43.5513 94.9836 43.7612C96.0093 44.0596 96.9544 44.5849 97.7491 45.2984C98.7344 46.1373 99.5219 47.1835 100.055 48.3622C100.25 48.7213 99.9559 48.9918 99.9991 49.2874C100.019 50.7268 99.5017 52.1221 98.548 53.201C97.8897 54.2358 96.9546 55.0657 95.8486 55.5968C94.7426 56.1279 93.5101 56.3388 92.2903 56.2057Z" fill="white"/>
<path d="M115.78 55.8162C114.5 55.7897 113.237 55.5154 112.062 55.0086C111.33 54.6594 110.704 54.1229 110.248 53.4532C109.792 52.7835 109.522 52.0048 109.465 51.1968C109.315 50.1231 109.43 49.0289 109.8 48.0098C110.17 46.9906 110.784 46.0773 111.588 45.3492C112.544 44.3356 113.857 43.7322 115.25 43.6663C115.785 43.6772 116.066 44.1077 116.544 44.1569C117.219 44.2263 117.888 44.3496 118.561 44.4429C119.488 44.6282 120.347 45.0662 121.04 45.7086C121.734 46.351 122.237 47.1727 122.493 48.0828C122.816 49.0135 122.96 49.9972 122.917 50.9815C122.821 51.7354 122.547 52.456 122.119 53.0842C121.691 53.7126 121.12 54.2309 120.453 54.5969C119.031 55.4087 117.418 55.8293 115.78 55.8162Z" fill="white"/>
<path d="M112.63 83.9556C110.808 84.0049 108.999 83.6346 107.343 82.8734C106.587 82.5311 105.965 81.9498 105.572 81.2191C105.179 80.4884 105.037 79.6486 105.169 78.8297C105.226 77.783 105.49 76.7581 105.947 75.8144C106.403 74.8707 107.042 74.0269 107.828 73.332C108.318 72.8778 108.962 72.7176 109.468 72.3129C109.518 72.2722 109.645 72.2346 109.661 72.2552C110.36 73.1274 111.234 72.6631 112.042 72.5467C113.341 72.3722 114.662 72.4555 115.928 72.7921C117.839 73.2836 119.526 74.4094 120.712 75.9849C120.996 76.4029 121.174 76.884 121.231 77.386C121.287 77.8882 121.221 78.3964 121.037 78.8671C120.376 81.5123 118.14 82.3789 115.989 83.3829C114.947 83.8883 113.781 84.087 112.63 83.9556Z" fill="white"/>
<path d="M70.6907 77.9949C70.8862 79.5765 70.69 81.1818 70.1192 82.6699C69.8933 83.1487 69.5717 83.5763 69.1741 83.9262C68.6679 84.6041 68.0172 85.1612 67.2694 85.557C66.5213 85.9528 65.6946 86.1773 64.849 86.2146C63.247 86.1998 61.6694 85.819 60.2372 85.1012C59.2903 84.612 58.3699 84.0734 57.4797 83.4877C56.8766 83.1038 56.4083 82.5412 56.1409 81.8782C55.8732 81.2155 55.8196 80.4855 55.9875 79.7908C56.3098 78.5076 56.8895 77.3033 57.6916 76.2507C58.4937 75.1983 59.5013 74.3195 60.6534 73.668C61.6595 72.93 62.8109 72.4143 64.0314 72.1546C64.3554 72.0999 64.6099 72.0264 64.7299 72.5115C64.8662 73.0621 65.5247 72.9996 65.9185 73.1328C67.28 73.6719 68.5568 74.4044 69.709 75.308C69.8259 75.3793 69.9253 75.4758 69.9998 75.5905C70.0743 75.7053 70.1221 75.8353 70.1396 75.9709C70.1393 76.1666 70.1789 76.3602 70.2559 76.5401C70.3329 76.72 70.4457 76.8825 70.5875 77.0175C70.8621 77.3082 70.6432 77.6694 70.6907 77.9949Z" fill="white"/>
</svg>
