<svg width="207" height="155" viewBox="0 0 207 155" fill="none" xmlns="http://www.w3.org/2000/svg">
<path d="M12.1532 11.209C12.2828 11.1964 12.4133 11.1978 12.5426 11.213C12.6968 11.2466 12.8579 11.2257 12.9985 11.1536C13.1391 11.0815 13.2506 10.9628 13.3141 10.8175C13.9435 9.91287 14.7715 9.16575 15.7339 8.63384C15.9758 8.42492 16.2404 8.24434 16.5229 8.09559C17.2617 7.89757 17.9848 7.64436 18.6862 7.33802C18.9792 7.21058 19.2925 7.13666 19.6114 7.11978C19.9071 7.09932 20.1971 7.02766 20.4687 6.90798C20.7739 6.78745 21.1006 6.73163 21.4284 6.74399C21.8601 6.73225 22.2876 6.65447 22.696 6.5133C22.9288 6.43148 23.1754 6.39745 23.4215 6.41317C23.8047 6.42401 24.1868 6.36848 24.5511 6.24904C24.8678 6.11636 25.2588 6.36874 25.5972 6.07904C25.7125 5.98029 25.9823 6.06339 26.1814 6.06339C27.7459 6.06339 29.3105 6.06928 30.875 6.05824C31.1789 6.11314 31.4916 6.09046 31.7844 5.9923C31.9997 5.87704 32.2581 6.20397 32.4692 5.90169C32.5161 5.83449 32.7517 5.85517 32.8799 5.89766C33.8704 6.0778 34.879 6.13469 35.8833 6.06701C36.1313 6.03516 36.3833 6.06463 36.6176 6.15286C36.7468 6.22528 37.0228 6.10615 37.1834 6.03998C37.4941 5.91206 37.717 6.51118 38.0028 6.09372C38.2607 6.30707 38.5676 6.22628 38.8584 6.23315C39.1711 6.24054 39.4842 6.23485 39.7971 6.23485H41.5892C41.9022 6.23485 42.2151 6.23208 42.528 6.23615C42.6646 6.22442 42.8015 6.25533 42.9201 6.32465C43.0214 6.39802 43.1441 6.43515 43.2687 6.43012C43.3932 6.42507 43.5127 6.37816 43.6076 6.29687C43.6465 6.26482 43.7275 6.2233 43.7486 6.23947C44.36 6.70778 44.9658 6.09262 45.5738 6.23392C45.8863 6.30657 46.1149 6.00664 46.4434 6.04822C46.5771 6.09277 46.7194 6.10474 46.8586 6.08314C46.9977 6.06155 47.1299 6.007 47.244 5.92399C47.3396 5.83716 47.5684 5.89337 47.7365 5.89282C48.3907 5.89067 49.0453 5.9047 49.6992 5.88728C50.1106 5.95852 50.534 5.90284 50.9134 5.72759C51.1943 5.54059 51.4549 5.99471 51.7486 5.82557C51.8569 5.73732 51.9932 5.6913 52.1325 5.69597C52.2718 5.70062 52.4048 5.75563 52.5069 5.8509C52.5274 5.86837 52.5516 5.88078 52.5778 5.88721C52.6039 5.89365 52.6311 5.89389 52.6573 5.88795C53.3513 5.52084 54.0921 5.77552 54.8082 5.73116C55.5733 5.68374 56.3438 5.72048 57.1118 5.72048C57.8514 5.72048 58.5913 5.73169 59.3307 5.71583C59.7092 5.7077 60.1122 5.82517 60.4553 5.54956C60.6616 5.3838 60.8162 5.82112 61.1032 5.57452C61.2675 5.43335 61.6505 5.54207 61.9348 5.55106C62.1771 5.55873 62.4463 5.47208 62.6322 5.72048L64.3338 5.70796C64.4676 5.45198 64.591 5.72415 64.7086 5.71113C65.0299 5.67551 65.377 5.8525 65.6785 5.57514C65.7365 5.53489 65.8063 5.51519 65.8767 5.51915C65.9471 5.52309 66.0141 5.55046 66.0674 5.59694C66.2169 5.74507 66.3433 5.78485 66.4828 5.60502C66.5493 5.51917 66.6379 5.54454 66.7162 5.55156C66.9833 5.5756 67.2059 5.75489 67.5 5.73279C67.7771 5.71197 67.9788 5.47539 68.2839 5.53866C68.5343 5.59867 68.7955 5.59644 69.0448 5.5322C69.2562 5.46581 69.3572 5.81036 69.6168 5.58682C69.7657 5.45858 70.1065 5.5655 70.3593 5.54708C72.1342 5.41785 73.8923 5.75788 75.6653 5.72725C77.4571 5.69633 79.2496 5.72037 81.0419 5.72037C81.1272 5.72037 81.2379 5.6855 81.2934 5.72639C81.5409 5.90854 81.7753 5.74232 82.0094 5.74717C82.61 5.75964 83.2428 5.5232 83.8189 5.88851C83.8595 5.91426 83.9375 5.87477 83.9863 5.89477C84.2391 5.99819 84.4382 5.64361 84.5867 5.74023C84.8073 5.84889 85.0503 5.90308 85.2958 5.89835C85.5385 5.9352 85.7084 5.79417 85.9118 5.73007C86.0803 5.70224 86.2517 5.69897 86.421 5.72036C87.5019 5.72036 88.5833 5.7021 89.6637 5.73033C90.0376 5.74013 90.4198 5.61294 90.8043 5.86707C90.9736 5.97898 91.2788 5.69709 91.5711 5.71006C92.2809 5.74173 92.993 5.72036 93.7042 5.72036C94.8706 5.72036 96.037 5.72859 97.2031 5.71349C97.4401 5.71042 97.712 5.83606 97.9211 5.58924C97.9538 5.56951 97.9907 5.55828 98.0287 5.55661C98.0668 5.55492 98.1045 5.56284 98.1387 5.57963C98.2873 5.78529 98.5036 5.67563 98.6813 5.72709C98.9457 5.80364 99.1646 5.53372 99.4215 5.65634C99.6904 5.73305 99.9717 5.7537 100.249 5.71705C100.532 5.73226 100.818 5.72048 101.102 5.72048C101.386 5.72048 101.671 5.71361 101.955 5.72206C102.425 5.73615 102.847 5.46926 103.337 5.53604C103.784 5.59698 104.247 5.52606 104.701 5.55711C104.996 5.57738 105.324 5.40922 105.587 5.67596C105.851 5.54798 106.148 5.5041 106.437 5.55022C106.75 5.54471 107.063 5.54896 107.376 5.54896H108.315C108.628 5.54896 108.942 5.56644 109.253 5.54462C109.659 5.51621 110.089 5.66762 110.467 5.38321C110.505 5.36263 110.547 5.35187 110.59 5.3519C110.633 5.35192 110.676 5.36274 110.714 5.38337C111.059 5.68825 111.467 5.53618 111.843 5.54133C113.237 5.56052 114.631 5.56109 116.025 5.54305C116.464 5.62681 116.918 5.5724 117.326 5.38728C117.461 5.33721 117.609 5.33529 117.745 5.38182C118.253 5.55582 118.805 5.55268 119.31 5.37293C119.657 5.33627 120.008 5.36076 120.346 5.4453C121.241 5.58688 122.154 5.56555 123.041 5.38234C123.122 5.36399 123.215 5.39463 123.295 5.37455C123.639 5.28858 123.959 5.69957 124.232 5.51989C124.5 5.36534 124.816 5.31992 125.116 5.39305C125.493 5.46407 125.881 5.46214 126.259 5.38733C126.337 5.35487 126.424 5.34572 126.507 5.36096C126.591 5.37621 126.668 5.41521 126.731 5.47336C126.807 5.53827 126.901 5.5787 127 5.58942C127.099 5.60013 127.2 5.58063 127.288 5.53346C127.505 5.4193 127.747 5.36024 127.992 5.36143C128.237 5.36263 128.478 5.42405 128.694 5.54032C128.759 5.57082 128.83 5.58652 128.902 5.58628C128.974 5.58606 129.045 5.5699 129.11 5.53899C129.488 5.35897 129.914 5.30413 130.326 5.38235C131.805 5.3698 133.285 5.35576 134.763 5.38464C135.828 5.40545 136.866 5.13069 137.937 5.19224C139.014 5.25419 140.098 5.20588 141.179 5.20588C141.45 5.42932 141.609 4.81889 141.93 5.12345C142.141 5.32375 142.471 5.20455 142.744 5.19728C143.008 5.19027 143.301 5.31844 143.539 5.04578C143.601 4.97482 143.83 4.99096 143.951 5.04161C144.573 5.23783 145.238 5.24836 145.866 5.07194C146.358 5.08431 146.85 5.07175 147.34 5.03431C147.635 5.34496 147.929 5.02678 148.223 5.02959C149.416 4.97138 150.611 4.98536 151.803 5.07148C152.745 5.16406 153.692 5.207 154.639 5.20016C155.577 5.22611 156.516 5.19603 157.455 5.21125C157.784 5.15182 158.124 5.20362 158.421 5.35859C158.569 5.46235 158.866 5.40061 159.081 5.35035C159.57 5.20636 160.09 5.20059 160.582 5.33365C161.063 5.43247 161.548 5.50396 162.036 5.54777C162.349 5.55382 162.722 5.44167 162.961 5.57512C163.285 5.75594 163.516 5.54078 163.771 5.52191C164.234 5.56801 164.696 5.638 165.153 5.73159C165.585 5.73997 166.03 5.59916 166.458 5.87513C166.619 5.97907 166.904 5.87908 167.13 5.89484C167.543 5.84846 167.961 5.89864 168.351 6.04148C168.469 6.08635 168.595 6.10345 168.72 6.09148C168.845 6.07951 168.965 6.03878 169.072 5.97246C169.221 5.89835 169.385 5.85839 169.552 5.85547C169.718 5.85252 169.883 5.88669 170.035 5.95549C170.177 6.03692 170.338 6.0781 170.5 6.07465C170.664 6.07121 170.823 6.02326 170.961 5.93593C171.223 5.74896 171.31 6.15153 171.56 6.0791C171.651 6.03814 171.752 6.0225 171.849 6.03387C171.949 6.04525 172.043 6.08318 172.122 6.1437C172.175 6.19402 172.292 6.2523 172.334 6.22784C172.521 6.11783 172.734 6.05838 172.951 6.05524C173.169 6.05213 173.383 6.10545 173.573 6.21004C173.969 6.38319 174.463 6.08611 174.881 6.34954C175.179 6.24076 175.496 6.20131 175.811 6.23415C176.435 6.22939 177.057 6.33433 177.645 6.54422C177.838 6.57465 178.034 6.58672 178.229 6.58028C178.747 6.64039 179.29 6.41979 179.785 6.74129C179.855 6.78617 179.999 6.73254 180.102 6.70268C180.625 6.53509 181.187 6.53209 181.709 6.69408C181.761 6.7091 181.812 6.75335 181.857 6.74611C182.616 6.62478 183.334 6.99348 184.091 6.92688C184.799 6.86271 185.508 7.01671 186.125 7.36833C186.245 7.43967 186.387 7.46084 186.523 7.42727C186.903 7.32991 187.2 7.66302 187.563 7.60705C188.053 7.99013 188.692 8.04319 189.211 8.37883C189.559 8.60377 189.993 8.69085 190.366 8.88129C190.956 9.18135 191.526 9.51677 192.107 9.83559C192.13 9.8478 192.174 9.83244 192.186 9.84744C192.858 10.7735 194.133 11.0436 194.654 12.1343C195.504 12.4905 195.678 13.4548 196.318 14.0014C196.53 14.3726 196.664 14.7847 196.708 15.2107C196.802 15.8237 196.936 16.4306 197.037 17.0426C197.053 17.125 197.099 17.1982 197.167 17.2466C197.299 17.3703 197.385 17.5366 197.409 17.7171C197.433 17.8975 197.394 18.0805 197.296 18.2347C197.238 18.3421 197.209 18.463 197.21 18.5855C197.212 18.7081 197.245 18.828 197.306 18.9337C197.454 19.1678 197.303 19.4511 197.401 19.6658C197.491 19.8672 197.694 20.0904 197.642 20.2698C197.565 20.5319 197.812 20.68 197.748 20.9375C197.697 21.1461 197.947 21.3617 197.906 21.6342C197.867 21.8854 197.915 22.1489 197.892 22.4042C197.873 22.6163 198.182 22.8244 197.897 23.0343C197.964 23.1096 198 23.2064 198.002 23.3068C198.002 23.4074 197.968 23.5048 197.903 23.5815C197.791 23.7766 198.185 23.9979 197.897 24.2078C197.992 24.4309 198.057 24.6656 198.089 24.9057C198.151 25.086 198.149 25.2816 198.086 25.4613C198.038 25.5629 198.225 25.7224 198.086 25.923C198.04 26.0119 198.014 26.1107 198.014 26.2111C198.014 26.3115 198.038 26.4106 198.083 26.4998C198.328 26.8422 198.206 27.2031 198.237 27.5546C198.213 28.1948 198.261 28.8356 198.379 29.4653C198.46 29.6618 198.49 29.8759 198.468 30.0875C198.444 30.2992 198.369 30.5015 198.245 30.6755C198.232 30.7001 198.225 30.728 198.223 30.7566C198.223 30.785 198.23 30.8133 198.242 30.8386C198.579 31.1772 198.352 31.5958 198.401 31.9728C198.439 32.2536 198.305 32.6111 198.434 32.8134C198.626 33.1133 198.29 33.3234 198.415 33.5414C198.778 34.1721 198.362 34.9258 198.747 35.5483C198.761 35.574 198.768 35.6026 198.768 35.6315C198.768 35.6605 198.761 35.6889 198.747 35.7145C198.29 36.2364 199.107 36.8707 198.598 37.3835C198.905 37.6965 198.711 38.084 198.744 38.4355C198.807 38.7264 198.763 39.0307 198.619 39.2909C198.847 39.5367 198.708 39.7766 198.674 40.0519C198.607 40.3039 198.573 40.5636 198.573 40.8245C198.609 41.1058 198.559 41.3973 198.588 41.6803C198.607 41.8765 198.345 41.9438 198.415 42.1222C198.473 42.27 198.669 42.4004 198.573 42.5635C198.345 42.9546 198.502 43.3968 198.386 43.7756C198.276 44.0666 198.276 44.3873 198.386 44.6785C198.484 44.963 198.261 45.3049 198.182 45.6097C198.131 45.8181 198.093 46.0296 198.067 46.2428C198.088 46.5206 198.062 46.7996 197.99 47.0688C197.903 47.2631 198.045 47.5154 198.093 47.7244C198.156 48.0038 197.682 48.1674 198.012 48.474C198.292 48.7338 197.87 48.961 197.892 49.2323C197.915 49.5162 197.897 49.8035 197.897 50.0894C197.93 50.3734 197.925 50.6603 197.885 50.9433C197.815 51.5047 197.706 52.0603 197.558 52.6061C197.416 52.9345 197.354 53.2924 197.378 53.6496C197.394 53.8891 197.452 54.1399 197.229 54.364C197.19 54.4404 197.169 54.525 197.167 54.6109C197.167 54.697 197.186 54.7819 197.226 54.8589C197.317 55.1069 197.351 55.373 197.323 55.6362C197.298 55.8995 197.21 56.153 197.07 56.3772C197.31 56.9724 196.84 57.5852 197.109 58.1682C197.168 58.2911 197.142 58.3156 197.101 58.4205C196.993 58.7735 196.981 59.1492 197.063 59.5088C197.114 59.8198 196.777 60.1033 197.044 60.3988C197.099 61.6149 197.063 62.8333 196.936 64.0439C196.897 64.2361 197.085 64.2783 197.056 64.4605C197.039 64.9567 196.989 65.4511 196.91 65.9413C196.758 66.3627 196.736 66.8208 196.847 67.2551C196.905 67.6115 196.895 67.9759 196.818 68.3284C196.809 68.6646 196.83 69.0008 196.878 69.3335C196.898 69.6005 196.765 69.8941 197.029 70.134C197.084 70.1834 197.058 70.3842 196.996 70.5294C196.874 70.9093 196.832 71.3108 196.871 71.7081C196.886 71.7928 196.886 71.8796 196.871 71.9644C196.737 72.4907 196.515 73.013 196.852 73.5483C196.864 73.5678 196.72 73.6592 196.71 73.7259C196.665 74.0529 196.321 74.3686 196.66 74.7141C196.585 74.795 196.544 74.9018 196.544 75.0125C196.544 75.1235 196.587 75.2299 196.664 75.3101C196.372 75.694 196.604 76.1342 196.532 76.5417C196.485 76.8061 196.631 77.0894 196.379 77.3453C196.331 77.4317 196.311 77.5306 196.319 77.6289C196.328 77.7275 196.366 77.821 196.427 77.8978C196.54 78.0195 196.438 78.0564 196.412 78.1491C196.294 78.4246 196.268 78.732 196.342 79.0233C196.402 79.138 196.42 79.2704 196.395 79.3975C196.369 79.5248 196.3 79.6389 196.199 79.7208C196.424 79.879 196.357 80.116 196.36 80.3318C196.364 80.5891 196.36 80.8464 196.36 81.1035C196.378 81.3315 196.376 81.5606 196.354 81.7881C196.256 82.0702 196.198 82.3645 196.179 82.6627C196.237 82.9649 196.189 83.2783 196.043 83.5493C195.953 83.697 196.244 83.9626 196.198 84.2361C196.196 84.5165 196.179 84.7965 196.144 85.0748C196.057 85.3707 196.266 85.607 196.203 85.8961C196.156 86.1787 196.155 86.4669 196.196 86.7503C196.23 87.1192 195.985 87.4167 195.989 87.7947C195.99 88.0319 196.268 88.228 196.038 88.5244C195.869 88.7419 196.081 89.0504 196.196 89.2937C196.311 89.5412 195.987 89.7157 196.122 89.9544C196.21 90.1922 196.23 90.4488 196.184 90.6979C196.187 90.9384 196.283 91.2131 196.023 91.3969C196.299 91.59 195.822 91.9566 196.191 92.1285V93.3291C196.191 93.672 196.186 94.015 196.191 94.3579C196.146 94.6486 196.189 94.9464 196.316 95.2116C196.073 95.5108 196.21 95.8626 196.199 96.1885C196.151 96.4955 196.122 96.8054 196.112 97.1161C196.144 97.4429 196.276 97.7448 196.054 98.0474C196.33 98.6581 195.91 99.2433 195.999 99.8659C196.066 100.52 196.067 101.18 196.006 101.834C195.995 102.018 196.24 102.117 196.126 102.248C195.966 102.43 196.021 102.622 196.026 102.808C196.031 102.993 195.863 103.137 195.869 103.25C195.889 103.631 195.696 104.042 195.983 104.397C196.014 104.434 196.031 104.537 196.016 104.547C195.716 104.736 196.119 104.964 196.009 105.087C195.713 105.418 195.862 105.793 195.863 106.14C195.863 106.487 195.704 106.865 196.011 107.192C196.117 107.306 195.887 107.419 195.855 107.543C195.8 107.75 195.949 108.003 195.711 108.169C195.947 108.548 195.764 108.983 195.869 109.366C195.925 109.577 196.105 109.701 195.867 109.933C195.819 110.019 195.797 110.118 195.805 110.216C195.814 110.315 195.851 110.409 195.913 110.485C196.112 110.689 195.918 110.955 196.031 111.122C196.206 111.379 195.74 111.505 195.97 111.788C196.042 111.894 196.071 112.022 196.052 112.148C196.033 112.275 195.968 112.389 195.869 112.469C196.055 113.082 196.103 113.729 196.006 114.362C196.018 114.706 196.191 115.105 195.848 115.406C196.131 115.852 195.896 116.396 196.105 116.842C196.184 116.987 196.211 117.156 196.18 117.319C196.09 117.696 196.091 118.09 196.186 118.467C196.278 118.865 196.028 119.314 196.352 119.684C196.043 119.929 196.23 120.109 196.434 120.279C196.537 120.364 196.52 120.471 196.535 120.582C196.599 121.075 196.372 121.596 196.671 122.069C196.683 122.088 196.641 122.168 196.609 122.185C196.18 122.405 196.667 122.71 196.535 122.955L196.609 123.561C196.473 123.673 196.578 123.836 196.527 123.956C196.426 124.193 196.917 124.328 196.599 124.624C196.414 124.796 196.545 125.11 196.535 125.36C196.525 125.6 196.475 125.859 196.688 126.054C196.374 126.281 196.581 126.523 196.667 126.761C196.266 126.907 196.845 127.21 196.552 127.446C196.427 127.548 196.532 127.935 196.532 128.192C196.532 128.478 196.511 128.766 196.537 129.049C196.566 129.371 196.443 129.701 196.684 130.022C196.732 130.124 196.756 130.237 196.753 130.35C196.749 130.464 196.72 130.575 196.667 130.675C196.542 130.88 196.484 130.986 196.672 131.167C196.758 131.248 196.672 131.356 196.612 131.458C196.537 131.575 196.496 131.712 196.492 131.851C196.489 131.991 196.525 132.129 196.595 132.249C196.76 132.487 196.304 132.756 196.684 132.918C196.388 133.082 196.958 133.423 196.549 133.588C196.475 133.617 196.621 133.787 196.626 133.868C196.648 134.184 197.051 134.466 196.71 134.822C196.688 134.873 196.677 134.929 196.681 134.985C196.683 135.042 196.7 135.096 196.729 135.144C196.837 135.288 196.897 135.463 196.898 135.644C196.898 135.824 196.842 136 196.734 136.145C196.695 136.235 196.676 136.332 196.677 136.43C196.677 136.528 196.7 136.625 196.741 136.714C196.744 136.953 196.712 137.19 196.64 137.418C196.544 137.476 196.472 137.137 196.366 137.391C196.326 137.489 196.381 137.629 196.335 137.721C196.119 138.326 195.786 138.883 195.358 139.36C195.099 139.585 195.291 139.915 195.019 140.095C194.822 140.259 194.638 140.438 194.467 140.629C194.374 140.731 194.268 140.818 194.148 140.887C193.992 140.942 193.852 141.03 193.733 141.146C193.615 141.262 193.524 141.403 193.468 141.558C193.442 141.636 193.401 141.706 193.345 141.766C193.288 141.825 193.219 141.87 193.144 141.899C192.911 141.995 192.712 142.161 192.575 142.375C191.753 143.278 190.706 143.945 189.542 144.306C189.491 144.318 189.441 144.337 189.395 144.361C189.03 144.674 188.589 144.884 188.116 144.972C187.635 145.003 187.302 145.383 186.833 145.405C186.756 145.409 186.643 145.556 186.54 145.501C186.014 145.22 185.501 145.592 184.97 145.522C184.432 145.482 183.891 145.476 183.351 145.507C182.782 145.507 182.213 145.494 181.644 145.512C181.406 145.52 181.132 145.397 180.933 145.65C180.911 145.667 180.885 145.678 180.859 145.682C180.832 145.686 180.805 145.684 180.779 145.674C180.171 145.334 179.513 145.59 178.884 145.504C178.673 145.475 178.502 145.74 178.244 145.521C178.073 145.375 177.785 145.673 177.6 145.583C177.389 145.514 177.168 145.49 176.947 145.511C176.692 145.49 176.435 145.49 176.18 145.512C175.921 145.535 175.763 145.282 175.48 145.317C175.254 145.345 175.121 145.571 174.869 145.516C174.728 145.485 174.586 145.222 174.401 145.497C174.355 145.563 174.115 145.546 173.991 145.498C173.801 145.398 173.59 145.339 173.376 145.327C172.411 145.264 171.443 145.279 170.481 145.373C169.511 145.487 168.533 145.526 167.557 145.491C167.21 145.503 166.863 145.346 166.502 145.501C166.205 145.63 165.925 145.067 165.601 145.455C165.306 145.348 165.033 145.566 164.739 145.51C164.47 145.458 164.196 145.559 163.917 145.43C163.72 145.338 163.499 145.572 163.258 145.51C162.901 145.371 162.517 145.311 162.135 145.334C161.844 145.383 161.515 145.211 161.26 145.501C161.223 145.543 161.09 145.487 161.012 145.51C160.689 145.605 160.457 145.318 160.143 145.32C159.853 145.322 159.549 145.44 159.254 145.205C158.974 144.982 158.722 145.386 158.405 145.351C158.135 145.321 157.887 144.926 157.584 145.275C157.471 145.404 157.303 145.354 157.187 145.32C157.079 145.289 157.028 145.112 156.874 145.29C156.821 145.337 156.754 145.364 156.684 145.367C156.613 145.37 156.544 145.348 156.488 145.305C156.242 145.059 155.948 145.225 155.689 145.158C155.504 145.11 155.364 145.36 155.276 145.28C155.094 145.114 154.906 145.171 154.72 145.169C154.554 145.173 154.393 145.114 154.268 145.005C154.183 144.935 153.994 144.992 153.852 144.992C153.197 144.992 152.543 144.98 151.889 144.998C151.606 145.006 151.34 144.847 151.108 144.858C150.891 144.868 150.7 145.061 150.471 144.829C150.414 144.772 150.236 144.785 150.141 144.827C149.897 144.95 149.628 145.015 149.355 145.015C149.083 145.014 148.814 144.949 148.57 144.825C148.503 144.79 148.359 144.784 148.324 144.826C148.071 145.125 147.74 144.979 147.449 144.985C146.51 145.004 145.568 145.039 144.633 144.979C143.731 144.92 142.866 145.222 141.972 145.164C141.623 145.391 141.225 145.292 140.85 145.347C140.593 145.385 140.49 145.098 140.234 145.153C140.046 145.193 139.939 145.405 139.708 145.34C139.397 145.254 139.083 145.363 138.737 145.207C138.363 145.098 137.965 145.115 137.602 145.256C137.006 145.41 136.38 145.412 135.783 145.264C135.715 145.25 135.669 145.154 135.569 145.162C134.447 145.254 133.348 144.856 132.227 144.998C131.776 145.116 131.312 145.171 130.846 145.163C130.581 145.125 130.281 145.277 130.05 145.013C130.022 144.98 129.871 144.999 129.832 145.043C129.644 145.251 129.381 145.081 129.201 145.176C128.94 145.312 128.768 144.89 128.467 145.144C128.267 145.313 127.956 145.085 127.698 145C127.558 144.976 127.415 144.973 127.274 144.992C126.937 145.042 126.593 145.034 126.259 144.968C125.925 144.84 125.662 145.069 125.367 144.992C124.035 144.793 122.685 144.738 121.341 144.83C121.053 144.818 120.729 144.698 120.462 144.981C120.399 145.016 120.329 145.033 120.258 145.033C120.186 145.034 120.116 145.016 120.053 144.982C119.638 144.702 119.184 144.877 118.752 144.818C118.486 144.781 118.19 144.946 117.951 144.686C117.868 144.597 117.742 144.636 117.665 144.738C117.631 144.784 117.582 144.817 117.527 144.831C117.471 144.845 117.413 144.838 117.361 144.813C116.975 144.581 116.527 144.749 116.157 144.621C115.849 144.515 115.538 144.703 115.372 144.609C115.122 144.488 114.842 144.445 114.568 144.487C114.191 144.498 113.784 144.344 113.439 144.643C113.401 144.664 113.358 144.675 113.315 144.675C113.272 144.675 113.23 144.664 113.192 144.643C112.817 144.334 112.382 144.496 111.978 144.485C110.328 144.342 108.671 144.287 107.015 144.318C106.83 144.333 106.74 144.078 106.604 144.202C106.424 144.366 106.23 144.304 106.046 144.298C105.86 144.293 105.732 144.453 105.603 144.459C105.302 144.531 104.987 144.51 104.698 144.399C104.63 144.359 104.549 144.344 104.481 144.305C104.243 144.168 104.102 144.681 103.816 144.384C103.633 144.193 103.443 144.332 103.23 144.457C103.06 144.557 102.784 144.457 102.559 144.483C102.319 144.51 102.13 144.127 101.829 144.462C101.651 144.66 101.406 144.297 101.149 144.3C100.069 144.314 98.9851 144.268 97.9081 144.335C97.6701 144.349 97.431 144.336 97.1958 144.297C96.9238 144.254 96.7675 144.529 96.4952 144.488C96.3343 144.488 96.1793 144.427 96.0605 144.318C95.9555 144.495 95.7848 144.493 95.6143 144.477C94.2924 144.346 92.9944 144.701 91.6736 144.658C90.3663 144.616 89.0557 144.678 87.7486 144.634C87.2645 144.617 86.8404 144.853 86.3678 144.824C86.1081 144.849 85.846 144.807 85.607 144.702C85.339 144.957 85.0133 144.781 84.7165 144.814C84.4354 144.845 84.147 144.803 83.8641 144.824C83.3394 144.789 82.8123 144.836 82.3019 144.962C82.1332 145.036 81.9489 145.065 81.766 145.048C81.583 145.03 81.4075 144.966 81.2561 144.862C81.1961 144.827 81.1284 144.807 81.059 144.805C80.9896 144.802 80.9207 144.817 80.8585 144.848C80.7853 144.873 80.7182 144.994 80.6637 144.984C80.0704 144.88 79.5166 145.226 78.9431 145.147C78.6082 145.101 78.3279 145.317 77.9636 145.191C77.5722 145.119 77.1723 145.11 76.778 145.164H71.0601C70.2921 145.164 69.5198 145.114 68.7572 145.181C68.2279 145.226 67.7401 144.985 67.1825 145.133C66.6196 145.214 66.0489 145.225 65.4836 145.164H63.8621C63.2932 145.164 62.7242 145.166 62.1552 145.163C61.9022 145.161 61.5618 145.248 61.4165 145.118C61.181 144.908 60.9589 145.398 60.8035 145.059C60.5298 145.135 60.2469 145.172 59.963 145.168C58.683 145.158 57.4027 145.17 56.1227 145.159C55.8288 145.156 55.5212 145.252 55.2429 145.006C55.1655 144.968 55.081 144.949 54.9952 144.948C54.9093 144.947 54.8245 144.965 54.7465 145.001C54.0733 145.183 53.3722 145.236 52.6796 145.158C51.9979 145.184 51.3142 145.156 50.6317 145.168C50.4197 145.172 50.191 145.084 49.9994 145.3C49.9442 145.344 49.8757 145.368 49.8053 145.367C49.735 145.366 49.667 145.34 49.6133 145.295C49.5057 145.2 49.3731 145.139 49.2314 145.119C49.0898 145.099 48.9456 145.121 48.8164 145.183C47.9882 145.306 47.1514 145.361 46.3145 145.348C44.4647 145.515 42.6067 145.569 40.7506 145.508C40.6685 145.495 40.5848 145.498 40.5043 145.519C40.4239 145.539 40.3484 145.576 40.2824 145.627C40.1414 145.755 39.9071 145.702 39.7209 145.654C39.2914 145.501 38.8231 145.498 38.3918 145.647C38.0709 145.75 37.7225 145.726 37.4192 145.578C37.1899 145.466 36.9272 145.445 36.6829 145.517C35.7168 145.736 34.7141 145.734 33.7491 145.511C33.6109 145.47 33.4641 145.472 33.3267 145.514C32.5705 145.863 31.8309 145.412 31.0731 145.489C30.2847 145.569 29.4804 145.478 28.6863 145.524C28.4457 145.537 28.2925 145.157 28.1013 145.386C27.8204 145.722 27.6778 145.268 27.4441 145.324C27.2214 145.378 26.9892 145.379 26.7661 145.327C25.8956 145.081 24.9932 144.967 24.0893 144.991C23.9817 144.996 23.859 144.926 23.7825 144.928C23.569 144.933 23.4717 144.547 23.1768 144.799C23.0102 144.941 22.8247 144.618 22.5791 144.636C22.3892 144.685 22.1903 144.686 22.0001 144.638C21.8099 144.591 21.6344 144.497 21.4891 144.365C21.2747 144.144 20.8283 144.265 20.4788 144.167C19.8166 143.98 19.1713 143.725 18.4876 143.587C18.0829 143.475 17.6843 143.342 17.2939 143.186C16.6737 142.944 16.1419 142.517 15.7694 141.963C15.6061 141.752 15.4114 141.566 15.2594 141.34C15.0694 141.106 14.8357 140.911 14.5714 140.766C14.3439 140.616 13.994 140.434 14.0598 140.057C14.0932 139.865 14.2337 139.692 14.0492 139.511C14.3284 139.273 13.9751 139.038 14.0454 138.795C14.1127 138.562 13.9295 138.279 14.184 138.079C14.1901 138.071 14.1941 138.062 14.1956 138.052C14.1971 138.041 14.1962 138.031 14.1928 138.022C14.029 137.88 13.8867 137.573 13.9457 137.502C14.1407 137.27 13.9083 137.157 13.9043 137.007C13.8838 136.79 13.8146 136.581 13.702 136.395C13.6053 136.193 13.8521 136.11 13.8067 135.896C13.643 135.376 13.5514 134.835 13.5342 134.29C13.5391 134.209 13.5227 134.127 13.4867 134.054C13.1503 133.416 13.2981 132.668 13.0244 132.017C12.9358 131.806 13.2303 131.512 13.0976 131.464C12.7284 131.331 13.0925 131.048 12.9118 130.885C12.7366 130.728 12.9655 130.433 12.7811 130.261C12.7233 130.198 12.6843 130.121 12.6686 130.037C12.6529 129.953 12.6612 129.866 12.6925 129.787C12.7872 129.351 12.4892 128.986 12.5123 128.57C12.5365 128.132 12.224 127.832 12.0597 127.472C11.8979 127.188 11.8159 126.865 11.8226 126.538C11.8679 126.013 11.5557 125.518 11.6591 124.98C11.6925 124.807 11.5501 124.734 11.4557 124.637C11.3754 124.555 11.3579 124.436 11.3053 124.359C11.1618 124.149 11.614 124.084 11.3844 123.86C11.2682 123.715 11.1887 123.544 11.1526 123.362C11.1007 123.183 11.2239 122.967 11.0191 122.812C10.9943 122.779 10.9779 122.741 10.9715 122.7C10.965 122.66 10.9687 122.618 10.9821 122.58C11.0627 122.36 11.0897 122.123 11.0607 121.891C11.0317 121.658 10.9476 121.436 10.8155 121.242C10.7414 121.084 10.9658 120.977 10.9523 120.894C10.9335 120.779 10.749 120.702 10.6787 120.583C10.6278 120.497 10.595 120.316 10.6433 120.268C10.9985 119.916 10.6758 119.619 10.5871 119.306C10.566 119.232 10.4606 119.16 10.4712 119.102C10.6249 118.238 9.88815 117.585 9.92652 116.752C9.5415 116.491 10.0273 116.143 9.83815 115.863C10.0142 115.719 9.92678 115.615 9.83777 115.442C9.703 115.271 9.62209 115.062 9.60528 114.844C9.58847 114.626 9.63653 114.408 9.74339 114.218C9.80715 114.107 9.83937 113.982 9.83651 113.854C9.83363 113.727 9.79577 113.603 9.72713 113.495C9.53608 113.269 9.9789 113.1 9.68047 112.863C9.48335 112.706 9.60754 112.326 9.61938 112.05C9.62964 111.81 9.49146 111.533 9.73959 111.331C9.6159 111.095 9.5707 110.826 9.61062 110.562C9.63261 110.314 9.58115 110.065 9.46274 109.847C9.38318 109.723 9.76125 109.449 9.59731 109.258C9.39613 109.025 9.55054 108.674 9.42042 108.571C9.19256 108.392 9.4742 108.216 9.31685 108.044C9.21504 107.934 9.28712 107.668 9.26789 107.473C9.22688 107.057 9.26827 106.642 9.21261 106.22C9.18334 105.855 9.20718 105.488 9.28335 105.131C9.33439 104.842 8.98325 104.594 9.12124 104.449C9.31501 104.244 9.01961 104.02 9.23785 103.882C8.98131 103.685 9.12695 103.408 9.10419 103.168C9.12758 102.912 9.12119 102.655 9.08515 102.401C8.87572 101.829 9.07842 101.199 8.89322 100.679C8.6739 100.064 8.95545 99.4002 8.59188 98.8333C8.55895 98.7523 8.55835 98.6619 8.59019 98.5805C8.71444 98.2901 8.78053 97.9777 8.78466 97.6615C8.78879 97.3453 8.73087 97.0315 8.61423 96.7377C9.06954 96.3428 8.25033 95.8082 8.75733 95.419C8.81744 94.9519 8.62833 94.4626 8.88129 94.0128C8.73209 93.5144 8.69302 92.9893 8.76682 92.474C8.76496 92.0961 8.64523 91.6988 8.91488 91.3347C8.94601 91.2571 8.95905 91.1732 8.95302 91.0897C8.94697 91.006 8.922 90.9248 8.88 90.8525C8.82397 90.7316 8.77925 90.6057 8.74641 90.4766C8.66487 90.2589 8.98721 90.1297 8.81874 89.9012C8.66372 89.6909 8.75553 89.4845 8.92807 89.3135C8.67414 88.9525 9.15738 88.5072 8.77981 88.1404C8.6199 87.985 8.94968 87.8786 8.92624 87.7115C8.84959 87.1654 9.10064 86.5874 8.76266 86.0639C8.74391 86.0248 8.73415 85.9819 8.73409 85.9385C8.73404 85.8951 8.74371 85.8522 8.76237 85.8129C9.07859 85.258 8.88926 84.6577 8.92081 84.08C8.95348 83.4816 8.93659 82.8798 8.92391 82.2798C8.91878 82.0392 8.72791 81.851 8.73737 81.5783C8.74443 81.3749 8.94433 81.2112 8.82995 81.005C8.71276 80.7939 8.76024 80.534 8.59819 80.3254C8.5292 80.2366 8.58667 80.0487 8.58667 79.9057V78.7052C8.20038 78.4411 8.55641 77.9698 8.27263 77.6241C8.11902 77.4369 8.26874 77.0158 8.23988 76.7041C8.19435 76.2124 8.38893 75.6978 8.08484 75.2245C8.05535 75.16 8.04659 75.0878 8.05978 75.0181C8.07296 74.9481 8.10744 74.8842 8.15842 74.8352C8.19435 74.8016 8.2228 74.7609 8.2419 74.7155C8.26099 74.6702 8.27031 74.6213 8.26922 74.572C8.26814 74.5227 8.25667 74.4743 8.23558 74.4299C8.2145 74.3855 8.18428 74.346 8.1469 74.3142C8.12766 74.2932 8.09152 74.2754 8.08898 74.2532C8.05761 73.9766 8.24588 73.7538 8.27314 73.4748C8.29912 73.209 7.88682 73.0559 8.1468 72.8036C8.34568 72.6106 8.03213 72.5642 8.06203 72.3967C8.11601 72.0942 7.99277 71.7174 8.13138 71.4844C8.27713 71.2395 7.81046 70.9459 8.24497 70.8112C8.17115 70.2587 8.40521 69.6816 8.12026 69.1491C8.07988 69.0779 8.06758 68.9942 8.08578 68.9145C8.28039 68.3748 8.28269 67.7839 8.09227 67.2426C8.01881 66.9742 8.31761 66.8852 8.25816 66.6336C8.19694 66.4168 8.21371 66.1851 8.30555 65.9793C8.39045 65.8376 8.42779 65.6721 8.41211 65.5073C8.40152 65.2656 8.51244 64.989 8.24629 64.8068C8.54483 64.6849 8.29412 64.3038 8.54798 64.1606C8.47425 64.0489 8.42536 63.9223 8.40462 63.7897C8.38389 63.6571 8.39179 63.5215 8.42781 63.3924C8.4695 63.1447 8.66187 62.9229 8.42512 62.6664C8.3963 62.6172 8.38499 62.5597 8.39306 62.503C8.40113 62.4465 8.4281 62.3943 8.46955 62.3551C8.66144 62.2006 8.56154 61.9894 8.58661 61.8028C8.62986 61.4805 8.39025 61.1652 8.56366 60.8397C8.1686 60.5028 8.7332 60.2174 8.61032 59.8496C8.55455 59.4834 8.54485 59.1116 8.58147 58.7431C8.60477 58.4942 8.57907 58.2431 8.50581 58.0042C8.43235 57.8354 8.61323 57.5799 8.59187 57.341C8.56902 57.0858 8.6003 56.826 8.58316 56.57C8.56335 56.2739 8.66411 55.9725 8.42598 55.6892C8.21137 55.4336 8.63481 55.1347 8.43746 54.798C8.34744 54.6443 8.78547 54.3578 8.53237 54.1397C8.19843 53.8519 8.68426 53.7081 8.59135 53.4784C8.56159 53.4049 8.59562 53.3077 8.58529 53.2233C8.49589 52.4916 8.86415 51.7973 8.75906 51.0644C8.7525 51.0092 8.75766 50.9531 8.77417 50.9001C8.94043 50.1583 8.97686 49.3931 8.8818 48.6388C8.87937 48.6271 8.98481 47.2557 8.99569 47.247C9.24722 47.0455 8.89952 46.8296 8.94464 46.7736C9.29519 46.3391 8.872 45.9409 8.92572 45.5298C8.95383 45.3149 8.89615 45.1051 9.0782 44.8981C9.12935 44.8132 9.15257 44.7143 9.14456 44.6153C9.13656 44.5165 9.09771 44.4226 9.03359 44.3472C8.80874 44.1436 9.12907 44.0999 9.10986 43.9412C9.01486 43.1581 9.40119 42.4033 9.26948 41.6126C9.46893 39.671 9.52374 37.7168 9.43349 35.7669C9.48275 35.5185 9.45488 35.2611 9.35365 35.0294C9.26056 34.8675 9.60927 34.623 9.27555 34.4263C9.09052 34.3171 9.592 34.1792 9.31296 33.9501C9.18788 33.8475 9.21979 33.5826 9.41639 33.4364C9.44665 33.414 9.43712 33.3324 9.43925 33.2779C9.44255 33.1923 9.44012 33.1064 9.44012 33.0206C9.44012 32.9349 9.47336 32.7971 9.43459 32.7721C9.22596 32.6376 9.45032 32.4532 9.37137 32.336C9.30406 32.2363 9.22647 32.1392 9.27399 32.0353C9.44713 31.4171 9.50397 30.7716 9.44159 30.1323C9.45138 29.9983 9.38762 29.8498 9.52018 29.736C9.65248 29.6225 9.62073 29.5192 9.52508 29.3799C9.44398 29.2471 9.39656 29.0962 9.387 28.9407C9.37746 28.7852 9.40606 28.6297 9.47028 28.4879C9.60411 28.2141 9.64758 27.9046 9.59436 27.6042C9.53968 27.2892 9.85011 27.1105 9.7857 26.8139C9.77031 26.5694 9.82449 26.3255 9.94196 26.1106C10.0624 25.7473 10.1295 25.3683 10.1412 24.9856C10.1619 24.5289 10.2904 24.0747 10.3516 23.6151C10.3702 23.4756 10.3148 23.3969 10.3182 23.309C10.3339 22.9034 10.1455 22.4703 10.4564 22.0897C10.4832 22.0389 10.497 21.9822 10.4966 21.9249C10.4961 21.8673 10.4814 21.8109 10.4538 21.7606C10.3351 21.6075 10.2708 21.4189 10.271 21.225C10.2712 21.0309 10.336 20.8425 10.455 20.6897C10.5156 20.5807 10.4622 20.409 10.4648 20.2662C10.4518 19.8536 10.5021 19.4413 10.6137 19.0439C10.7414 18.5953 10.8159 18.1329 10.8356 17.6665C10.9103 17.2645 10.9575 16.8577 10.9769 16.4492C10.9737 16.3922 10.9548 16.2981 10.9797 16.2832C11.3467 16.0653 11.1904 15.5723 11.4142 15.3591C11.6589 15.126 11.5428 14.8694 11.6438 14.6391C11.8128 14.0614 11.931 13.4698 11.997 12.8713C12.1607 12.3336 12.2139 11.768 12.1532 11.209ZM180.655 21.6715C180.667 21.5193 180.568 21.4996 180.452 21.4998C180.236 21.5002 180.02 21.5002 179.802 21.4998H179.12C178.902 21.4998 178.687 21.4998 178.471 21.4998C178.354 21.4996 178.255 21.5193 178.267 21.6715H176.217C175.549 21.6715 174.881 21.6715 174.212 21.6715C174.096 21.6715 173.986 21.6807 173.998 21.8431C173.633 21.8901 173.263 21.8834 172.9 21.8233C172.396 21.6274 171.836 21.6345 171.335 21.8431C170.188 21.7192 169.069 22.088 167.92 22.0242C167.045 21.9755 166.164 22.0303 165.286 22.0101C164.427 22.0304 163.568 21.985 162.716 21.8742C161.87 21.7912 161.019 21.7809 160.172 21.8431C160.183 21.6908 160.084 21.6712 159.968 21.6714C159.751 21.6717 159.535 21.6717 159.318 21.6714C159.183 21.6715 159.043 21.6419 158.945 21.7855C158.867 21.9002 158.739 21.8215 158.635 21.8429C158.646 21.6908 158.548 21.671 158.431 21.6712C158.215 21.6717 157.998 21.6717 157.782 21.6714C157.249 21.598 156.708 21.6116 156.18 21.7118C155.827 21.8667 155.433 21.9002 155.059 21.8074C154.606 21.6853 154.137 21.6414 153.67 21.6777C152.962 21.6534 152.253 21.6714 151.544 21.6714C150.835 21.6714 150.126 21.671 149.417 21.6715C148.727 21.672 148.065 21.9159 147.36 21.856C146.656 21.7962 145.942 21.8718 145.235 21.8353C144.405 21.9307 143.564 21.8766 142.752 21.6755C142.68 21.6455 142.541 21.6385 142.507 21.6808C142.283 21.9593 141.982 21.8351 141.719 21.837C140.074 21.8487 138.43 21.8429 136.785 21.8429C136.797 21.6863 136.693 21.6714 136.577 21.6714C136.248 21.6715 135.919 21.6715 135.59 21.6714C134.65 21.7506 133.702 21.6929 132.778 21.4998C132.013 21.5894 131.223 21.3178 130.471 21.664C130.354 21.7177 130.128 21.7316 130.062 21.6609C129.797 21.3767 129.479 21.5195 129.189 21.5067C128.652 21.479 128.115 21.4805 127.579 21.511C127.355 21.5255 127.238 21.3586 127.055 21.3285H117.496C116.495 21.2926 115.493 21.341 114.501 21.4733C113.843 21.496 113.188 21.5623 112.539 21.6715C110.942 21.5811 109.356 21.7845 107.766 21.8431C107.778 21.6838 107.671 21.6715 107.555 21.6715C107.113 21.6714 106.671 21.6714 106.229 21.6715H106.059C105.842 21.6715 105.626 21.6715 105.409 21.6714C105.293 21.6712 105.194 21.6908 105.205 21.8431C104.01 21.8431 102.815 21.8236 101.621 21.8486C100.447 21.8167 99.2714 21.8618 98.1027 21.9836C97.1798 22.1234 96.2329 21.7509 95.2755 21.8301C95.0872 21.8859 94.8894 21.9013 94.6948 21.8754C94.5001 21.8496 94.313 21.783 94.1456 21.68C94.0954 21.6574 94.04 21.6481 93.9852 21.6533C93.9304 21.6583 93.8778 21.6776 93.8325 21.7091C93.6454 21.9306 93.4118 21.8276 93.199 21.8393C92.9151 21.8586 92.6303 21.858 92.3463 21.8379C92.0526 21.8131 91.721 21.9729 91.4736 21.6819C91.2584 21.9509 90.9587 21.809 90.6953 21.8431H89.8418C89.389 21.8431 88.9341 21.8164 88.4839 21.8508C88.0454 21.8138 87.6038 21.8579 87.1811 21.9807C86.7383 22.0668 86.2844 22.0797 85.8375 22.0189C85.3489 22.0411 84.8381 21.8932 84.3797 22.1861C83.5161 22.0935 82.6842 22.4786 81.8186 22.3577C81.6022 22.3577 81.3856 22.3577 81.1692 22.3575C81.0528 22.3573 80.954 22.377 80.9651 22.5292C80.597 22.5292 80.2288 22.5325 79.8607 22.5285C79.1998 22.591 78.5328 22.5332 77.8925 22.3577H76.8683C75.4433 22.3832 74.0181 22.3341 72.5982 22.2109C71.1933 22.0099 69.7568 22.3181 68.3307 22.0372C67.4986 21.8732 66.6286 22.0087 65.7647 21.8741C64.6169 21.6951 63.4292 21.9578 62.2648 21.6865C61.8426 21.6345 61.4159 21.6293 60.9927 21.6715C61.0043 21.515 60.9007 21.5 60.7845 21.5C60.4556 21.5 60.1266 21.5 59.7978 21.5C58.7974 21.4986 57.7979 21.4408 56.8038 21.3267C55.9812 21.3354 55.1581 21.3285 54.3351 21.3285H53.4816C52.6049 21.3285 51.7257 21.287 50.8521 21.34C49.9569 21.3943 49.1022 21.0631 48.2056 21.1423C47.8989 21.1693 47.5331 21.3054 47.251 20.9969C47.2148 20.9756 47.1724 20.9678 47.1309 20.9754C47.0896 20.9828 47.0524 21.0052 47.026 21.0379C46.8221 21.2723 46.5488 21.1077 46.3121 21.1569C46.3245 20.9952 46.2151 20.9856 46.0991 20.9856C45.4872 20.9854 44.8755 20.9852 44.2636 20.9854C44.041 20.9477 43.8132 20.9534 43.5927 21.0021C43.3516 21.1283 43.0788 21.1809 42.8084 21.153C42.5142 21.1667 42.2232 21.2219 41.9441 21.3164C41.3121 21.2711 40.677 21.3333 40.0656 21.5C38.9266 21.4845 37.8042 21.7756 36.6587 21.6774C36.2377 21.6412 35.811 21.6715 35.3871 21.6715H34.5335C33.8998 21.6753 33.2677 21.7328 32.6436 21.8431C32.2438 22.1925 31.7293 21.8896 31.2954 22.0878C30.8115 22.2349 30.3 22.265 29.8022 22.176C28.3453 22.2387 26.8858 22.1927 25.4358 22.0384C24.6734 21.9433 23.9027 21.9386 23.1394 22.0241C22.3541 22.0695 21.5955 21.8546 20.8229 21.85C17.9247 21.8326 15.0265 21.8407 12.1284 21.8479C11.9159 21.8484 11.6814 21.7623 11.4806 21.9323C11.58 22.8916 11.207 23.8174 11.311 24.7772C11.3629 25.0517 11.3114 25.3359 11.1665 25.5746C11.0566 25.7434 11.1963 26.0486 11.0081 26.2485C11.112 26.3601 11.1679 26.5086 11.1637 26.6615C11.1594 26.8144 11.0954 26.9594 10.9854 27.0654C11.0802 27.5734 10.7186 28.025 10.8058 28.5322C10.6543 28.521 10.6347 28.6202 10.6349 28.7371C10.6353 28.9546 10.6353 29.1722 10.635 29.3897C10.6072 29.3854 10.5788 29.3862 10.5512 29.3919C10.5271 29.4019 10.4892 29.4386 10.4933 29.4482C10.5773 29.6473 10.7882 29.8926 10.7329 30.0329C10.5251 30.5599 10.7202 31.0916 10.6282 31.6079C10.5876 31.8356 10.776 31.9501 10.8057 32.134C10.6499 32.1223 10.635 32.2265 10.635 32.3431C10.6351 32.6736 10.6351 33.0041 10.635 33.3346C10.696 33.627 10.5811 33.9188 10.7162 34.2346C10.7841 34.3934 10.6242 34.7139 10.6326 34.9741C10.6427 35.285 10.635 35.5962 10.635 35.9074V37.2795C10.6255 37.4206 10.6269 37.5621 10.6391 37.703C10.6722 37.9142 10.5746 38.1248 10.7259 38.35C10.7985 38.458 10.556 38.711 10.6384 38.9175C10.7719 39.2637 10.7743 39.6472 10.6449 39.9951C10.5736 40.1821 10.5763 40.3895 10.6524 40.5746C10.7759 40.7696 10.639 40.8929 10.6504 41.0362C10.6737 41.3286 10.5024 41.5513 10.4635 41.8146C10.4205 42.1048 10.5356 42.3938 10.3206 42.695C10.1918 42.8754 10.5534 43.1642 10.4643 43.454C10.3085 43.4423 10.2935 43.5465 10.2936 43.6633C10.2936 43.9938 10.2936 44.3243 10.2936 44.6548C10.2513 44.8888 10.4543 45.1583 10.3779 45.3071C10.2137 45.6263 10.0765 45.8982 10.2936 46.2327C9.94916 46.4078 10.4647 46.6803 10.2041 46.9057C9.92145 47.1503 10.4628 47.3574 10.3002 47.6452C10.2375 47.756 10.3649 47.9499 10.2434 48.0396C9.93072 48.2704 10.2951 48.4135 10.2936 48.5997C10.1378 48.588 10.1228 48.6922 10.1228 48.8088C10.1229 49.1393 10.1229 49.4697 10.1228 49.8002C10.3259 50.181 9.74935 50.5496 10.1054 50.9326C9.6943 51.1729 10.1487 51.5254 9.98343 51.8536C9.83498 52.1483 9.95666 52.5784 9.95029 52.9485C9.94698 53.1424 9.99984 53.4188 9.89631 53.5134C9.61431 53.7713 9.94835 53.9012 9.95215 54.0881C9.89403 54.1432 9.84773 54.2096 9.81608 54.2834C9.78443 54.3571 9.7681 54.4366 9.7681 54.5169C9.7681 54.5971 9.78443 54.6767 9.81608 54.7504C9.84773 54.8241 9.89403 54.8906 9.95215 54.9457V55.4603C9.80074 55.4491 9.78111 55.5483 9.78131 55.6653C9.78172 55.8828 9.78176 56.1003 9.78143 56.3178C9.82549 56.7818 9.6641 57.2671 9.94477 57.7097C9.97064 57.7612 9.98408 57.8182 9.98403 57.8761C9.98396 57.934 9.97039 57.991 9.94441 58.0425C9.67521 58.4269 9.83287 58.8572 9.77622 59.2623C9.73493 59.5575 9.89324 59.8649 9.65569 60.1601C9.55978 60.2791 10.0002 60.3786 9.88647 60.5631C9.82244 60.6346 9.78398 60.7253 9.77723 60.8213C9.77046 60.9172 9.79581 61.0126 9.84919 61.0925C9.9184 61.1902 9.99981 61.2828 9.93632 61.387C9.82412 61.5749 9.76484 61.79 9.76483 62.0092C9.76481 62.2285 9.82405 62.4436 9.93622 62.6317C9.98281 62.7205 10.0005 62.822 9.98689 62.9213C9.97325 63.0209 9.92894 63.1135 9.86015 63.1866C9.72548 63.3107 9.77276 63.4191 9.8814 63.542C9.94088 63.602 9.97519 63.6826 9.97722 63.7671C9.97928 63.8519 9.94892 63.934 9.89242 63.9969C9.82167 64.0658 9.77446 64.1557 9.75758 64.2531C9.7407 64.3508 9.75501 64.4514 9.79845 64.5404C10.0311 64.8192 9.82736 65.0958 9.75156 65.2556C9.6452 65.5085 9.59756 65.7823 9.61228 66.0563C9.60608 66.3992 9.61078 66.7423 9.61078 67.0853C9.61078 67.4282 9.60546 67.7713 9.61227 68.1142C9.55956 68.461 9.603 68.8158 9.73779 69.1396C9.49346 69.4384 9.62253 69.7908 9.61766 70.1157C9.60014 71.2874 9.61083 72.4593 9.61083 73.6311C9.61083 73.8313 9.69284 74.1299 9.59481 74.2121C9.34382 74.4225 9.62793 74.5362 9.61175 74.6896C9.60313 75.8115 9.66008 76.933 9.78229 78.0481C9.7523 78.3779 9.80672 78.7098 9.94038 79.0124C10.1073 79.3615 10.172 79.7511 10.127 80.1358C10.082 80.4183 10.0867 80.7066 10.1406 80.9876C10.2381 81.2058 10.2548 81.4518 10.1876 81.6813C10.5302 81.8367 10.0994 82.0471 10.2403 82.2934C10.4314 82.6275 10.2007 83.1103 10.4579 83.4862C10.49 83.5331 10.4566 83.6567 10.4142 83.7167C10.3266 83.8258 10.2311 83.9283 10.1287 84.0234C10.3015 84.1279 10.2995 84.2941 10.2957 84.4691C10.3079 84.7831 10.3041 85.0975 10.2843 85.4111C10.2535 85.6555 10.4565 85.8489 10.319 86.1398C10.2481 86.4452 10.2397 86.7621 10.2943 87.0709C10.2541 87.3331 10.2973 87.6016 10.4178 87.8378C10.1578 88.1968 10.3586 88.6062 10.2937 88.9865C10.669 89.3394 10.1141 89.6917 10.2922 90.0456C10.3036 90.0684 10.2819 90.1109 10.2956 90.1292C10.4113 90.2843 10.3748 90.4128 10.3118 90.595C10.2706 90.6987 10.2526 90.8103 10.2591 90.9217C10.2655 91.0333 10.2963 91.142 10.3492 91.2402C10.605 91.4853 10.1562 91.5411 10.2853 91.7384C10.4102 91.9292 10.1299 92.1533 10.2079 92.3109C10.3193 92.5355 10.3662 92.8386 10.2577 92.9348C10.0061 93.1582 10.4832 93.347 10.2066 93.5664C10.0091 93.7229 10.131 94.0455 10.1267 94.293C10.1157 94.9214 10.1076 95.5511 10.1315 96.1788C10.1398 96.3963 9.97261 96.6123 10.0314 96.7616C10.1435 97.0456 10.2092 97.2735 9.9964 97.5292C9.95334 97.5852 9.92866 97.6532 9.92578 97.7238C9.92292 97.7944 9.94201 97.8644 9.98041 97.9236C10.1663 98.1709 10.1399 98.4882 10.2937 98.7393C10.0024 99.0064 10.1131 99.2733 10.2937 99.5404C9.87688 100.007 10.4642 100.475 10.2937 100.942C10.5281 101.165 10.4323 101.459 10.4709 101.727C10.5001 101.929 10.2822 102.138 10.3525 102.226C10.4151 102.32 10.4565 102.426 10.4739 102.537C10.4914 102.649 10.4844 102.763 10.4536 102.871C10.4264 103.117 10.6538 103.324 10.6085 103.479C10.571 103.567 10.5536 103.663 10.5577 103.758C10.5618 103.854 10.5872 103.948 10.632 104.033C10.6773 104.296 10.6768 104.564 10.6306 104.827C10.4035 105.048 10.6554 105.253 10.6325 105.461C10.6062 105.701 10.9764 105.898 10.6567 106.2C10.6025 106.314 10.5798 106.44 10.5908 106.565C10.6019 106.691 10.6464 106.811 10.7196 106.913C10.7801 107.025 10.8177 107.147 10.8301 107.273C10.8426 107.399 10.8296 107.526 10.7919 107.647C10.744 107.953 11.0702 108.181 10.9622 108.429C10.8656 108.591 10.8151 108.777 10.8161 108.965C10.8171 109.154 10.8695 109.339 10.9678 109.5C10.9956 109.55 11.0053 109.609 10.9953 109.665C10.9853 109.722 10.9562 109.774 10.9128 109.811C10.7866 109.914 10.7428 110.04 10.8824 110.162C11.0413 110.3 10.9666 110.478 10.9732 110.638C10.985 110.923 10.9639 111.21 10.9804 111.495C10.9946 111.741 10.8681 112.036 11.0696 112.223C11.3186 112.454 10.8275 112.698 11.1326 112.931C11.177 113.019 11.1914 113.119 11.1735 113.215C11.1556 113.312 11.1064 113.4 11.0335 113.466C10.9324 113.553 10.9745 113.646 11.0376 113.759C11.1982 113.956 11.2871 114.202 11.2894 114.457C11.2918 114.711 11.2075 114.959 11.0505 115.159C11.0549 115.493 11.1126 115.824 11.2213 116.139C11.4342 116.688 11.5813 117.261 11.6596 117.845C11.888 118.512 12.0191 119.208 12.0486 119.913C12.2953 120.117 12.0711 120.42 12.183 120.627C12.3262 120.864 12.3803 121.145 12.3354 121.418C12.2519 121.853 12.5013 122.219 12.541 122.626C12.5494 122.712 12.7122 122.773 12.6828 122.907C12.5581 123.474 12.8886 123.993 12.857 124.551C12.8368 124.66 12.8517 124.772 12.8996 124.872C13.1065 125.193 13.2179 125.566 13.2206 125.948C13.2531 126.174 13.414 126.408 13.3585 126.651C13.3218 126.925 13.395 127.203 13.5621 127.423C13.8106 127.824 13.6085 128.277 13.8616 128.679C14.1559 129.311 14.3339 129.991 14.3869 130.686C14.4363 130.928 14.3058 131.207 14.4669 131.423C14.6607 131.683 14.4119 132.078 14.5982 132.211C14.923 132.444 14.5896 132.626 14.6416 132.836C14.8043 133.298 14.8899 133.783 14.895 134.273C14.8747 134.574 14.9439 134.875 15.0937 135.137C15.1748 135.261 15.2095 135.41 15.1918 135.558C15.1637 135.885 15.3138 136.228 15.1262 136.555C15.3721 136.917 15.1204 137.35 15.2604 137.7C15.3773 138.096 15.4309 138.508 15.4192 138.921C15.4572 139.394 15.5424 139.864 15.58 140.338C15.6004 140.595 15.8245 140.702 15.9445 140.868C16.389 141.486 16.7996 142.188 17.6916 142.247C18.1247 142.639 18.7085 142.53 19.2114 142.698C19.9431 142.942 20.6923 143.128 21.4523 143.257C21.7461 143.307 22.029 143.395 22.3186 143.436C22.5877 143.475 22.8536 143.556 23.1036 143.584C23.3524 143.612 23.6174 143.896 23.8874 143.643C24.7303 143.959 25.6474 143.876 26.501 144.134C28.048 144.025 29.5753 144.418 31.1245 144.316C31.4357 144.296 31.7944 144.178 32.0716 144.464C32.3487 144.151 32.713 144.316 33.0305 144.314C36.3585 144.3 39.6868 144.306 43.0149 144.305C43.2964 144.305 43.6491 144.394 43.8424 144.259C44.1326 144.057 44.317 144.478 44.5677 144.269C44.7966 144.079 45.0429 144.325 45.2919 144.328C45.6382 144.333 45.9033 144.12 46.2456 144.12C46.9941 144.143 47.7431 144.102 48.4848 143.997C49.435 143.835 50.4239 143.994 51.3991 143.813C52.0506 143.762 52.7043 143.75 53.3572 143.779C53.6294 143.763 53.8752 144.036 54.0443 143.943C54.5603 143.659 55.1002 143.9 55.6011 143.772C55.806 143.72 55.837 143.973 56.0934 143.868C56.6061 143.707 57.1532 143.69 57.6747 143.821C58.276 143.998 58.915 143.997 59.5159 143.82C59.5891 143.804 59.7046 143.791 59.7407 143.83C59.9788 144.093 60.2769 143.929 60.5439 143.956C60.6988 143.971 60.8691 144.016 61.018 143.864C61.12 143.76 61.3189 144.033 61.4343 143.806C61.54 143.984 61.7165 143.942 61.8808 143.968C62.2254 144.024 62.5159 143.835 62.8356 143.796C63.1929 143.752 63.5003 144.065 63.8744 143.964C63.9822 143.955 64.0893 143.937 64.1948 143.913C64.8424 143.718 65.5275 143.685 66.1906 143.818C66.7123 143.869 67.2376 143.869 67.7594 143.819C68.5379 143.716 69.3282 143.746 70.0969 143.907C70.7294 144.062 71.3898 144.063 72.0226 143.909C72.3503 143.818 72.6966 143.818 73.024 143.909C73.3034 143.988 73.687 143.739 74.0453 143.796C74.0911 143.803 74.1219 143.894 74.1692 143.905C74.5418 144.019 74.9403 144.012 75.3086 143.885C75.4446 143.83 75.5427 143.731 75.6633 143.87C75.8283 144.06 75.86 143.772 75.9824 143.787C76.1225 143.804 76.3304 143.732 76.3958 143.803C76.554 143.975 76.7718 143.774 76.8265 143.859C76.9745 144.089 77.0785 143.699 77.2062 143.867C77.3527 144.061 77.5751 143.938 77.7623 143.959C77.9321 143.95 78.1022 143.954 78.2714 143.972C78.5077 144.04 78.5892 143.764 78.8009 143.788C79.6398 143.885 80.444 143.536 81.291 143.607C82.0255 143.669 82.7774 143.551 83.5063 143.639C84.2377 143.727 84.9493 143.302 85.6733 143.615C85.7405 143.645 85.8236 143.591 85.9024 143.56C86.2861 143.455 86.6843 143.416 87.0809 143.443C87.6746 143.506 88.2737 143.496 88.865 143.413C89.1896 143.341 89.5568 143.16 89.7888 143.347C90.1994 143.679 90.4549 143.119 90.7952 143.274C90.8425 143.296 90.9306 143.26 90.9568 143.29C91.0711 143.398 91.2152 143.468 91.3701 143.492C91.525 143.516 91.6835 143.493 91.8247 143.425C92.2432 143.285 92.6815 143.502 93.0713 143.277C94.5892 143.364 96.0963 143.165 97.6089 143.107C97.8644 143.097 98.1207 143.105 98.3767 143.105C98.5933 143.105 98.8098 143.105 99.0264 143.105C99.1427 143.106 99.2414 143.086 99.2303 142.934C99.9544 142.89 100.644 143.205 101.38 143.116C101.862 143.084 102.346 143.08 102.829 143.105H105.646C106.096 143.17 106.553 143.16 107 143.075C107.483 142.896 107.883 143.213 108.321 143.106C108.899 142.964 109.477 143.371 110.058 143.108C110.105 143.087 110.199 143.081 110.223 143.109C110.472 143.405 110.803 143.27 111.095 143.271C113.172 143.282 115.249 143.277 117.325 143.277C117.314 143.429 117.413 143.449 117.529 143.448C117.746 143.448 117.962 143.448 118.179 143.448H119.032C119.021 143.603 119.122 143.62 119.239 143.62C119.511 143.62 119.784 143.62 120.056 143.62H125.86C126.143 143.638 126.427 143.635 126.709 143.611C127.005 143.568 127.188 143.815 127.49 143.809C129.218 143.773 130.948 143.822 132.676 143.783C134.387 143.745 136.08 144.061 137.793 143.973C138.867 143.918 139.946 143.973 141.023 143.958C141.434 144.016 141.853 143.967 142.239 143.814C142.356 143.765 142.482 143.746 142.607 143.759C142.732 143.772 142.852 143.816 142.956 143.887C143.072 143.964 143.208 144.005 143.347 144.007C143.486 144.008 143.623 143.97 143.741 143.896C143.991 143.724 144.23 143.843 144.467 143.792C144.683 143.792 144.9 143.792 145.116 143.792C145.233 143.792 145.331 143.772 145.321 143.62H145.662C145.807 143.738 145.988 143.802 146.174 143.802C146.36 143.802 146.541 143.738 146.686 143.62C146.906 143.593 147.127 143.649 147.308 143.778C147.535 143.966 147.735 143.588 147.991 143.618C148.788 143.712 149.609 143.43 150.391 143.785C150.443 143.806 150.498 143.815 150.554 143.811C150.609 143.807 150.663 143.79 150.71 143.761C150.77 143.702 150.842 143.658 150.922 143.633C151.002 143.609 151.087 143.604 151.169 143.62C151.532 143.559 151.903 143.569 152.262 143.648C152.637 143.819 152.918 143.592 153.24 143.619C153.268 143.622 153.305 143.608 153.324 143.622C153.477 143.716 153.647 143.778 153.825 143.805C154.003 143.832 154.184 143.823 154.358 143.778C154.742 143.715 155.042 143.963 155.396 143.963C156.417 143.963 157.441 144.013 158.458 143.949C159.499 143.883 160.506 144.169 161.537 144.134H162.391C163.355 144.134 164.32 144.113 165.284 144.14C166.257 144.058 167.236 144.112 168.194 144.302C168.695 144.458 169.152 144.111 169.654 144.127C170.532 144.154 171.412 144.134 172.292 144.134H173.657C174.281 144.134 174.908 144.182 175.527 144.121C176.176 144.058 176.778 144.322 177.413 144.306H178.267C178.896 144.233 179.545 144.459 180.165 144.147C180.255 144.105 180.354 144.084 180.453 144.087C180.553 144.089 180.65 144.115 180.738 144.161C181 144.383 181.272 144.281 181.54 144.304C183.114 144.438 184.674 144.083 186.249 144.122C186.653 144.126 187.056 144.054 187.436 143.91C188.375 143.556 189.278 143.113 190.133 142.587C190.747 142.216 191.244 141.672 191.825 141.288C192.457 140.872 192.856 140.218 193.518 139.862C193.689 139.757 193.833 139.612 193.937 139.44C194.051 139.266 194.088 139.045 194.191 138.862C194.28 138.699 194.525 138.629 194.482 138.383C194.433 138.097 194.76 138.05 194.822 137.838C194.832 137.784 194.823 137.727 194.796 137.679C194.751 137.601 194.601 137.56 194.748 137.433C194.895 137.274 195.007 137.085 195.074 136.878C195.142 136.671 195.163 136.452 195.137 136.236C195.272 135.43 195.224 134.604 195 133.819C194.983 133.779 194.974 133.736 194.974 133.692C194.974 133.649 194.983 133.606 195 133.566C195.212 133.179 195.067 132.817 195.027 132.416C194.93 131.396 195.005 130.361 194.988 129.332C195.014 129.119 195.067 128.911 195.149 128.713C195.2 128.493 195.192 128.264 195.125 128.048C194.971 127.464 194.959 126.851 195.092 126.261C195.168 125.981 195.193 125.689 195.166 125.399C195.082 125.018 194.816 124.638 195.161 124.251C195.18 124.231 195.144 124.148 195.116 124.105C195.026 123.949 194.976 123.773 194.967 123.593C194.959 123.413 194.995 123.234 195.07 123.07C195.115 122.943 195.113 122.912 195.043 122.817C194.983 122.734 194.726 122.688 194.919 122.524C195.082 122.386 194.726 122.312 194.924 122.143C195.188 121.919 194.724 121.567 194.99 121.287C195.007 121.249 195.014 121.208 195.01 121.166C195.007 121.125 194.991 121.085 194.969 121.051C194.722 120.845 194.852 120.574 194.828 120.334C194.806 120.125 194.445 119.918 194.816 119.702C194.565 119.515 194.714 119.233 194.645 119.007C194.556 118.716 194.919 118.535 194.813 118.309C194.613 117.881 194.753 117.415 194.63 117.01C194.535 116.816 194.487 116.602 194.487 116.386C194.487 116.17 194.539 115.957 194.633 115.764C194.697 115.657 194.601 115.569 194.559 115.469C194.419 115.12 194.529 114.71 194.316 114.373C194.527 114.245 194.431 114.016 194.496 113.847C194.57 113.659 194.167 113.582 194.443 113.355C194.544 113.271 194.462 112.978 194.487 112.784C194.511 112.596 194.212 112.508 194.32 112.345C194.455 112.153 194.541 111.93 194.57 111.697C194.599 111.464 194.571 111.227 194.487 111.008C194.477 110.974 194.523 110.905 194.561 110.872C194.604 110.837 194.633 110.789 194.645 110.736C194.659 110.682 194.652 110.626 194.63 110.576C194.462 109.946 194.356 109.301 194.311 108.65C194.328 108.374 194.282 108.098 194.176 107.844C194.109 107.703 194.078 107.549 194.085 107.393C194.09 107.238 194.134 107.086 194.212 106.951C194.323 106.768 194.335 106.675 194.189 106.525C194.143 106.472 194.116 106.405 194.112 106.334C194.109 106.263 194.129 106.194 194.169 106.136C194.345 105.95 194.289 105.852 194.188 105.64C194.121 105.516 194.09 105.376 194.1 105.235C194.11 105.095 194.16 104.96 194.244 104.847C194.306 104.771 194.347 104.664 194.308 104.623C193.963 104.273 194.189 104.041 194.433 103.775C194.47 103.716 194.493 103.65 194.499 103.581C194.506 103.512 194.498 103.442 194.472 103.377C194.342 103.095 194.463 102.834 194.457 102.572C194.578 101.622 194.53 100.658 194.318 99.7244C194.275 99.6159 194.275 99.495 194.32 99.3871C194.63 98.8295 194.421 98.2295 194.484 97.6536C194.637 97.6649 194.654 97.563 194.654 97.446C194.654 97.1722 194.654 96.8984 194.654 96.6244C194.772 96.2048 194.434 95.7999 194.614 95.3783C194.463 94.9383 194.421 94.4687 194.487 94.0085C194.433 93.7453 194.477 93.4708 194.614 93.2393C194.41 92.6677 194.424 92.0405 194.654 91.4789C194.654 91.2614 194.654 91.0439 194.654 90.8263C194.654 90.7094 194.635 90.6102 194.484 90.6214C194.484 90.3371 194.467 90.0515 194.487 89.7687C194.506 89.5312 194.326 89.2679 194.4 89.1096C194.534 88.8248 194.431 88.5563 194.486 88.2904C194.525 88.1068 194.206 87.9647 194.467 87.7315C194.566 87.6433 194.484 87.3514 194.484 87.1523C194.45 86.9279 194.457 86.6992 194.501 86.4769C194.541 86.4052 194.559 86.3244 194.558 86.2428C194.554 86.1612 194.53 86.0816 194.487 86.0125C194.386 85.8396 194.236 85.6431 194.542 85.4967C194.57 85.4864 194.594 85.4704 194.613 85.4497C194.633 85.4291 194.647 85.4044 194.657 85.3774C194.666 85.3504 194.669 85.3216 194.666 85.2932C194.662 85.2648 194.654 85.2374 194.638 85.2131C194.522 85.0762 194.455 84.9024 194.451 84.7216C194.448 84.5409 194.508 84.3649 194.619 84.2235C194.386 83.9569 194.907 83.589 194.498 83.3286C194.421 83.2802 194.506 83.1328 194.592 83.0446C194.729 82.9058 194.623 82.7212 194.654 82.56C194.772 82.4145 194.835 82.2328 194.835 82.0454C194.835 81.8582 194.772 81.6765 194.654 81.531C194.662 81.316 194.59 81.0789 194.816 80.923C194.433 80.7553 194.976 80.3774 194.654 80.1952C194.866 79.908 194.683 79.6758 194.537 79.4497C194.496 79.3858 194.475 79.3773 194.544 79.3234C194.625 79.2713 194.695 79.2015 194.746 79.119C194.798 79.0367 194.83 78.9439 194.84 78.8472C194.852 78.7506 194.842 78.6526 194.811 78.5605C194.78 78.4684 194.729 78.3843 194.662 78.3144C194.511 78.0912 194.912 77.8299 194.808 77.7257C194.441 77.3591 194.775 77.041 194.851 76.7485C194.938 76.4652 194.986 76.1716 194.996 75.8752C194.993 75.4774 195.024 75.0768 194.984 74.6826C194.962 74.4563 195.135 74.3397 195.166 74.1557V71.756C194.751 71.2894 195.214 70.8272 195.197 70.3551C195.178 69.8076 194.918 69.2534 195.159 68.6963C195.18 68.6477 195.118 68.5387 195.065 68.4864C195.015 68.4359 194.984 68.371 194.972 68.301C194.962 68.2309 194.974 68.1595 195.007 68.0966C195.248 67.8545 195.164 67.5667 195.157 67.2997C195.152 67.0621 195.337 66.7497 195.248 66.6458C194.966 66.3155 195.517 66.1627 195.341 65.8824C195.144 65.5705 195.349 65.2376 195.339 64.9134C195.329 64.5425 195.336 64.171 195.337 63.7998C195.337 63.6063 195.293 63.3972 195.502 63.2692C195.308 63.1378 195.332 62.9396 195.336 62.7427C195.315 62.4581 195.32 62.1723 195.349 61.8885C195.404 61.6107 195.521 61.3732 195.351 61.0774C195.312 60.985 195.291 60.8855 195.291 60.7847C195.289 60.6842 195.31 60.5843 195.349 60.4916C195.449 60.2855 195.502 60.0588 195.502 59.8291C195.502 59.5993 195.45 59.3727 195.349 59.1665C195.325 59.0868 195.32 59.0029 195.334 58.921C195.348 58.839 195.379 58.761 195.426 58.6929C195.581 58.4203 195.498 58.0573 195.675 57.7733C195.329 57.4405 195.476 56.9947 195.545 56.6514C195.565 56.386 195.624 56.1248 195.714 55.8749C195.843 55.6251 195.685 55.3885 195.814 55.1126C195.918 54.7268 195.929 54.3211 195.841 53.9308C195.798 53.5032 196.148 53.1469 196.019 52.716C196.17 52.7272 196.191 52.628 196.191 52.511C196.191 52.2935 196.191 52.076 196.191 51.8585C196.16 51.4169 196.211 50.9736 196.345 50.552C196.422 50.3042 196.422 50.0386 196.345 49.7909C196.287 49.5772 196.593 49.4739 196.412 49.2152C196.29 49.0416 196.395 48.7208 196.354 48.4727C196.323 48.2854 196.215 48.1436 196.343 47.918C196.47 47.6991 196.285 47.3957 196.513 47.1261C196.671 46.9403 196.371 46.6384 196.509 46.3312C196.571 46.0527 196.578 45.7652 196.532 45.4838C196.533 45.3436 196.489 45.1485 196.561 45.0734C196.83 44.7974 196.693 44.4739 196.688 44.1837C196.683 43.8675 196.962 43.6383 196.88 43.3099C196.84 43.1485 196.91 42.9572 196.862 42.8006C196.813 42.6358 197.174 42.5781 196.934 42.3981C196.797 42.2945 197.145 42.1873 196.928 42.0168C196.826 41.9366 196.881 41.6476 196.874 41.4528C196.857 41.2821 196.859 41.1101 196.88 40.9398C196.934 40.654 197.161 40.3964 197.013 40.0795C196.871 39.7735 197.102 39.4919 197.058 39.1783C197.008 38.7809 197.006 38.379 197.053 37.9811C197.09 37.604 196.864 37.1829 197.214 36.8512C196.864 36.5195 197.048 36.0917 197.065 35.7231C197.082 35.3095 196.77 34.9027 197.044 34.493C196.874 34.2555 196.731 34.0178 197.034 33.7736C196.765 33.5576 196.907 33.2564 196.873 32.9917V31.9627C196.873 31.8199 196.82 31.6416 196.885 31.5421C197.015 31.3428 196.545 31.2679 196.821 31.0459C196.895 30.9857 196.681 30.815 196.688 30.6341C196.696 30.4244 196.874 30.2539 196.85 30.1102C196.821 29.8686 196.71 29.6447 196.533 29.4773C196.693 29.2931 197.01 29.1262 196.857 28.8587C196.698 28.5649 196.647 28.2232 196.717 27.8955C196.78 27.509 196.494 27.226 196.518 26.8504C196.58 26.4378 196.537 26.0157 196.39 25.6252C196.324 25.4835 196.297 25.3271 196.309 25.1714C196.321 25.0157 196.374 24.8661 196.462 24.7367C196.551 24.6184 196.29 24.42 196.53 24.3072C196.537 24.2946 196.54 24.2809 196.539 24.2667C196.539 24.2528 196.537 24.239 196.53 24.2264C196.307 23.9991 196.366 23.7118 196.362 23.4396C196.328 23.1277 196.333 22.8127 196.378 22.502C196.443 22.2376 196.162 22.0568 196.323 21.7649C196.439 21.5501 196.09 21.008 195.882 20.9933C195.608 20.9346 195.324 20.9518 195.058 21.0434C194.763 21.2222 194.429 21.1096 194.136 21.3095C193.908 21.4664 193.557 21.2387 193.252 21.4311C192.961 21.6156 192.594 21.489 192.26 21.4959C191.58 21.5102 190.898 21.5002 190.216 21.5002H187.655C187.414 21.417 187.282 21.6894 187.047 21.6791C186.667 21.61 186.273 21.6648 185.925 21.8357C185.875 21.8615 185.818 21.8749 185.76 21.8749C185.704 21.8749 185.647 21.8615 185.596 21.8355C185.222 21.6516 184.797 21.5957 184.389 21.6767C183.145 21.6627 181.901 21.6715 180.655 21.6715ZM195.848 19.7655C195.884 19.5489 195.879 19.3278 195.834 19.113C195.779 19.0308 195.752 18.9337 195.754 18.835C195.757 18.7365 195.79 18.6411 195.848 18.5621C195.745 18.3953 195.678 18.209 195.651 18.0147C195.624 17.8206 195.637 17.6228 195.69 17.4338C195.687 16.2672 195.385 15.1209 194.815 14.105C194.662 13.8179 194.477 13.5495 194.265 13.3053C194.071 13.0356 193.804 12.8334 193.6 12.5623C193.418 12.3239 193.213 12.1057 192.985 11.9116C192.505 11.5065 192.008 11.1164 191.513 10.7275C191.069 10.2803 190.476 10.0128 189.849 9.97614C189.446 10.0084 189.045 9.89602 188.716 9.65889C188.384 9.37166 187.926 9.34508 187.595 9.03903C187.421 8.92309 187.227 8.8387 187.023 8.78967C186.163 8.49897 185.253 8.4165 184.398 8.12174C183.651 8.11023 182.905 8.05214 182.165 7.94781C181.824 7.96195 181.481 7.96471 181.14 7.94497C180.921 7.97728 180.695 7.95456 180.486 7.87884C180.277 7.7634 180.059 8.07105 179.833 7.94726C179.25 7.62887 178.627 7.83507 178.023 7.78193C177.799 7.762 177.465 7.8745 177.362 7.76061C177.06 7.42997 176.665 7.73692 176.339 7.50539C176.178 7.42891 176 7.39746 175.823 7.41439C175.645 7.4313 175.475 7.49597 175.331 7.60154C175.294 7.61778 175.253 7.62438 175.211 7.62079C175.169 7.61721 175.129 7.60356 175.095 7.58099C174.891 7.32686 174.619 7.44227 174.382 7.44489C174.108 7.39408 173.825 7.43745 173.578 7.56804C173.369 7.71118 173.111 7.39353 172.816 7.42451C171.867 7.52395 170.941 7.13048 169.986 7.26492C169.93 7.27556 169.873 7.26963 169.821 7.24787C169.769 7.2261 169.725 7.18946 169.694 7.1425C169.668 7.10868 169.63 7.08629 169.588 7.08009C169.546 7.07387 169.503 7.08434 169.469 7.10926C169.433 7.16234 169.385 7.20601 169.33 7.23658C169.274 7.26715 169.211 7.28372 169.148 7.28486C169.084 7.28601 169.021 7.27172 168.964 7.2432C168.907 7.21466 168.858 7.17274 168.82 7.12099C168.592 7.32487 168.307 7.22107 168.051 7.27146C167.509 7.37822 167.031 7.02511 166.498 7.08878C166.302 7.11224 166.098 7.07366 165.902 7.09736C165.666 7.12593 165.525 6.91966 165.292 6.89734C165.072 6.87631 164.932 6.74331 164.645 6.88451C164.481 6.96544 164.296 6.9958 164.114 6.97178C163.933 6.94775 163.762 6.87041 163.624 6.74945C163.48 6.85993 163.309 6.93142 163.13 6.9571C162.95 6.98278 162.766 6.9618 162.597 6.89617C161.998 6.61114 161.325 6.9419 160.764 6.57796C159.671 6.66088 158.605 6.33175 157.506 6.39214C156.343 6.45604 155.174 6.40709 154.008 6.40589C153.811 6.42142 153.613 6.41529 153.417 6.3876C152.937 6.19571 152.402 6.19293 151.919 6.37981C151.784 6.4176 151.61 6.46462 151.526 6.3654C151.361 6.16903 151.153 6.28802 150.979 6.22867C150.716 6.13886 150.506 6.42786 150.24 6.29506C149.972 6.21212 149.688 6.19281 149.412 6.23868C148.388 6.22936 147.364 6.2295 146.34 6.23913C146.064 6.18593 145.779 6.20833 145.515 6.304C145.298 6.43279 145.052 6.0874 144.825 6.39146C144.753 6.48752 144.389 6.4859 144.259 6.39066C143.966 6.22488 143.623 6.17203 143.294 6.24198C142.63 6.22077 141.965 6.26299 141.308 6.3681C141.055 6.45681 140.787 6.49221 140.52 6.47206C140.253 6.45191 139.992 6.37666 139.755 6.25101C139.667 6.20685 139.567 6.18811 139.469 6.19684C139.37 6.20559 139.276 6.24147 139.196 6.30054C139.097 6.37568 138.978 6.41843 138.854 6.42297C138.731 6.42752 138.609 6.39363 138.505 6.32592C138.432 6.2885 138.406 6.24946 138.318 6.31599C138.07 6.50144 137.776 6.38551 137.503 6.40255C137.22 6.4202 136.929 6.37246 136.651 6.41613C136.379 6.45905 136.119 6.76905 135.851 6.41087C135.639 6.69565 135.334 6.55999 135.07 6.57256C134.644 6.59278 134.217 6.57801 133.79 6.57801H132.424C131.998 6.57801 131.57 6.56185 131.145 6.58243C130.698 6.60396 130.208 6.43058 129.816 6.66107C129.364 6.92674 129.05 6.40842 128.637 6.56874C128.391 6.66395 128.116 6.53176 127.834 6.70235C127.696 6.77367 127.544 6.81009 127.389 6.80844C127.234 6.80679 127.082 6.76712 126.946 6.69291C126.778 6.59669 126.584 6.55849 126.393 6.58421C125.868 6.51439 125.335 6.56638 124.834 6.73618C124.759 6.77791 124.674 6.79571 124.588 6.78721C124.503 6.77871 124.423 6.7443 124.357 6.68859C124.207 6.52346 124.006 6.81667 123.838 6.59394C123.752 6.54585 123.654 6.52698 123.556 6.54015C123.459 6.55333 123.369 6.59785 123.299 6.66699C123.052 6.95848 122.892 6.43518 122.729 6.58791C122.629 6.68702 122.501 6.753 122.362 6.7771C122.223 6.80117 122.08 6.78223 121.952 6.72274C121.686 6.57262 121.442 6.67827 121.195 6.62458C120.869 6.52992 120.524 6.52081 120.194 6.59812C119.945 6.70865 119.676 6.76533 119.404 6.76444C119.132 6.76356 118.863 6.70512 118.615 6.59297C118.579 6.57034 118.536 6.56142 118.494 6.56779C118.452 6.57418 118.414 6.59545 118.387 6.62776C118.237 6.82559 118.024 6.7447 117.839 6.74327C117.678 6.74203 117.48 6.83489 117.356 6.68606C117.158 6.44738 117.052 6.93034 116.88 6.72956C116.766 6.61994 116.622 6.54871 116.466 6.52584C116.311 6.50299 116.152 6.52965 116.012 6.60208C115.359 6.7338 114.692 6.78671 114.027 6.75972C113.747 6.79959 113.504 6.48802 113.341 6.59736C112.882 6.9043 112.403 6.74293 111.95 6.73345C110.662 6.78054 109.372 6.73924 108.089 6.60982C107.003 6.60022 105.917 6.65418 104.836 6.7714C104.063 6.63171 103.267 6.6818 102.517 6.91744C102.476 6.93592 102.412 6.90339 102.36 6.89167C101.873 6.72407 101.345 6.72834 100.862 6.9038C100.771 6.94131 100.673 6.95712 100.575 6.94999C100.477 6.94286 100.382 6.91298 100.298 6.86271C100.172 6.75249 100.048 6.77343 99.9154 6.74413C99.6205 6.67872 99.4356 6.95691 99.1307 6.94622C98.8141 6.93511 98.5915 6.64733 98.2616 6.74284C98.1048 6.78826 97.8611 6.695 97.7727 6.78264C97.5445 7.00892 97.2924 6.90626 97.0539 6.91548C96.571 6.93409 96.0869 6.92102 95.6035 6.92102H74.6953C74.2304 6.49944 73.7671 7.05198 73.2999 6.92388C73.1121 6.90325 72.9253 6.87292 72.7406 6.833C72.5084 6.73592 72.2594 6.68608 72.0079 6.68637C71.7565 6.68666 71.5075 6.73709 71.2755 6.83472C70.7942 7.08172 70.3481 6.64984 69.9093 6.9132C69.8586 6.93532 69.803 6.94425 69.748 6.93923C69.6929 6.93421 69.6399 6.91537 69.594 6.88444C69.4343 6.68558 69.2324 6.75302 69.046 6.75238C67.5382 6.74737 66.0299 6.77281 64.5237 6.72607C64.2807 6.71852 64.0485 7.06161 63.8105 6.7508C63.0142 6.75038 62.2177 6.75331 61.4214 6.74723C61.2343 6.75941 61.0516 6.81009 60.8849 6.89615C60.7672 6.94143 60.6411 6.96087 60.5153 6.95321C60.3895 6.94555 60.2668 6.91093 60.1553 6.8517C59.9818 6.76086 59.7906 6.70922 59.5951 6.70046C59.3996 6.69169 59.2046 6.72598 59.0236 6.80093C58.751 6.92862 58.442 6.95519 58.1516 6.87593C57.8546 6.78519 57.5494 7.10582 57.3524 6.9063C57.0636 6.61414 56.8539 7.12905 56.6321 6.90845C56.4131 6.69067 56.2082 6.65869 55.9866 6.89128C55.712 6.5567 55.471 6.96299 55.2004 6.93077C54.86 6.90747 54.5183 6.90425 54.1774 6.92114C53.7792 6.92114 53.3789 6.94474 52.9838 6.90947C52.8272 6.89548 52.8367 7.10592 52.6486 7.04168C52.3816 6.93075 52.0946 6.87736 51.8059 6.88492C51.5171 6.89248 51.2332 6.96086 50.9724 7.08561C50.9213 7.10811 50.8656 7.11782 50.8099 7.11393C50.7542 7.11004 50.7004 7.09266 50.653 7.06329C50.4686 6.84115 50.2354 6.92593 50.0227 6.92565C49.5559 6.90738 49.089 6.95479 48.6354 7.06657C48.1469 7.20316 47.6103 7.09221 47.0848 7.23839C46.6086 7.32879 46.1202 7.33429 45.6421 7.25463C45.1325 7.20705 44.6883 7.48367 44.1748 7.45062C43.3233 7.39003 42.4684 7.38981 41.6168 7.44999C40.7411 7.51819 39.909 7.22691 39.0404 7.24762C38.5772 7.31975 38.107 7.33566 37.6401 7.29502C36.9913 7.20662 36.3343 7.19871 35.6839 7.27148C35.0404 7.3041 34.4412 7.03796 33.7902 7.06922C33.3703 7.08942 32.9925 7.26271 32.5819 7.26355C31.6717 7.26543 30.7614 7.26564 29.8512 7.26414C28.9409 7.26414 28.0269 7.31546 27.1215 7.24971C26.2179 7.18407 25.357 7.51414 24.4598 7.44051C24.0768 7.40376 23.6905 7.45574 23.3305 7.59245C23.0118 7.68567 22.6864 7.75394 22.3572 7.79663C21.9903 7.90054 21.6108 7.95251 21.2295 7.95108C21.1445 7.94523 21.0407 7.91822 20.9762 7.95508C20.1888 8.40494 19.2202 8.16729 18.4401 8.63627C17.6956 8.72093 16.9898 9.014 16.4029 9.4821C15.6693 9.94943 14.9703 10.4693 14.3111 11.0378C14.2064 11.1277 14.1186 11.2356 14.0516 11.3565C13.8638 11.7389 13.6425 12.1036 13.3904 12.4465C13.113 12.8096 12.9228 13.2321 12.8347 13.6812C12.7221 14.0502 12.7974 14.4745 12.6018 14.7786C12.3353 15.1932 12.4583 15.6835 12.2072 16.111C12.0544 16.3708 12.1333 16.7928 12.0179 17.1399C11.959 17.3171 12.1314 17.5251 12.0169 17.7714C11.8436 18.055 11.7789 18.3922 11.8349 18.7203C11.9362 19.078 11.5902 19.3396 11.661 19.6793C11.7166 19.9462 11.5401 20.1753 11.5769 20.4548C11.6232 20.8066 11.7023 20.9811 12.0044 20.9844C12.3957 21.0555 12.7973 21.0453 13.1846 20.9549C13.3688 20.8807 13.566 20.8449 13.7644 20.85C13.9627 20.855 14.1579 20.9008 14.3381 20.9844C14.365 20.9949 14.395 20.9947 14.4218 20.9837C14.7938 20.6943 15.2272 20.8235 15.6326 20.8199C17.2254 20.8053 18.819 20.7867 20.4113 20.8216C21.9811 20.8559 23.5466 20.8037 25.1233 20.9453C27.014 21.1151 28.9313 20.9869 30.8373 20.9821C30.9962 20.9818 31.1821 21.0572 31.3067 20.8824C31.488 20.6284 31.5978 20.9928 31.7822 20.9306C32.2247 20.7229 32.711 20.6263 33.1988 20.6496C33.7209 20.6439 34.2412 20.5826 34.7505 20.4668C36.3504 20.5502 37.9545 20.4951 39.5449 20.302C39.999 20.2023 40.4582 20.3818 40.9399 20.163C41.3678 19.9688 41.9315 20.2566 42.3898 19.9562C43.3454 19.9557 44.3002 19.9037 45.2504 19.8005C45.9684 19.6825 46.704 19.7359 47.3979 19.9562C48.3155 19.9653 49.2321 20.024 50.1435 20.1319C50.854 20.1112 51.5658 20.137 52.2767 20.1226C52.505 20.1246 52.7314 20.1629 52.9478 20.2354C53.1137 19.9224 53.3092 20.3358 53.4802 20.214C53.7098 20.0507 53.9716 20.1732 54.2124 20.1255C54.8776 19.9936 55.538 20.4457 56.2084 20.1357C56.2582 20.1065 56.3165 20.0955 56.3734 20.1043C56.4303 20.1133 56.4825 20.1413 56.5213 20.1842C56.6474 20.3666 56.8285 20.2938 56.9875 20.2955C57.2334 20.3177 57.4804 20.2677 57.6987 20.1517C57.8671 20.0537 58.1271 20.2929 58.3781 20.3284C58.612 20.3613 58.7548 20.0604 59.0308 20.2626C59.1989 20.3859 59.5281 20.3284 59.7755 20.2905C60.0723 20.2452 60.2493 20.5307 60.5617 20.4868C61.0081 20.424 61.4834 20.5392 61.9211 20.4513C62.3471 20.3656 62.7309 20.921 63.1424 20.4866C63.9698 20.8988 64.9113 20.3979 65.7384 20.8139C66.9689 20.7927 68.1995 20.8528 69.4223 20.9937C70.8809 20.9487 72.341 20.9926 73.7945 21.1252C75.0277 21.3195 76.3001 21.1709 77.5623 21.2933C79.0843 21.4411 80.6311 21.3285 82.1673 21.3281C82.3089 21.3281 82.519 21.3839 82.5795 21.3126C82.7921 21.0622 83.0632 21.1366 83.289 21.1712C83.5941 21.2182 83.7827 20.9656 84.0742 20.9728C84.5972 21.0526 85.1315 21.0023 85.6305 20.8261C85.8205 20.7579 86.0282 20.7574 86.2186 20.8249C86.4873 20.9103 86.6764 20.5361 86.8166 20.662C86.9971 20.824 87.1331 20.6329 87.2609 20.7117C87.4751 20.844 87.6187 20.5972 87.8333 20.6292C88.1731 20.6585 88.5148 20.6628 88.8554 20.6423C89.1495 21.044 89.4428 20.5269 89.7386 20.6404C89.8126 20.6689 89.9238 20.647 89.9691 20.6949C90.1182 20.8524 90.2331 20.8569 90.3904 20.6995C90.5236 20.5662 90.7141 20.6468 90.8766 20.6459C92.1851 20.6394 93.4941 20.6608 94.8019 20.6284C95.0983 20.621 95.3905 20.8933 95.6849 20.6423C95.793 20.7458 95.9359 20.8047 96.0853 20.8075C96.2348 20.8102 96.3797 20.7565 96.4916 20.6571C96.5684 20.6218 96.6529 20.6065 96.7372 20.6122C96.8215 20.618 96.9031 20.6449 96.9745 20.6902C97.1546 20.7947 97.3577 20.8524 97.5655 20.858C97.7734 20.8636 97.9792 20.817 98.1646 20.7222C98.3435 20.6413 98.4777 20.9725 98.6249 20.6857C98.6701 20.5977 98.9912 20.644 99.1861 20.6437C100.779 20.6413 102.372 20.6437 103.965 20.6411C104.254 20.6406 104.558 20.5448 104.816 20.55C105.1 20.5555 105.371 20.7381 105.631 20.4718C105.871 20.7784 106.206 20.6248 106.499 20.636C107.067 20.6578 107.636 20.6423 108.205 20.6423C108.803 20.6423 109.403 20.6027 109.996 20.6537C110.563 20.7024 111.068 20.3974 111.634 20.4649C112.868 20.6124 114.083 20.2526 115.318 20.2844C115.685 20.2939 116.051 19.9882 116.436 20.2495C116.703 20.14 116.989 20.0874 117.277 20.0948C117.566 20.1022 117.849 20.1694 118.11 20.2925C118.162 20.3167 118.218 20.3284 118.274 20.3263C118.331 20.3244 118.386 20.3091 118.436 20.2815C118.673 20.0251 118.966 20.1343 119.231 20.1331C121.393 20.1236 123.555 20.1239 125.717 20.1343C126.093 20.1367 126.494 20.002 126.849 20.2884C126.912 20.3225 126.985 20.3334 127.054 20.3189C127.124 20.3046 127.187 20.266 127.231 20.2099C127.311 20.1079 127.435 20.0771 127.517 20.1715C127.73 20.4143 127.997 20.2772 128.236 20.2924C128.633 20.3177 129.032 20.2993 129.43 20.2993H131.905C132.301 20.2593 132.7 20.2662 133.095 20.3198C133.437 20.4506 133.817 20.4451 134.156 20.3043C134.195 20.2865 134.239 20.2834 134.28 20.2951C134.321 20.307 134.357 20.3332 134.381 20.3688C134.505 20.543 134.691 20.4575 134.851 20.4689C135.657 20.4257 136.466 20.4782 137.26 20.6256C137.804 20.7942 138.431 20.461 138.979 20.8096C139.005 20.8161 139.032 20.8159 139.058 20.809C139.083 20.8023 139.107 20.7891 139.127 20.7706C139.304 20.5457 139.547 20.6496 139.759 20.647C140.697 20.6361 141.636 20.636 142.575 20.6466C142.81 20.6492 143.058 20.5025 143.242 20.5505C143.992 20.6487 144.75 20.6787 145.506 20.6403C145.666 20.6532 145.766 20.3396 145.931 20.4989C146.181 20.7396 146.463 20.6093 146.73 20.6404C147.647 20.6425 148.564 20.5872 149.475 20.4751C151.466 20.4613 153.458 20.5113 155.448 20.4594C157.45 20.4072 159.441 20.5891 161.437 20.6485C162.298 20.5523 163.17 20.6082 164.012 20.8139C165.263 20.8139 166.517 20.8474 167.766 20.7897C168.078 20.7128 168.398 20.6656 168.719 20.6492C169.041 20.6771 169.365 20.6833 169.688 20.6682C171.007 20.6749 172.317 20.571 173.628 20.471C174.689 20.5486 175.755 20.4918 176.802 20.3015C176.853 20.2844 176.942 20.275 176.966 20.3031C177.216 20.5962 177.545 20.4465 177.84 20.4663C178.152 20.4856 178.466 20.4858 178.777 20.4668C179.043 20.452 179.341 20.5796 179.557 20.3093C179.826 20.548 180.081 20.2483 180.359 20.2839C180.813 20.3378 181.269 20.3397 181.723 20.2893C182.206 20.239 182.616 20.5214 183.104 20.4849C184.641 20.37 186.182 20.5371 187.731 20.333C189.007 20.246 190.287 20.2326 191.566 20.2927C192.034 20.3084 192.5 20.2671 192.957 20.1699C193.391 19.9951 193.86 19.9228 194.326 19.9579C194.837 20.0628 195.289 19.758 195.848 19.7655Z" fill="#212222"/>
<path d="M169.869 14.1436C169.78 14.1482 169.691 14.1407 169.604 14.1214C169.325 14.0117 169.165 14.3005 168.906 14.3154C168.63 14.3312 168.479 14.0838 168.206 14.1109C167.973 14.1339 167.703 14.2242 167.484 14.0141C167.332 13.8676 166.93 14.0864 166.963 13.6591C166.862 13.6182 166.753 13.599 166.644 13.6028C166.535 13.6066 166.428 13.6334 166.33 13.6813C165.904 13.8908 165.468 14.0791 165.05 14.3007C164.979 14.3442 164.919 14.4019 164.872 14.47C164.825 14.5382 164.792 14.6154 164.776 14.6967C164.76 14.7781 164.761 14.862 164.779 14.943C164.797 15.024 164.831 15.1004 164.88 15.1674C165.268 15.8505 165.469 16.6245 165.464 17.411C165.379 17.7305 165.231 18.0298 165.031 18.2919C164.83 18.5539 164.58 18.7733 164.294 18.9376C163.589 19.1908 162.86 19.3695 162.119 19.4708C161.151 19.616 160.171 19.6585 159.195 19.5977C158.758 19.5977 158.339 19.4234 158.03 19.1131C157.576 18.6813 157.231 18.1459 157.026 17.5521C156.844 17.0689 156.814 16.5373 156.655 16.0381C156.572 15.7781 156.588 15.4185 156.508 15.3389C156.424 15.2671 156.356 15.1787 156.308 15.0793C156.259 14.9799 156.232 14.8715 156.227 14.761C156.216 14.5435 155.949 14.6263 155.811 14.6624C155.699 14.6916 155.686 14.8535 155.783 14.9398C156.022 15.1537 155.869 15.4229 155.898 15.6637C155.921 15.8491 156.278 16.0107 155.948 16.225C156.229 16.6676 155.97 17.0887 155.913 17.5236C155.881 17.731 155.801 17.9278 155.679 18.0983C155.557 18.2688 155.398 18.4083 155.213 18.5057C154.54 18.9379 153.736 19.0547 153.026 19.4171C152.719 19.5736 152.287 19.4474 151.907 19.5934C151.619 19.704 151.277 19.6106 150.951 19.7629C150.703 19.8786 150.379 19.8035 150.083 19.9322C149.969 19.9933 149.839 20.0167 149.712 19.9992C149.584 19.9818 149.465 19.9242 149.372 19.8349C149.34 19.812 149.304 19.7973 149.265 19.7923C149.227 19.7873 149.188 19.792 149.152 19.8061C148.778 20.205 148.504 19.7913 148.217 19.6735C148.052 19.6056 147.952 19.3852 147.715 19.4379C147.663 19.4381 147.614 19.4196 147.575 19.3859C147.625 19.0356 147.297 18.8651 147.206 18.5931C146.858 17.7227 146.625 16.8101 146.513 15.8788C146.498 15.6482 146.19 15.4756 146.386 15.1944C146.558 14.9471 146.272 14.7242 146.333 14.4597C146.367 14.2047 146.371 13.9466 146.344 13.6907C146.336 13.276 146.628 12.9043 146.515 12.4755C146.476 12.034 146.546 11.5895 146.719 11.1819C146.782 10.7881 146.884 10.4018 147.024 10.0289C147.153 9.78604 147.33 9.57252 147.544 9.4019C147.771 9.20813 147.922 8.93487 148.31 8.96116C148.577 8.96592 148.838 8.88253 149.053 8.72379C149.412 8.52281 149.82 8.43031 150.23 8.45743C151.159 8.35784 152.095 8.33417 153.019 8.18649C153.199 8.15768 153.354 8.44987 153.564 8.1794C153.681 8.02862 153.964 8.07382 154.125 8.13538C154.537 8.21208 154.954 8.25759 155.373 8.27147C155.825 8.32842 156.281 8.3356 156.734 8.29291C156.978 8.28294 157.221 8.33753 157.439 8.45127C157.76 8.62368 158.068 8.89123 158.486 8.81221C158.512 8.8139 158.538 8.8212 158.562 8.83363C158.585 8.84609 158.606 8.86339 158.622 8.88444C158.694 8.99404 158.791 9.08501 158.905 9.14992C159.018 9.21481 159.146 9.25181 159.276 9.2579C159.502 9.18998 159.717 9.09026 159.916 8.96168C160.537 8.6357 161.229 8.46866 161.93 8.47533C162.419 8.45499 162.904 8.36946 163.372 8.22097C163.53 8.21331 163.685 8.17604 163.83 8.11108C164.083 7.93524 164.214 8.38811 164.494 8.18191C164.603 8.12492 164.726 8.09992 164.849 8.10972C164.971 8.11952 165.088 8.16374 165.187 8.23735C165.406 8.35916 165.811 8.1801 165.995 8.3194C166.219 8.48959 166.466 8.41271 166.681 8.54725C166.876 8.68768 167.1 8.7835 167.336 8.82799C167.678 8.87514 167.822 9.27054 168.116 9.47876C168.236 9.18343 168.373 8.92183 168.793 8.96888C169.215 9.04454 169.647 9.04168 170.067 8.96042C170.89 8.80666 171.728 8.75679 172.562 8.81197C173.386 8.7927 174.212 8.80937 175.037 8.8073C175.871 8.80522 176.683 9.02039 177.526 9.01152C178.053 9.06632 178.56 9.23665 179.014 9.51047C179.165 9.55728 179.293 9.65787 179.375 9.79336C179.458 9.92885 179.489 10.0899 179.461 10.2463C179.602 10.4153 179.704 10.6123 179.764 10.8243C179.824 11.0363 179.838 11.2585 179.806 11.4764C179.794 11.8384 179.686 12.1907 179.494 12.4972C179.302 12.8038 179.031 13.0536 178.712 13.2214C178.443 13.3391 178.155 13.4059 177.862 13.4184C177.314 13.4501 176.767 13.5124 176.226 13.6051C175.527 13.6884 175.244 14.1213 175.484 14.8328C175.515 14.9073 175.532 14.9871 175.534 15.0679C175.52 15.3385 175.232 15.5916 175.379 15.8458C175.482 16.068 175.537 16.3095 175.54 16.5544C175.575 16.8263 175.552 17.1026 175.474 17.365C175.395 17.6273 175.261 17.8698 175.081 18.0765C174.949 18.3054 174.766 18.501 174.547 18.6484C174.329 18.7958 174.079 18.8913 173.818 18.9274C173.159 19.4367 172.387 19.2336 171.656 19.2695C171.498 19.2486 171.346 19.2083 171.199 19.1492C170.954 19.1057 170.756 18.924 170.517 18.9333C170.086 18.9502 169.888 18.7158 169.724 18.3536C169.458 17.7045 169.402 16.9881 169.562 16.3051C169.607 16.2086 169.732 16.1157 169.722 16.0335C169.644 15.4118 170.029 14.8395 169.869 14.1436ZM148.288 18.7586C148.915 18.7406 149.517 18.6824 150.119 18.6226C150.822 18.4638 151.542 18.3928 152.263 18.4116C152.347 18.424 152.416 18.3598 152.487 18.3407C153.113 18.1724 153.581 17.6979 154.18 17.4773C154.4 17.3962 154.363 17.1623 154.375 16.9616C154.374 16.8932 154.359 16.8259 154.329 16.7644C154.299 16.7029 154.256 16.6488 154.203 16.606C154.262 16.5676 154.309 16.5136 154.338 16.4499C154.368 16.3863 154.38 16.3156 154.372 16.2457C154.355 16.1049 154.425 15.9203 154.358 15.8247C154.185 15.473 154.13 15.0742 154.202 14.6886C154.193 13.9367 154.394 13.6305 155.098 13.4511C155.51 13.346 155.888 13.1546 156.314 13.0733C156.705 12.9989 157.067 12.8143 157.358 12.5411C157.645 12.2531 158.076 11.9103 157.929 11.4356C157.847 11.12 157.794 10.7973 157.773 10.4718C157.755 10.324 157.671 10.1089 157.558 10.0609C157.1 9.86454 156.768 9.43166 156.17 9.47633C155.262 9.53801 154.351 9.54016 153.442 9.48276C152.515 9.43011 151.624 9.78668 150.697 9.66726C149.92 9.69964 149.165 9.93543 148.506 10.3513C148.368 10.4049 148.429 10.5398 148.387 10.6279C148.191 11.0374 148.265 11.541 147.952 11.9025C147.86 12.008 147.943 12.0356 147.988 12.0872C148.042 12.1536 148.075 12.2344 148.084 12.3195C148.093 12.4046 148.076 12.4904 148.037 12.5664C147.834 12.907 148.02 13.3567 147.85 13.5963C147.596 13.9552 148.097 14.3338 147.71 14.6052C148.067 14.9579 147.695 15.3138 147.721 15.6623C147.77 16.1761 147.846 16.6869 147.951 17.1924C148.044 17.6945 148.165 18.1913 148.288 18.7586ZM161.111 18.3973C161.733 18.5754 162.361 18.2031 163.032 18.2284C163.409 18.2427 163.505 17.6916 163.904 17.6649C163.937 17.3013 164.07 16.8308 163.863 16.6009C163.748 16.4619 163.664 16.2993 163.617 16.1244C163.57 15.9495 163.562 15.7665 163.593 15.5881C163.591 15.5186 163.574 15.4505 163.542 15.3887C163.51 15.327 163.465 15.2733 163.41 15.2318C163.323 15.1636 163.263 15.0674 163.238 14.9594C163.184 14.5488 163.284 14.1327 163.517 13.7914C163.751 13.4502 164.102 13.2081 164.503 13.1119C164.745 13.0797 164.972 12.9787 165.159 12.8209C165.338 12.679 165.622 12.7517 165.802 12.5136C166.084 12.1404 166.671 12.1103 166.862 11.6094C166.9 11.511 167.013 11.5505 167.092 11.5543C167.326 11.5656 167.438 11.4441 167.292 11.2624C167.144 11.0401 167.056 10.7834 167.035 10.5169C167.017 10.3776 166.965 10.245 166.883 10.1307C166.802 10.0165 166.694 9.92413 166.569 9.86187C166.034 9.63555 165.479 9.45863 164.912 9.3333C164.617 9.26257 164.18 9.42947 164.011 9.27048C163.649 8.93221 163.471 9.38082 163.176 9.34784C161.958 9.31162 160.746 9.53587 159.621 10.0057C159.47 10.0539 159.44 10.2113 159.498 10.2577C159.754 10.4611 159.641 10.7282 159.656 10.9689C159.673 11.225 159.66 11.483 159.66 11.7402V12.7984C159.567 12.9334 159.488 13.0728 159.294 13.0987C158.589 13.1928 158.209 13.8661 157.57 14.0907C157.439 14.1371 157.397 14.2714 157.49 14.4391C157.883 15.1456 158.1 15.9374 158.123 16.7467C158.126 16.8587 158.112 16.968 158.218 17.0513C158.528 17.2967 158.6 17.6952 158.786 18.0174C158.869 18.1612 158.999 18.4077 159.058 18.3922C159.37 18.3088 159.589 18.7233 159.838 18.5713C160.237 18.3277 160.65 18.4578 161.111 18.3973ZM178.095 12.26C178.095 11.8759 178.073 11.5637 178.102 11.2567C178.118 11.0937 178.101 10.9291 178.053 10.7728C178.005 10.6165 177.924 10.4716 177.819 10.3468C177.705 10.2314 177.568 10.1428 177.417 10.0878C177.264 10.0327 177.103 10.0125 176.942 10.0286C175.818 10.0848 174.715 9.86807 173.601 9.83921C173.088 9.82598 172.578 9.83697 172.065 9.83697C170.985 9.83697 169.905 9.83425 168.825 9.83867C168.512 9.83995 168.499 9.86898 168.609 10.1673C168.757 10.575 168.791 11.0154 168.708 11.4412C168.703 11.4982 168.703 11.5555 168.707 11.6125C168.736 11.7975 168.701 11.9868 168.608 12.149C168.515 12.3112 168.369 12.4366 168.196 12.5043C168.081 12.5511 168.023 12.6331 168.139 12.8126C168.25 12.9831 168.288 13.1109 168.533 13.1032C169.214 13.0818 169.897 13.1065 170.579 13.0904C170.689 13.0749 170.801 13.0988 170.895 13.1578C170.989 13.2168 171.059 13.3072 171.094 13.4131C171.167 13.6119 171.321 13.7723 171.278 14.028C171.224 14.3479 171.189 14.6727 171.137 14.9901C171.079 15.3373 170.99 15.6857 170.906 16.0213C170.834 16.307 170.884 16.6249 170.666 16.8945C170.59 17.0119 170.548 17.148 170.545 17.2879C170.541 17.4277 170.577 17.5658 170.646 17.6869C170.735 17.876 170.782 18.1781 171.15 18.0801C171.34 18.0269 171.543 18.0393 171.724 18.1154C172.028 18.2354 172.355 18.2768 172.677 18.2356C172.999 18.1944 173.308 18.072 173.57 17.8796C173.727 17.7937 173.863 17.6712 173.964 17.5226C174.067 17.374 174.132 17.2032 174.156 17.0243C174.254 16.5762 174.248 16.1115 174.142 15.6654C174.05 15.1201 173.997 14.5688 173.985 14.0158C173.889 13.5762 174.449 13.4757 174.365 13.0361C174.32 12.8055 174.679 12.9502 174.85 12.8686C175.27 12.6446 175.726 12.4964 176.197 12.4308C176.815 12.2671 177.458 12.2093 178.095 12.26Z" fill="#212222"/>
<path d="M22.7493 18.9273C22.38 18.9273 22.0105 18.9341 21.6414 18.9255C21.2667 18.9057 20.9049 18.7802 20.5979 18.5634C20.4265 18.4376 20.242 18.3314 20.0473 18.2465C19.3105 17.8894 18.7244 17.28 18.3946 16.5277C18.3413 16.429 18.3082 16.3205 18.297 16.2088C18.2859 16.097 18.297 15.9842 18.3298 15.8768C18.4648 15.2549 18.6596 14.6463 18.8269 14.0313C18.8478 13.9543 18.8163 13.8736 18.8918 13.7997C19.6513 12.815 20.6803 12.0743 21.8525 11.6684C22.2552 11.5527 22.6771 11.5193 23.093 11.5699C23.5089 11.6206 23.9104 11.7544 24.274 11.9635C25.1601 12.0946 25.3405 13.0143 25.936 13.4731C26.1058 13.6039 25.8879 13.9401 26.169 14.0567C25.9511 14.2802 26.4905 14.4702 26.197 14.697C26.2676 14.7709 26.3073 14.8692 26.308 14.9717C26.3087 15.0741 26.2701 15.1729 26.2006 15.2477C26.0165 15.5202 26.2677 15.9245 26.0263 16.2893C25.8861 16.5012 25.9691 16.8425 25.7199 17.1091C25.5624 17.3185 25.442 17.5534 25.3637 17.8037C25.1512 18.3646 24.6015 18.495 24.261 18.8727C24.1674 18.9763 24.0483 18.9224 23.9424 18.9243C23.5449 18.9316 23.147 18.9273 22.7493 18.9273ZM24.9737 15.1311C24.9306 14.6153 24.8025 14.1103 24.5941 13.6369C24.5396 13.4702 24.4438 13.3203 24.3156 13.2011C24.1876 13.0819 24.0315 12.9974 23.8621 12.9555C23.5219 12.8841 23.3218 12.8077 23.2147 12.4588C23.1557 12.2665 22.9378 12.2221 22.7205 12.2338C22.1068 12.2759 21.5196 12.5013 21.0345 12.8812C20.5316 13.2988 20.0663 13.7605 19.6444 14.2607C19.469 14.4293 19.3617 14.6572 19.3428 14.9005C19.3223 15.2989 19.325 15.6981 19.3511 16.0962C19.3766 16.3534 19.4347 16.7517 19.5937 16.8218C19.9549 16.981 20.1212 17.3151 20.4147 17.5137C20.7423 17.7353 21.1992 17.6812 21.4816 18.0469C21.5628 18.1517 21.8676 18.0525 22.0311 18.1297C22.3048 18.2589 22.5044 18.0238 22.7674 18.0562C23.6784 18.1683 24.1397 17.5429 24.5554 16.8674C24.5917 16.8085 24.6385 16.7726 24.5924 16.7459C24.311 16.5828 24.693 16.4966 24.634 16.3563C24.5415 16.1356 24.7272 15.9805 24.817 15.8382C24.9402 15.6243 24.9951 15.3774 24.9737 15.1311Z" fill="#212222"/>
<path d="M150.716 14.2955C150.51 14.3303 150.3 14.3218 150.098 14.2704C149.896 14.2191 149.707 14.126 149.542 13.9971C149.232 13.7177 149.134 13.5183 149.325 13.1255C149.44 12.8896 149.358 12.5484 149.671 12.4124C149.74 11.8643 150.21 11.6044 150.502 11.2141C150.743 10.8919 151.118 10.892 151.411 10.7075C151.53 10.6329 151.831 10.6369 151.892 10.7208C152.241 11.1978 152.881 11.132 153.277 11.5396C153.605 11.8786 153.691 11.9825 153.52 12.409C153.464 12.5474 153.282 12.6921 153.506 12.8744C153.584 12.9381 153.463 13.0733 153.376 13.1488C153.036 13.5146 152.624 13.8053 152.166 14.0027C151.708 14.2001 151.214 14.2998 150.716 14.2955ZM152.327 12.5264C152.01 12.1583 151.514 12.3663 151.197 12.0726C151.157 12.0354 150.992 12.0352 150.982 12.1328C150.964 12.3208 150.836 12.4179 150.737 12.5487C150.649 12.6543 150.601 12.7872 150.6 12.9247C150.599 13.0622 150.646 13.1956 150.733 13.3022C150.847 13.4001 150.994 13.4513 151.144 13.4456C151.295 13.4399 151.438 13.3778 151.545 13.2715C151.814 13.0239 152.075 12.7677 152.327 12.5264Z" fill="#212222"/>
<path d="M162.628 10.5376C163.118 10.4606 163.555 10.5042 163.748 11.024C163.811 11.1943 164.056 11.3526 163.918 11.5381C163.734 11.7836 163.838 12.1222 163.58 12.3417C163.335 12.5969 162.999 12.7448 162.646 12.7534C162.386 13.1401 161.876 12.7214 161.608 13.0801C161.32 12.886 160.987 12.7719 160.642 12.7493C160.554 12.7424 160.529 12.6719 160.508 12.5769C160.393 12.0654 160.695 11.6143 160.716 11.1183C160.722 10.9864 160.957 10.6823 161.192 10.7071C161.699 10.7607 162.14 10.3878 162.628 10.5376ZM161.773 12.2378C161.961 12.2726 162.156 12.2592 162.338 12.1987C162.52 12.1383 162.684 12.0327 162.815 11.8919C162.867 11.832 162.895 11.756 162.897 11.677C162.894 11.5922 162.819 11.5676 162.727 11.5461C162.222 11.4274 161.78 11.7642 161.285 11.7349C161.175 11.7284 161.196 11.9127 161.196 12.0204C161.197 12.1357 161.2 12.2473 161.365 12.2389C161.477 12.2332 161.589 12.2378 161.773 12.2378Z" fill="#222222"/>
<path d="M152.327 12.5263C152.075 12.7676 151.814 13.0238 151.545 13.2715C151.438 13.3778 151.295 13.4399 151.144 13.4456C150.994 13.4513 150.847 13.4001 150.732 13.3022C150.646 13.1956 150.599 13.0622 150.6 12.9247C150.601 12.7872 150.649 12.6543 150.737 12.5487C150.836 12.4178 150.963 12.3208 150.982 12.1328C150.992 12.0352 151.157 12.0354 151.197 12.0726C151.514 12.3662 152.01 12.1583 152.327 12.5263Z" fill="#FAFAFA"/>
<path d="M161.772 12.2379C161.589 12.2379 161.477 12.2333 161.365 12.239C161.2 12.2475 161.196 12.1358 161.196 12.0205C161.196 11.9129 161.175 11.7286 161.285 11.7351C161.78 11.7643 162.222 11.4275 162.727 11.5462C162.819 11.5678 162.894 11.5924 162.896 11.6772C162.895 11.7562 162.866 11.8322 162.815 11.892C162.684 12.0329 162.52 12.1384 162.338 12.1988C162.156 12.2593 161.961 12.2727 161.772 12.2379Z" fill="#FCFCFD"/>
</svg>
