<svg width="171" height="128" viewBox="0 0 171 128" fill="none" xmlns="http://www.w3.org/2000/svg">
<path d="M146.004 79.7011C146.14 79.7494 146.259 79.8332 146.351 79.9437C146.443 80.054 146.505 80.187 146.528 80.329C146.557 80.5534 146.652 80.764 146.8 80.9341C146.865 80.9913 146.839 81.1486 146.855 81.2543C147.134 81.4736 147.354 81.76 147.496 82.087C147.352 82.4804 147.428 82.9759 147.131 83.3795C146.822 83.5402 146.522 83.7234 146.201 83.8552C145.858 83.9962 145.56 83.6048 145.182 83.751C145.162 83.8056 145.157 83.9145 145.099 83.965C144.298 84.2698 143.477 84.5241 142.643 84.7262C142.54 84.9176 142.617 85.1322 142.591 85.3308C142.625 85.4054 142.692 85.406 142.751 85.4342C143.109 85.5735 143.408 85.8344 143.596 86.1715C143.738 86.4158 143.933 86.6237 144.168 86.7783C144.295 86.8799 144.411 86.9949 144.513 87.1219C144.737 87.362 144.806 87.7139 145.177 87.8659C145.46 87.9814 145.661 88.2987 145.911 88.5386L146.23 88.5739C146.199 88.9057 146.754 88.9658 146.545 89.3294C146.961 89.8048 147.439 90.2227 147.965 90.5718C147.994 90.7388 147.989 90.9103 147.948 91.0748C147.907 91.2394 147.831 91.3934 147.727 91.5264C147.155 91.9144 146.548 92.2466 145.913 92.5184C145.278 92.8324 144.607 93.0658 143.913 93.2134L143.794 93.1017C143.6 93.365 143.313 93.1786 143.07 93.2608C142.941 93.412 142.71 93.4103 142.563 93.5337C142.425 93.6492 142.118 93.5841 142.155 93.8947C141.961 93.9374 141.829 94.1237 141.6 94.1003C141.368 94.0857 141.135 94.0836 140.902 94.0944C140.243 94.3522 139.8 94.8833 139.125 94.9494C138.663 95.4278 137.992 95.4165 137.446 95.6783C136.794 95.9915 136.116 96.2313 135.464 96.5313C135.268 96.6214 134.996 96.5633 134.864 96.7936C134.315 96.8502 133.782 97.0167 133.297 97.2834C132.312 97.6329 131.322 97.9796 130.35 98.3647C129.234 98.8068 128.082 99.1414 126.967 99.5914C126.328 99.8885 125.651 100.093 124.955 100.199C124.91 100.203 124.866 100.216 124.826 100.237C124.786 100.258 124.751 100.288 124.722 100.323C124.452 100.555 124.123 100.706 123.772 100.759C123.143 100.879 122.543 101.116 122.001 101.458C121.625 101.683 121.21 101.833 120.777 101.901C120.155 102.036 119.561 102.279 119.022 102.619C118.739 102.74 118.444 102.829 118.142 102.885C117.656 103.077 117.148 103.205 116.666 103.424C116.331 103.602 115.947 103.666 115.572 103.606C115.025 103.954 114.419 104.197 113.784 104.323C113.517 104.355 113.323 104.557 113.057 104.625C112.696 104.717 112.345 104.842 111.977 104.93C111.64 105.011 111.297 105.208 110.941 105.317C110.919 105.323 110.886 105.308 110.872 105.319C110.48 105.563 110.052 105.741 109.604 105.848C108.946 106.08 108.297 106.343 107.629 106.542C107.108 106.69 106.607 106.897 106.133 107.159H105.479C105.426 107.209 105.384 107.278 105.324 107.301C104.202 107.724 103.085 108.163 101.949 108.544C101.664 108.64 101.328 108.622 101.034 108.732C100.77 108.832 100.52 108.973 100.187 109.133H99.6296C99.2008 109.318 98.8749 109.635 98.414 109.579C98.1023 109.843 97.6799 109.86 97.3413 110.065C97.0213 110.261 96.6627 110.386 96.2901 110.429C96.2024 110.44 96.1174 110.468 96.0399 110.512C95.6118 110.732 95.1626 110.908 94.6993 111.038C94.3258 111.159 93.9652 111.318 93.6229 111.511C93.2051 111.758 92.7471 111.929 92.2704 112.016C91.9279 112.083 91.5953 112.193 91.2805 112.344C90.3526 112.664 89.4459 113.043 88.566 113.479C88.1637 113.71 87.6824 113.7 87.2607 113.918C86.7988 114.163 86.3132 114.36 85.8114 114.505C85.2819 114.651 84.751 114.802 84.2386 114.991C83.786 115.118 83.3523 115.305 82.9487 115.546C82.5551 115.53 82.1645 115.624 81.8217 115.819C81.492 115.992 81.1388 116.115 80.7733 116.184C80.291 116.28 79.931 116.655 79.4277 116.706C79.0984 116.775 78.773 116.86 78.4523 116.962C78.0986 117.088 77.7371 117.192 77.3701 117.272C77.0818 117.358 76.8107 117.493 76.5688 117.672H76.0545C75.9264 117.841 75.753 117.97 75.5545 118.044C75.3561 118.118 75.1408 118.133 74.9341 118.088C74.5869 118.428 74.0816 118.34 73.7818 118.672C73.3729 118.651 73.0951 118.95 72.7557 119.098C71.9369 119.456 71.1131 119.804 70.3049 120.185C70.0043 120.327 69.7902 120.127 69.4964 120.065C69.5452 119.812 69.2786 119.612 69.3285 119.314C69.0527 119.024 68.7001 118.77 68.7566 118.31C68.6364 118.197 68.5117 118.273 68.3972 118.239C67.9978 117.338 67.2766 116.622 66.3763 116.23C66.3973 116.006 66.3265 115.731 66.2045 115.67C65.924 115.531 65.815 115.231 65.5792 115.061C65.5193 114.968 65.4934 114.858 65.5059 114.748C65.5182 114.638 65.5683 114.536 65.6473 114.459L65.3707 114.359V113.897C64.9762 113.81 64.9973 113.249 64.5378 113.254V112.639C64.113 112.281 63.7714 111.834 63.5373 111.329C63.3348 110.938 62.9631 110.726 62.694 110.353C62.7471 110.112 62.4854 109.906 62.5111 109.643C62.0838 109.4 61.7163 109.064 61.436 108.658C61.182 108.353 60.9858 107.99 60.7186 107.686C60.6658 107.642 60.6232 107.587 60.5939 107.525C60.5646 107.462 60.5493 107.394 60.549 107.325C60.5542 107.222 60.197 106.825 60.0873 106.737C60.0153 106.68 59.8828 106.606 59.8898 106.556C59.9555 106.081 59.475 106.072 59.2863 105.816V105.52C58.8257 105.202 58.6459 104.622 58.2113 104.326C58.1304 104.192 58.2647 104.199 58.2433 104.08L57.8907 103.39C57.7728 103.253 57.6022 103.385 57.5132 103.319C57.42 103.248 57.342 103.158 57.2842 103.056C57.2261 102.953 57.1893 102.84 57.1759 102.723C57.1256 102.429 56.9698 102.164 56.738 101.978C56.6545 101.895 56.5759 101.806 56.4872 101.728C55.8247 101.096 55.2409 100.386 54.7487 99.6123C54.6097 99.414 54.3961 99.2805 54.3239 99.0157C54.2929 98.9319 54.2353 98.8607 54.16 98.813C54.0847 98.7655 53.9959 98.744 53.9073 98.7521V98.3992C53.4609 98.0137 53.0934 97.5445 52.8254 97.0179C52.6741 96.7913 52.4962 96.5838 52.2957 96.3996C52.1131 96.2459 52.0951 95.9809 51.8195 95.8785C51.5162 95.7659 51.3612 95.4004 51.2529 95.1343C51.1531 94.8863 50.9917 94.6681 50.784 94.5007C50.6244 94.3433 50.5028 94.151 50.429 93.9388C50.1807 93.5467 49.8772 93.1928 49.5277 92.8886V92.6087C49.1205 92.5582 49.2571 91.9684 48.8223 91.9231V91.4571C48.6822 91.3806 48.5401 91.3728 48.4536 91.2461C48.316 91.0443 48.3654 90.6991 48.0145 90.6591C47.9778 90.4138 47.865 90.1865 47.692 90.0096C47.5264 89.8044 47.4273 89.5442 47.2581 89.3427C47.0948 89.1482 47.0533 88.901 46.914 88.7022C46.6981 88.3612 46.4616 88.034 46.2057 87.7224C46.004 87.4995 45.9599 87.1108 45.5729 87.0701C45.643 86.8836 45.3832 86.8297 45.4147 86.6337C45.4567 86.3706 45.2292 86.3056 45.0357 86.2544C44.9931 86.1538 45.0929 86.1443 45.0991 86.1291C45.2383 85.8678 44.8491 85.7505 45.0017 85.5252C44.9923 85.5033 44.9794 85.4831 44.9637 85.4652C44.4262 85.0064 44.0015 84.4291 43.7226 83.7783C43.5872 83.5026 43.246 83.3317 43.3083 82.9171C42.7232 82.7521 42.9643 81.9226 42.3726 81.7249C42.1565 81.2203 41.908 80.7302 41.6292 80.2577C41.3845 79.7864 40.9242 79.4463 40.8803 78.9001C40.7543 78.8868 40.6773 78.9174 40.6228 78.8233V78.2875C40.3668 77.988 40.1904 77.6489 39.9731 77.3395C39.7775 77.122 39.652 76.8499 39.6138 76.5592C39.5943 76.453 39.5443 76.355 39.4701 76.2768C38.9856 75.8825 38.9566 75.2445 38.635 74.7685C38.3373 74.3276 38.2138 73.7758 37.7856 73.4173V73.0047C37.5402 72.8519 37.4976 72.4931 37.2255 72.2945V71.7653L36.0915 70.1589L36.2302 70.0004C36.2228 69.5609 35.7452 69.4076 35.6631 69.0195C35.5875 68.6629 35.2335 68.4565 35.1902 68.1028C35.0962 68.0853 35.0149 68.129 34.9728 68.0243L35.0526 67.9306C34.5562 66.976 34.1243 65.989 33.7598 64.9762L33.3049 64.5195C33.2216 64.1765 33.0923 63.8464 32.9209 63.5382C32.7888 63.4038 32.6879 63.242 32.6252 63.0639C32.5626 62.8858 32.5398 62.6961 32.5585 62.5082C32.4068 62.3381 32.1307 62.1564 32.1539 62.0307C32.2216 61.6653 31.6806 61.5804 31.8721 61.2052C31.3175 60.8976 31.2868 60.316 31.1523 59.806C31.0875 59.5601 30.9845 59.4519 30.7756 59.4203C30.6844 59.1232 30.5388 58.8457 30.346 58.6025C30.1321 58.423 30.2918 58.0218 29.9219 57.9961C29.9026 57.7498 29.7517 57.5464 29.7105 57.2993C29.6386 57.0625 29.5087 56.8476 29.3324 56.6746C29.1958 56.5042 29.2076 56.253 28.9425 56.1232C28.8224 56.0643 28.7461 55.7963 28.5874 55.6705L28.7063 55.5513C28.399 55.0151 28.0497 54.5043 27.6617 54.0238C27.5365 53.8817 27.6945 53.6307 27.4632 53.5376C27.5876 53.2471 27.0633 53.3988 27.1724 53.0982C27.239 52.9153 26.9424 52.8083 27.0259 52.5868C27.0428 52.5423 26.9372 52.4343 26.8696 52.3776C26.6961 52.2015 26.5596 51.9922 26.4682 51.7621C26.1948 51.1529 25.8444 50.5816 25.4255 50.0626C25.3254 49.9447 25.2493 49.8082 25.2011 49.661C24.9493 48.95 24.436 48.3779 24.1652 47.6766C24.1267 47.577 24.0013 47.5115 23.9127 47.4267C23.9502 47.0239 23.8624 46.6193 23.6614 46.2686C23.706 46.2413 23.741 46.2005 23.7612 46.1521C23.7813 46.1038 23.7858 46.0501 23.774 45.9989C23.6778 45.8196 23.3886 46.0393 23.2542 45.7849C23.167 45.6199 23.0398 45.4939 23.082 45.2915C23.3048 45.2594 23.4232 45.0778 23.5724 44.9398C23.7137 44.9395 23.8549 44.9397 23.9928 44.9397C24.5102 44.5211 25.1175 44.2294 25.7666 44.0878C26.2638 43.7655 26.8079 43.5231 27.3794 43.3692C27.7891 43.197 28.1761 42.975 28.5318 42.7081C28.9538 42.4781 29.4109 42.3202 29.8844 42.2409C30.1546 42.1544 30.4247 42.0669 30.6918 41.9809C30.5378 41.4428 30.3119 40.9281 30.0205 40.4508L30.1288 40.3422C29.7398 39.9103 30.2676 39.4655 30.1301 39.0181C29.6463 38.9109 29.6463 38.911 29.5829 38.487C29.6303 38.3949 29.6996 38.3157 29.7849 38.2569C29.8699 38.1983 29.9682 38.1616 30.0709 38.1504C30.9441 38.0878 31.7277 37.5021 32.6593 37.726C32.7363 37.7756 32.7946 37.8499 32.8249 37.9366C32.8552 38.0234 32.8558 38.1178 32.8265 38.2049C32.5935 38.4148 32.2976 38.5407 31.9856 38.5627C31.4081 38.5958 30.838 38.709 30.2913 38.8988C30.6893 39.4071 31.0405 39.9508 31.3407 40.5228C31.9269 41.248 32.4287 42.0379 32.8367 42.8774V43.1622C32.9266 43.3286 33.1059 43.368 33.2585 43.4495L33.1022 43.6065L33.4377 43.8249L33.2243 44.0619C33.6069 44.3829 33.7021 44.8842 33.9507 45.3066L33.8665 45.3966C33.8276 45.5918 34.0296 45.4555 34.0737 45.5427C34.1046 45.6499 34.1516 45.7516 34.2132 45.8445C34.2756 45.9132 34.2536 46.0592 34.2696 46.1733C34.5233 46.2086 34.6442 46.4236 34.8146 46.5683V47.3887C34.9578 47.6476 35.0963 47.8739 35.2111 48.1118C35.3213 48.4491 35.4914 48.7633 35.7137 49.0392C35.9629 49.28 35.9283 49.6525 36.144 49.9327C36.2851 50.2265 36.3722 50.5436 36.4008 50.8686L36.7797 51.2228V51.7907C36.9967 52.0529 37.2493 52.2941 37.2225 52.6743C37.212 52.7413 37.2282 52.8095 37.2674 52.8646C37.5356 53.1647 37.713 53.5351 37.7788 53.9328C37.9098 54.2918 38.1702 54.5702 38.3193 54.9158C38.3804 55.0579 38.3302 55.1305 38.2154 55.2299C38.4692 55.6312 38.7304 56.0327 38.9782 56.4422C39.0697 56.5918 39.1431 56.7518 39.1967 56.9188C39.3921 57.5023 39.6469 58.0641 39.957 58.5951C40.2154 59.0023 40.4271 59.4377 40.5877 59.8928C40.6714 60.2738 40.8989 60.6074 41.2223 60.8235C41.3121 60.8984 41.3979 60.9782 41.4311 61.0078C41.4841 61.5209 41.6718 62.0105 41.9748 62.4267C42.3253 62.8109 42.4808 63.3202 42.8205 63.7106C43.0124 63.931 42.95 64.3526 43.3608 64.4031C43.4632 64.6662 43.5884 64.9196 43.7352 65.1608C43.9014 65.3522 44.0871 65.5258 44.2893 65.6785V66.1582C44.362 66.28 44.4406 66.2394 44.4814 66.2474C44.7883 66.5687 44.7038 67.1528 45.2704 67.2926C45.2124 67.6686 45.7456 67.752 45.7061 68.1428C45.9925 68.3169 45.9462 68.8132 46.2954 68.8283C47.0159 70.1087 47.8506 71.3208 48.7891 72.4496C48.8014 72.6032 48.8515 72.7514 48.9349 72.8808C49.0183 73.0101 49.1322 73.1164 49.2668 73.1905C49.4687 73.3121 49.4581 73.5885 49.6352 73.6229C49.9055 73.6755 49.887 73.9162 50.0157 74.054C50.1518 74.1774 50.2363 74.3482 50.2518 74.5318C50.3005 74.728 50.4115 74.9029 50.568 75.03C51.0043 75.4254 51.3413 75.9187 51.552 76.4696C51.6297 76.6918 51.9151 76.7206 51.921 76.9407C51.9267 77.153 52.1319 77.2868 52.0934 77.5245C52.0831 77.5888 52.3833 77.6641 52.3962 77.8705C52.7844 77.9389 52.8336 78.2704 52.9157 78.565C52.9708 78.7625 53.0622 78.8925 53.2965 78.9008C53.4936 79.611 54.2608 80.0138 54.3612 80.8377C54.5896 81.0891 54.9098 81.3198 54.9231 81.7759C54.9258 81.8712 55.1815 82.12 55.2817 82.1353C55.3949 82.1589 55.4969 82.2202 55.571 82.3093C55.6454 82.3983 55.6875 82.5098 55.6908 82.6259C55.7722 83.0404 56.1085 83.303 56.2211 83.6897C56.2518 83.7562 56.3026 83.8116 56.3662 83.8478C56.4297 83.8841 56.5028 83.8996 56.5755 83.8921C56.615 84.3166 56.9613 84.6239 57.0458 85.0672C57.5172 85.6347 57.8791 86.3229 58.4066 86.8917C58.4535 87.0037 58.2596 86.9924 58.3053 87.1064C58.3924 87.3077 58.4384 87.5574 58.7153 87.6247V87.9322C58.8515 88.087 59.0031 88.2276 59.1676 88.3516C59.3172 88.4454 59.2076 88.7718 59.5038 88.7031C59.5962 88.9018 59.6614 89.1122 59.6975 89.3285C59.6975 89.5006 59.7397 89.67 59.8206 89.8216C59.9014 89.9732 60.0182 90.1025 60.1607 90.1978C60.4651 90.4028 60.663 90.7183 60.974 90.9008L60.8352 91.0613L61.1091 91.159V91.5598C61.5308 92.0855 61.8863 92.6423 62.3386 93.1264C62.461 93.282 62.5471 93.4632 62.5902 93.6567C62.7225 93.9895 62.9273 94.2882 63.1899 94.5307C63.3078 94.6391 63.382 94.7873 63.3985 94.9468C63.4167 95.2 63.6395 95.2489 63.8805 95.2294C64.1164 95.5954 64.1276 96.0634 64.4962 96.5056L64.913 96.6963C64.9667 96.7754 64.8475 96.78 64.8324 96.8391C65.0512 97.3705 65.4395 97.8138 65.9362 98.0995V98.5809C66.1132 98.6682 66.2694 98.7923 66.3951 98.9447C66.5208 99.097 66.6129 99.2745 66.6652 99.4654C66.8829 99.5029 67.0864 99.5995 67.2537 99.7444C67.421 99.8895 67.546 100.077 67.6151 100.288C67.6615 100.442 67.759 100.575 67.8911 100.665C68.0937 100.794 68.024 100.995 68.0908 101.182C68.5897 101.11 68.6351 101.521 68.8109 101.883C68.9965 101.944 69.3374 101.876 69.3333 102.298C69.3302 102.625 69.7047 102.673 69.876 102.882C70.0191 103.024 70.1714 103.156 70.3318 103.278C70.5253 103.451 70.6928 103.653 70.8867 103.825C71.0597 104.011 71.2483 104.182 71.4503 104.336C71.6399 104.484 71.8 104.668 71.9221 104.877C72.0572 105.068 72.3355 105.104 72.425 105.294C72.5422 105.493 72.6935 105.669 72.8719 105.815C73.0007 105.947 72.9864 106.224 73.2589 106.213C73.2238 106.48 73.6049 106.429 73.6118 106.697C73.6168 106.888 73.9412 106.808 73.9956 107.018C74.0519 107.236 74.2679 107.328 74.3905 107.493C74.4964 107.637 74.5604 107.865 74.6977 107.922C75.1193 108.096 75.2343 108.487 75.4593 108.846H76.0694C76.4899 108.581 76.955 108.395 77.4416 108.297C77.7467 108.236 78.0349 108.109 78.286 107.924C78.4205 107.791 78.7107 107.781 78.8844 107.687C79.1546 107.541 79.4757 107.664 79.7094 107.449C79.9418 107.282 80.2062 107.165 80.4861 107.105C80.9597 106.94 81.4223 106.735 81.9059 106.61C82.129 106.552 82.3061 106.428 82.5113 106.359C82.8427 106.248 83.1114 105.942 83.5066 106.028C84.2812 105.617 85.1491 105.448 85.9397 105.065C86.323 104.856 86.7239 104.682 87.1378 104.543C87.5381 104.431 87.937 104.312 88.3308 104.178C88.94 104.005 89.538 103.794 90.1215 103.547C90.4361 103.396 90.7973 103.377 91.1296 103.249C91.7602 103.006 92.3636 102.682 93.0106 102.498C93.8602 102.217 94.6949 101.894 95.5114 101.527C95.8597 101.388 96.2283 101.331 96.5826 101.213C97.1852 101.012 97.7425 100.705 98.3513 100.525C99.2318 100.266 100.038 99.7858 100.915 99.5511C101.499 99.395 102.011 99.11 102.567 98.9143C103.306 98.6542 104.037 98.3643 104.77 98.0865C105.381 97.855 106.022 97.6912 106.649 97.4945C107.25 97.3056 107.815 96.9927 108.42 96.8229C109.225 96.5973 109.966 96.2227 110.748 95.9482C110.836 95.9122 110.917 95.8612 110.988 95.7975C111.321 95.8275 111.655 95.7467 111.938 95.5678C112.408 95.2525 112.997 95.1633 113.478 94.8523C113.964 94.8874 114.277 94.5031 114.68 94.3367C115.083 94.1703 115.496 93.995 115.901 93.8738C116.665 93.6449 117.328 93.211 118.067 92.9476C118.606 92.6574 119.172 92.4206 119.756 92.2406C120.448 91.8178 121.193 91.4899 121.971 91.2654C122.358 91.0029 122.809 90.8511 123.275 90.8267C123.379 90.5808 123.694 90.7917 123.809 90.5823C123.92 90.3804 124.156 90.4633 124.286 90.3717C124.838 90.0537 125.438 89.8277 126.062 89.7021C126.388 89.6034 126.65 89.403 126.953 89.2868C127.255 89.2251 127.548 89.1265 127.826 88.9936C127.908 88.9384 128.031 88.9114 128.106 88.8248C128.232 88.62 128.405 88.4489 128.612 88.3265C128.818 88.2042 129.051 88.1341 129.29 88.1225C129.435 88.0734 129.574 88.0088 129.705 87.9299C129.718 87.8181 129.731 87.7063 129.743 87.5989C129.797 87.5833 129.861 87.547 129.878 87.5625C130.25 87.9051 130.633 87.6316 130.946 87.5073C131.455 87.3048 131.954 87.1023 132.484 86.9424C132.976 86.7942 133.458 86.5626 133.965 86.4296C134.07 86.402 134.112 86.3272 134.186 86.2788C134.835 85.9145 135.505 85.5913 136.194 85.3109C136.674 85.0768 137.21 84.9244 137.715 84.7167C137.999 84.5995 138.168 84.2588 138.53 84.2916C139.167 83.9467 139.851 83.6999 140.561 83.5588C141.21 83.3502 141.865 83.1681 142.523 82.9953C142.796 82.9207 143.078 82.879 143.361 82.8709C143.714 82.5424 144.249 82.6283 144.567 82.2299C144.557 81.9987 144.478 81.7759 144.338 81.5922C144.198 81.4086 144.004 81.2728 143.784 81.2036C143.748 80.9815 143.671 80.768 143.558 80.5734L143.708 80.3934C143.678 80.278 143.566 80.3317 143.484 80.2924C143.399 80.1085 143.49 79.8037 143.181 79.7488C142.958 79.709 142.907 79.5556 142.85 79.3705C142.676 78.9926 142.527 78.6038 142.404 78.2069L142.181 78.1483C142.212 77.9264 142.073 77.7402 142.001 77.5251C141.682 77.4268 141.411 77.217 141.234 76.9341C141.057 76.6511 140.987 76.3139 141.036 75.9834C140.903 75.831 140.726 75.7147 140.685 75.4894C140.651 75.2983 140.353 75.4222 140.308 75.1571C140.278 74.9835 140.046 74.8444 139.901 74.6853V74.1286C139.773 74.0315 139.717 73.8301 139.493 73.9378L139.477 73.5959C139.07 73.2113 138.777 72.7205 138.632 72.1782C138.256 71.9265 138.419 71.306 137.925 71.1349C137.689 70.6884 137.473 70.2299 137.211 69.7995C136.976 69.4935 136.83 69.1282 136.789 68.7441L136.246 68.2478C136.264 67.702 135.793 67.4067 135.715 66.9407C135.638 66.4821 135.15 66.2463 135.034 65.6724L134.668 65.3756V64.7364L134.377 64.6332C134.548 64.2025 134.077 63.9219 134.103 63.4731L133.576 62.9966C133.522 62.3349 132.908 61.9701 132.854 61.4017C132.796 60.7946 132.116 60.4497 132.275 59.8153C132.219 59.6877 132.105 59.734 132.036 59.6938C131.824 59.2307 131.856 58.6758 131.478 58.2872C131.398 58.2046 131.429 58.1153 131.418 58.0268C131.407 57.9372 131.425 57.8187 131.375 57.763C131.055 57.2615 130.776 56.7339 130.543 56.186C130.314 55.7676 130.118 55.3318 129.956 54.8827H129.79C129.635 54.744 129.787 54.5621 129.612 54.2874L129.417 54.1348C129.459 53.752 129.393 53.3652 129.226 53.0187C129.198 52.9838 129.07 53.0603 128.936 53.0304C128.682 52.6126 128.564 52.1254 128.599 51.637C128.151 51.4914 127.99 51.1357 127.806 50.7719C127.567 50.3013 127.394 49.7951 127.147 49.3437C126.96 48.8495 126.738 48.3692 126.483 47.9067C126.395 47.7887 126.293 47.8214 126.198 47.7217V47.1772C125.941 46.8565 125.931 46.4472 125.634 46.3022C125.598 46.1076 125.719 46.0797 125.755 45.9989C125.699 45.9557 125.65 45.9051 125.609 45.8482C125.484 45.6166 125.091 45.6826 125.062 45.3804C125.036 45.1167 124.824 44.9249 124.797 44.7141C124.759 44.4992 124.651 44.3029 124.491 44.1553L124.594 44.0519L123.901 43.3573L124.036 43.1872C123.783 42.6759 123.494 42.1827 123.174 41.7114C123.008 41.4268 122.881 41.122 122.794 40.8044C122.749 40.5375 122.624 40.2911 122.434 40.0993C121.919 39.4231 121.446 38.716 121.017 37.9822H120.694C120.748 37.5868 120.355 37.3319 120.383 36.9125C120.269 36.8796 120.165 36.8188 120.079 36.7351C119.994 36.6515 119.931 36.548 119.896 36.4338C119.829 36.2377 119.769 35.9765 119.409 35.9888C119.435 35.8696 119.422 35.7451 119.372 35.6339C119.322 35.5227 119.238 35.4307 119.132 35.3715C119.09 35.1652 119.218 35.1421 119.256 35.0244C118.989 34.9955 118.689 34.9875 118.664 34.6149C118.393 34.6254 118.416 34.3408 118.275 34.2192C118.132 34.0965 117.933 33.9755 117.886 33.816C117.749 33.343 117.425 32.9664 117.244 32.5008C117.031 32.4363 116.85 32.2934 116.738 32.1007C116.383 31.5698 115.914 31.1366 115.54 30.6243C115.423 30.4166 115.26 30.2387 115.063 30.1043C114.796 29.9476 114.668 29.5677 114.439 29.3217C114.254 29.1019 114.087 28.8664 113.942 28.6178C113.733 28.3839 113.565 28.1159 113.445 27.8252C113.413 27.7065 113.258 27.6196 113.156 27.5207C112.709 27.1268 112.334 26.6584 112.045 26.136C111.98 26.0032 111.773 26.0902 111.775 25.9809C111.781 25.6596 111.39 25.7766 111.33 25.5339C111.277 25.3212 111.207 25.1132 111.121 24.9114C110.897 24.4682 110.594 24.0697 110.229 23.7349C110.049 23.5856 110.069 23.2789 109.823 23.2095C109.572 23.1387 109.594 22.8484 109.393 22.7393C109.183 22.6256 109.21 22.3179 108.991 22.1988C108.917 22.1584 108.95 22.0733 108.926 22.0133C108.841 21.7956 108.853 21.5117 108.67 21.3689C108.492 21.2291 108.443 20.9994 108.25 20.8853C107.98 20.7258 107.928 20.3907 107.703 20.188C107.469 20.0018 107.277 19.768 107.14 19.5018C107.109 19.3829 107.089 19.2613 107.081 19.1387C106.532 18.7268 106.384 18.0479 106.042 17.4009C105.979 17.3483 105.795 17.348 105.721 17.2197C105.745 17.1503 105.754 17.0766 105.749 17.0034C105.744 16.93 105.724 16.8587 105.69 16.7935C105.656 16.7282 105.61 16.6704 105.554 16.6238C105.497 16.5771 105.432 16.5427 105.361 16.5222C105.081 16.4089 105.061 16.1027 104.945 15.8687C104.884 15.753 104.686 15.9 104.678 15.7177L102.529 16.1535C103.015 16.457 102.812 17.0852 103.253 17.4252V17.9996L103.691 18.4391L103.505 18.6426H102.985C102.938 18.6688 102.893 18.6974 102.849 18.7284C102.55 18.9959 102.178 19.1689 101.781 19.2256C101.513 19.3199 101.255 19.4388 101.008 19.5812C100.492 19.6897 100.001 19.8942 99.5599 20.1842C99.0836 20.2089 98.6956 20.5488 98.2579 20.6126C97.6315 20.736 97.0313 20.9675 96.4838 21.2969C96.3663 21.3389 96.2429 21.3621 96.1181 21.3656L95.6904 21.8463C94.5466 22.0811 93.4457 22.4916 92.4263 23.0635C91.8792 23.0396 91.3376 23.1826 90.8729 23.4738C90.4488 23.767 89.9446 23.9209 89.4299 23.9142C88.7105 24.124 88.0138 24.4055 87.3503 24.7545C86.35 24.7384 85.4611 25.4025 84.4787 25.3377C83.7815 25.7031 83.0266 25.9446 82.2473 26.0511C81.8149 26.1242 81.3953 26.2605 81.0022 26.4556C80.602 26.6594 80.1592 26.7637 79.7108 26.7601C79.3218 26.717 79.018 27.0609 78.6262 27.0396C77.7344 27.5358 76.6795 27.5537 75.7771 28.0189C75.2895 28.0458 74.8142 28.1823 74.3863 28.4186C74.2992 28.4412 74.2102 28.455 74.1204 28.4599C73.891 28.4493 73.6609 28.4675 73.4359 28.5144C73.0486 28.6423 72.6781 28.8165 72.332 29.033C71.9264 28.9105 71.5375 29.289 71.1067 29.1584L70.8103 29.4561C70.6328 29.4251 70.4504 29.4352 70.2775 29.4859C70.1045 29.5367 69.9455 29.6266 69.8125 29.7488C69.5047 29.695 69.1878 29.7455 68.9116 29.8923C68.1681 30.0767 67.4366 30.3064 66.7209 30.5802C66.2053 30.4944 65.7812 30.8574 65.2868 30.8756C65.2187 30.8686 65.1503 30.8875 65.0955 30.9286C64.6554 31.2373 64.1165 31.3694 63.5844 31.2993L63.3858 31.5718C62.7433 31.6174 62.1174 31.7988 61.5494 32.1038C61.1799 32.1617 60.8208 32.2728 60.4829 32.4335C60.1643 32.6589 59.7426 32.5291 59.3955 32.7113C59.2678 32.7784 59.0758 32.7222 58.9455 32.7222C58.5542 33.0364 58.0798 33.2285 57.581 33.2747C57.3149 33.3047 57.0516 33.3571 56.7941 33.4313C56.0056 33.762 55.1871 34.0159 54.3503 34.1891C53.5052 34.3549 52.7194 34.7376 51.8635 34.8457C51.6931 34.8897 51.5312 34.9616 51.3841 35.0589C51.0194 35.2717 50.6103 35.3957 50.1895 35.4212C50.1002 35.4229 50.0127 35.4485 49.9365 35.4954C49.4319 35.7562 48.8464 35.8777 48.3779 36.1601C47.7455 36.5414 47.0005 36.4732 46.391 36.8421C46.2186 36.8351 46.047 36.8705 45.8911 36.9451C45.7353 37.0194 45.5998 37.1308 45.4965 37.2696C45.1641 37.2708 44.836 37.345 44.5353 37.4872C43.889 37.8223 43.1861 38.0332 42.4629 38.1093C42.1255 38.1201 41.93 38.461 41.5904 38.4047C40.8254 38.7883 40.0059 39.0504 39.1611 39.1819C38.3705 39.4645 37.5576 39.6797 36.731 39.8254C36.2572 40.096 35.7053 40.1956 35.1674 40.1071C35.007 39.9563 34.8932 39.747 34.6364 39.8289C34.1081 39.3549 33.6544 38.8031 33.2908 38.1924C33.0935 37.9038 32.9464 37.5832 32.8562 37.245C32.7251 36.8542 32.6665 36.4425 32.6834 36.0304C32.7108 35.7353 32.676 35.4378 32.5812 35.1572C32.5078 34.973 32.4927 34.7705 32.5378 34.5773C32.583 34.3842 32.6863 34.2097 32.8336 34.0776V33.511C33.1322 33.1721 33.5389 32.917 33.5549 32.3829C33.5597 32.2234 33.859 32.1643 33.8314 31.9309L34.6136 31.5473C34.7153 31.0623 35.3588 31.078 35.501 30.6927C35.6507 30.5092 35.8112 30.6564 35.9341 30.5405C36.4063 30.1786 36.941 29.9071 37.5111 29.7398C37.5312 29.7314 37.5584 29.7421 37.5814 29.7382C37.9922 29.6684 38.239 29.2881 38.6214 29.1752C39.0119 29.1045 39.3838 28.9539 39.7139 28.7327C39.95 28.5645 40.2302 28.47 40.5194 28.4611C40.7882 28.4514 41.0458 28.3511 41.2508 28.1762L41.675 28.1761C41.7328 27.8922 41.987 27.8354 42.1965 27.7557C42.6039 27.6002 42.9993 27.4166 43.4101 27.2667C44.042 27.0258 44.6575 26.7435 45.2526 26.4216C46.0883 25.9847 46.9054 25.5117 47.7268 25.0478C47.8217 24.9818 47.9089 24.9051 47.9867 24.8196C48.2347 24.5477 48.5154 24.3079 48.8225 24.1055C49.0797 23.9647 49.2002 23.6565 49.3871 23.4294C49.7651 23.0979 50.071 22.6918 50.2859 22.2363C50.3247 22.1093 50.4784 22.0526 50.6488 22.0308C50.6466 21.7408 50.6927 21.4525 50.7854 21.178C51.0521 20.6007 51.1017 19.9445 51.364 19.3594C51.1709 19.0262 51.6134 19.1451 51.6689 18.9268C51.7582 18.5746 52.0321 18.2731 52.1496 17.9237C52.2673 17.5888 52.4394 17.2757 52.6592 16.9974C52.7466 16.9068 52.8148 16.799 52.8592 16.681C52.9038 16.5629 52.9238 16.4369 52.9181 16.3108C53.0997 16.1931 53.1667 15.9113 53.4444 15.9516C53.478 15.8117 53.5391 15.6799 53.6244 15.5641C53.7094 15.4483 53.8169 15.3509 53.9402 15.2777C54.0368 15.2337 54.115 15.1566 54.1606 15.0603C54.206 14.9639 54.2162 14.8545 54.1889 14.7514C54.4918 14.6381 54.7414 14.4148 54.8886 14.1257C54.9291 14.02 54.999 13.9281 55.0897 13.8608C55.3188 13.7366 55.6166 13.6993 55.7927 13.529C55.9583 13.3436 56.1606 13.1948 56.3865 13.0921C56.5332 13.0336 56.7556 12.9819 56.7989 12.7183C56.8264 12.5513 57.0374 12.5237 57.2094 12.5504C57.6512 12.1779 58.1447 11.8721 58.6744 11.6427C59.2422 11.4032 59.7869 11.1117 60.3017 10.7721C60.6576 10.5597 61.0394 10.3944 61.4374 10.2801C61.5211 10.254 61.6061 10.2325 61.6922 10.2157C61.9933 10.1349 62.1359 9.78048 62.5357 9.82538C62.8119 9.85644 63.0626 9.55435 63.405 9.54274C63.6164 9.53563 63.7669 9.22475 64.0234 9.16341C64.4061 9.19558 64.7895 9.10728 65.12 8.91062C65.341 8.73594 65.7126 8.95723 65.9536 8.71323C66.6669 8.67942 67.371 8.53565 68.0409 8.28702C68.4863 8.39568 68.8843 8.08343 69.3262 8.14309C69.5783 8.17714 69.7783 7.95829 70.0464 7.99431C70.2683 7.99499 70.4888 7.95932 70.6994 7.88875C71.1673 7.84131 71.6382 7.83026 72.1079 7.85576C72.4036 7.90657 72.7078 7.86331 72.9778 7.73198C73.1737 7.59808 73.4527 7.76141 73.6783 7.79344C73.8734 7.82113 73.9671 7.64965 74.1514 7.71098C74.943 7.97437 75.826 7.71787 76.5958 8.12989C77.0307 8.1115 77.4232 8.44131 77.8435 8.25507L78.1711 8.56826C78.2195 8.58203 78.2711 8.57704 78.3159 8.5542C78.3608 8.53137 78.3953 8.4923 78.4127 8.445C78.6821 8.57943 78.9602 8.69564 79.2451 8.79257C79.6365 8.95213 79.9954 9.18205 80.3045 9.47122C80.7412 9.78305 81.2191 10.0248 81.6562 10.3367C82.0525 10.6553 82.4851 10.9256 82.9451 11.1415C83.2529 11.266 83.3968 11.6596 83.7488 11.7645C83.8318 11.7892 83.91 11.8302 84.0042 11.8695C84.011 11.9601 84.0415 12.0473 84.0928 12.1223C84.144 12.1972 84.214 12.2572 84.2956 12.2962C84.4941 12.3904 84.5558 12.636 84.7581 12.6849C85.014 12.7469 84.9811 13.0109 85.1256 13.1414C85.2264 13.2324 85.2908 13.3607 85.4407 13.4042C85.9466 13.5509 86.3927 13.9129 86.963 13.8275C87.9485 13.9883 88.9493 14.0343 89.9454 13.9646C90.2421 13.976 90.4938 14.183 90.8074 14.1183C90.9622 14.0863 91.1325 14.1274 91.1791 13.9868C91.3292 13.9478 91.3579 14.0452 91.4163 14.0608C92.078 14.1414 92.748 14.1247 93.4049 14.0117C93.7241 13.9105 94.0554 13.8529 94.3899 13.8401C94.9918 13.7859 95.5866 13.6696 96.1649 13.4931C96.6987 13.3866 97.2482 13.3882 97.7813 13.4978C98.2088 13.5851 98.6512 13.5632 99.0679 13.4341L100.83 14.0037L101.758 14.9447C102.561 14.9767 103.363 14.8622 104.125 14.6065C104.472 14.5287 104.819 14.4533 105.17 14.3989C105.571 14.4063 105.965 14.5092 106.319 14.699C106.412 14.7284 106.491 14.8378 106.621 14.8341C106.659 15.141 106.951 15.2603 107.055 15.4253C107.159 15.8185 107.191 16.1513 107.602 16.2705C107.804 16.329 107.823 16.5493 107.804 16.7347C108.201 17.2302 108.876 17.5351 108.793 18.3128C108.933 18.3592 109.059 18.4393 109.161 18.5456C109.262 18.6522 109.337 18.782 109.377 18.9239C109.413 19.1029 109.488 19.2715 109.597 19.4172C109.706 19.5629 109.847 19.682 110.008 19.7656C110.253 19.8497 110.265 20.0442 110.318 20.1526C110.454 20.5394 110.702 20.8765 111.03 21.1201C111.096 21.1701 111.145 21.2375 111.174 21.3146C111.203 21.3918 111.209 21.4754 111.192 21.5559C111.34 21.6454 111.573 21.6832 111.603 21.8615C111.635 22.0508 111.63 22.1754 111.854 22.2629C111.966 22.3066 111.953 22.62 112.073 22.7132C112.217 22.8255 112.403 22.8611 112.322 23.104C112.509 23.3909 112.862 23.5457 112.953 23.9104H113.228C113.393 24.0053 113.262 24.1766 113.337 24.2914C113.42 24.3177 113.5 24.3521 113.577 24.394C113.871 24.5922 113.778 25.0607 114.207 25.2119C114.56 25.3363 114.559 25.7985 114.735 26.0988C114.901 26.3807 115.009 26.7403 115.417 26.789L115.455 27.1445C115.711 27.2061 116.059 27.1753 115.998 27.5958C115.962 27.8428 116.232 27.6968 116.307 27.8839C116.378 28.0558 116.484 28.2108 116.617 28.3396C116.751 28.4683 116.91 28.5682 117.083 28.6323C117.153 28.8223 117.34 28.9929 117.276 29.2436C117.637 29.3976 117.932 29.6727 118.112 30.0215C118.207 30.1921 118.541 30.2251 118.41 30.5234C118.584 30.6944 118.733 30.8956 118.96 30.9282C118.993 31.1007 118.904 31.1518 118.837 31.2232C118.875 31.2761 118.92 31.3243 118.97 31.3661C119.061 31.4256 119.167 31.4625 119.259 31.5206C119.568 31.7144 119.554 32.1483 119.819 32.343C120.075 32.5312 120.354 32.6714 120.45 33.0007C120.524 33.1921 120.644 33.3622 120.799 33.4959C120.859 33.5598 120.966 33.5959 120.952 33.7153C120.907 34.1266 121.221 34.1247 121.506 34.1841L121.525 34.4927L121.982 34.8609L121.859 35.0066C121.748 35.1077 121.877 35.1232 121.904 35.1652C121.942 35.2233 122.013 35.2607 122.048 35.3199C122.08 35.3745 122.072 35.4534 122.105 35.5081C122.142 35.5685 122.193 35.6197 122.253 35.6578C122.317 35.6891 122.384 35.713 122.454 35.7292C122.614 36.1215 122.818 36.4941 123.062 36.84C123.088 36.8678 123.143 36.8685 123.185 36.8819C123.217 36.9692 123.122 36.9799 123.095 37.0381C123.104 37.1797 123.229 37.096 123.314 37.1632C123.417 37.4901 123.586 37.7917 123.811 38.0498C124.106 38.4636 124.335 38.9208 124.49 39.4054C124.496 39.4506 124.512 39.494 124.535 39.5328C124.559 39.5718 124.59 39.6055 124.628 39.6316C124.665 39.6578 124.707 39.6762 124.751 39.6853C124.796 39.6945 124.842 39.6944 124.886 39.685C124.906 40.3511 125.424 40.649 125.753 41.0273C125.765 41.0785 125.76 41.1321 125.739 41.1803C125.718 41.2284 125.682 41.2682 125.636 41.2938C125.718 41.5441 126.024 41.5033 126.143 41.7006C126.224 41.8298 126.169 41.9732 126.19 42.1456C126.435 42.3735 126.542 42.7482 126.844 42.971C126.918 43.0255 126.871 43.1039 126.895 43.1634C127.108 43.7399 127.376 44.2943 127.695 44.8189C127.823 45.0126 127.698 45.241 127.872 45.4643C128.087 45.7131 128.328 45.9383 128.59 46.1365L128.441 46.3049L128.718 46.4017V47.0116C129.333 47.8539 129.831 48.7761 130.199 49.753L130.576 50.1235C130.424 50.6213 130.856 50.919 131.056 51.304C131.202 51.5857 131.07 51.8561 131.154 52.1297C131.247 52.2049 131.31 52.3585 131.489 52.3257C131.626 52.6703 131.924 52.9603 131.843 53.3808C132.187 53.631 132.188 54.1232 132.538 54.3701C132.513 54.3885 132.494 54.4122 132.48 54.4394C132.466 54.4667 132.459 54.4967 132.459 54.5273C132.459 54.5579 132.466 54.588 132.48 54.6153C132.493 54.6426 132.513 54.6664 132.537 54.6847C132.607 54.7657 132.55 54.9572 132.55 55.0986C133.016 55.1879 132.888 55.6656 133.088 55.9312C133.307 56.2209 133.186 56.6339 133.485 56.9677C133.629 57.0226 133.751 57.1211 133.836 57.2496C133.921 57.3779 133.964 57.5299 133.959 57.6839C133.986 57.9595 133.995 58.2049 134.323 58.3122C134.433 58.3482 134.496 58.5614 134.506 58.6473C134.531 58.9424 134.663 59.2181 134.879 59.4203C134.921 59.4613 134.95 59.5137 134.962 59.5712C134.974 59.6287 134.969 59.6884 134.948 59.7431C134.89 59.9383 135.045 60.0594 135.11 60.1758C135.503 60.8774 135.517 60.8693 135.521 61.3683C136.043 61.6212 135.921 62.4004 136.51 62.6256C136.51 62.7201 136.51 62.8147 136.51 62.9111L136.921 63.3193C136.919 63.3845 136.925 63.4495 136.937 63.5135C136.966 63.8242 137.076 64.1219 137.257 64.3763C137.453 64.6433 137.579 64.9559 137.623 65.285C137.698 65.5491 137.796 65.691 138.077 65.6991L137.972 65.8516C138.05 66.3908 138.608 66.654 138.734 67.2023L138.633 67.3199C139.192 67.7988 139.557 68.4668 139.658 69.1978L140.182 69.7242V70.0299C140.495 70.152 140.503 70.6002 140.876 70.7014L140.91 71.0081C140.967 71.1408 141.115 71.0118 141.158 71.1541L141.048 71.2865C141.145 71.4512 141.35 71.5375 141.336 71.8013C141.358 71.9782 141.447 72.1399 141.585 72.253C141.722 72.38 141.899 72.447 141.975 72.652C142.019 72.8552 142.038 73.063 142.029 73.2708C142.328 73.4473 142.549 73.7308 142.648 74.0645C142.771 74.3677 142.9 74.6697 143.058 74.9897C143.313 75.0768 143.487 75.3291 143.704 75.5335C143.722 75.7776 143.808 76.0111 143.953 76.2081C144.015 76.3015 144.084 76.3904 144.16 76.474C144.314 76.6979 144.203 77.0867 144.505 77.1736C144.821 77.2645 144.806 77.5899 145.034 77.7436C145.182 77.8415 145.296 77.9806 145.364 78.1436C145.434 78.3067 145.452 78.4865 145.419 78.6603C145.49 78.7817 145.569 78.7408 145.652 78.7554C145.54 79.0032 145.787 79.1962 145.69 79.4371L146.082 79.4799C146.164 79.593 146.021 79.5932 146.004 79.7011ZM52.7106 33.0005C53.1496 33.0105 53.5844 32.9119 53.9768 32.7138C54.0728 32.6868 54.1596 32.6103 54.2708 32.5709C55.3457 32.1899 56.4508 31.9122 57.5381 31.5757C57.9806 31.4388 58.4393 31.3953 58.8803 31.235C59.3536 31.0629 59.8005 30.8334 60.2656 30.6478C60.7577 30.4515 61.3404 30.5596 61.7677 30.1702C61.8064 30.1349 61.905 30.167 61.9756 30.1653C62.1489 30.14 62.3199 30.1006 62.4869 30.048C62.9693 29.9625 63.3889 29.6085 63.8787 29.7441C64.0733 29.501 64.3555 29.3449 64.664 29.3094C65.2361 29.2558 65.7945 29.1024 66.3139 28.8556C67.0385 28.5376 67.8009 28.3147 68.5822 28.1923C68.9545 28.1374 69.3215 28.0499 69.6787 27.9312C69.8902 27.8551 70.113 27.6777 70.3845 27.746C70.5776 27.7946 70.7287 27.6291 70.857 27.5379C71.0339 27.4121 71.2566 27.3958 71.3942 27.3014C71.7041 27.0888 72.0816 27.3153 72.3613 27.0549C72.6393 26.7962 73.0808 27.0281 73.3672 26.756C73.7404 26.916 73.9285 26.5183 74.2388 26.465C74.8435 26.2445 75.474 26.1036 76.1147 26.0457C76.3119 25.8578 76.5829 25.9332 76.8113 25.8493C77.1747 25.6983 77.5498 25.5777 77.9328 25.4882C78.3473 25.41 78.6945 25.0542 79.157 25.1932C79.4144 24.9503 79.7852 25.0396 80.0826 24.8583C80.3972 24.7023 80.7338 24.5963 81.0806 24.5443C81.7614 24.2766 82.4772 24.1097 83.2057 24.0486C84.0785 23.5701 85.0264 23.4893 85.8757 23.0655C86.6228 23.1117 87.2853 22.5502 88.0626 22.6419C88.1976 22.5176 88.3597 22.4272 88.536 22.3772C88.7122 22.3275 88.8975 22.3198 89.0771 22.3549C89.2988 22.0029 89.6922 21.9937 90.0009 21.8274C90.6432 21.4967 91.3221 21.2437 92.0235 21.0736C92.4166 21.0321 92.7995 20.923 93.1558 20.7512C93.5135 20.4905 93.9325 20.424 94.2779 20.2049C94.5633 20.0239 94.86 19.8953 95.1482 19.7426C95.4691 19.5725 95.8033 19.4859 96.1157 19.3409C96.3545 19.2828 96.5806 19.1809 96.7826 19.0404C96.989 18.869 97.253 18.7831 97.5203 18.8008C97.8123 18.8092 98.1006 18.7334 98.351 18.5822C98.7069 18.3983 99.0155 18.1468 99.411 17.9645C99.9702 17.8487 100.542 17.8094 101.112 17.8473C101.02 17.7843 100.947 17.6959 100.904 17.5926C100.861 17.4892 100.849 17.3757 100.869 17.2655C100.886 17.1284 100.864 16.9892 100.804 16.865C100.743 16.7407 100.649 16.6367 100.531 16.5655C100.063 16.354 99.9835 15.9142 99.7938 15.5216C99.3165 15.6555 99.364 15.1329 99.0829 14.9592C98.6477 15.0643 98.2321 14.79 97.763 14.8048C97.3245 14.8186 96.9264 15.0616 96.478 14.9679C96.0693 14.936 95.6588 14.9998 95.2786 15.1539C94.8659 15.261 94.4336 15.2933 94.0487 15.4219C93.601 15.5244 93.1404 15.5588 92.6826 15.524C91.8823 15.5554 91.08 15.5206 90.2789 15.5368C89.6656 15.4476 89.0471 15.397 88.4275 15.3853C88.2773 15.4068 88.1648 15.1576 87.9941 15.2526C87.5112 15.5213 86.9962 15.3237 86.5253 15.3957C86.3074 15.2223 86.044 15.1159 85.7673 15.0899C85.2316 15.0802 84.7129 14.9003 84.2853 14.5761C84.1803 14.466 84.0021 14.6186 83.9838 14.5924C83.7696 14.1519 83.724 13.7404 83.2422 13.8101C82.7821 13.4368 82.4121 12.9637 82.1598 12.4263C81.8136 12.3505 81.586 12.0785 81.2334 12.1037L80.7233 11.5637C80.5922 11.5306 80.4541 11.6155 80.3742 11.4952C80.1611 11.2545 79.9061 11.0549 79.6219 10.9061C79.2316 10.5391 78.772 10.2546 78.2702 10.0697C77.6586 9.9128 77.078 9.64403 76.4455 9.52087C76.1043 9.45445 75.7867 9.22681 75.4172 9.2865C75.0396 9.34757 74.7123 9.14699 74.3447 9.12607C73.1305 9.05702 71.9337 9.30554 70.7259 9.27521C70.2987 9.28539 69.8757 9.36081 69.4712 9.49899C69.1272 9.56972 68.7889 9.6662 68.4592 9.78753C68.1173 9.88959 67.7641 9.94849 67.4077 9.96305C67.0094 10.019 66.615 10.0998 66.2268 10.2052C65.8283 10.3275 65.4161 10.3867 65.0188 10.5283C64.7028 10.6156 64.3934 10.7244 64.0923 10.854C63.7581 10.9627 63.4308 11.092 63.1124 11.2414C62.808 11.4449 62.3738 11.472 62.0334 11.6967C61.6711 11.8563 61.3211 12.042 60.9856 12.2526C60.9418 12.3044 60.8873 12.3459 60.8259 12.3742C60.7645 12.4025 60.6976 12.417 60.63 12.4165C60.5296 12.4156 60.4304 12.4372 60.3394 12.4799C60.2483 12.5226 60.1681 12.5852 60.1044 12.6632C59.8817 12.8487 59.6269 12.9914 59.353 13.0844C59.1785 13.1699 59.0024 13.2722 58.8254 13.3438C58.3915 13.5194 58.0661 13.8787 57.6161 14.0124C57.5995 14.0764 57.6041 14.1659 57.5629 14.2006C57.2205 14.4882 56.8054 14.6679 56.4512 14.9464C56.3558 15.0215 56.0666 15.0285 56.0696 15.1582C56.0757 15.4236 55.8339 15.3783 55.7376 15.5099C55.4078 16.0518 55.0317 16.5636 54.6133 17.0398V17.3717C54.5695 17.3578 54.5234 17.3535 54.4778 17.3594C54.4322 17.3652 54.3885 17.381 54.3497 17.4056C54.3108 17.4302 54.2778 17.463 54.2529 17.5017C54.228 17.5406 54.2118 17.5842 54.2054 17.6299C54.142 18.1366 53.7338 18.4748 53.618 18.953C53.5839 19.0942 53.4388 19.2082 53.3463 19.3321C53.3183 19.9179 53.1189 20.4826 52.773 20.955L52.8992 21.1594C52.6173 21.4485 52.4102 21.8024 52.296 22.1905C52.2455 22.4586 52.1096 22.7029 51.9088 22.8867C51.7946 23.0204 51.7063 23.1744 51.6482 23.3407C51.5782 23.4768 51.55 23.6534 51.4462 23.7503C50.7956 24.4524 50.104 25.1149 49.3748 25.7344C49.1621 25.8904 48.924 25.8941 48.7133 26.0461C48.2875 26.3538 47.7979 26.5775 47.3752 26.8999C47.0714 27.0738 46.7507 27.2161 46.418 27.3239C45.8406 27.6326 45.2479 27.9111 44.642 28.1586C44.2277 28.3081 43.869 28.5693 43.4412 28.6788C42.873 28.7589 42.3286 28.9614 41.8453 29.2725C41.6764 29.4063 41.4313 29.3154 41.2076 29.4393C40.1001 30.0527 38.8786 30.4193 37.7467 30.9864C37.418 30.8863 37.2982 31.2529 37.0297 31.3077C36.5922 31.3967 36.2671 31.7404 35.8547 31.8835C35.4979 32.0073 35.4181 32.3738 35.164 32.5805C34.9098 32.7451 34.7029 32.9737 34.5642 33.2434C34.4255 33.5132 34.3597 33.815 34.3733 34.1184C33.9608 34.229 34.211 34.6802 33.9904 34.9316C33.9424 35.0126 33.9228 35.1074 33.935 35.2009C33.9472 35.2943 33.9904 35.381 34.0576 35.4468C34.1745 35.5577 34.1003 35.7151 34.1052 35.8501C34.1162 36.1574 34.1231 36.4663 34.1044 36.773C34.108 37.0419 34.1854 37.3046 34.328 37.5322C34.438 37.7436 34.6516 37.9305 34.6618 38.1717C34.6744 38.4671 35.0938 38.5702 34.9597 38.9047C35.1237 39.0354 35.1021 39.2988 35.3182 39.3998C35.3465 39.3691 35.3724 39.3145 35.4106 39.3037C35.9812 39.1428 36.5524 38.9841 37.1263 38.8355C37.2146 38.8258 37.3001 38.7975 37.3769 38.7526C37.8904 38.4626 38.4239 38.2103 38.9734 37.9974C39.1339 37.9135 39.3149 37.9908 39.5027 37.909C40.087 37.6118 40.6974 37.369 41.3259 37.1839C41.5977 37.1209 41.8572 36.9518 42.1123 36.8732C42.3712 36.7596 42.6417 36.6746 42.9192 36.6199C43.3352 36.6 43.6029 36.3085 43.9668 36.2089C44.1595 36.1563 44.3793 36.2193 44.5488 36.0872C44.8162 35.8787 45.1756 35.8817 45.4489 35.701C45.7281 35.5167 46.1032 35.5516 46.3389 35.2841C46.7232 35.3749 46.9565 35.0657 47.2508 34.9248C47.3323 34.8915 47.417 34.8662 47.5036 34.8493C47.7196 34.814 47.9318 34.7578 48.1371 34.6817C48.3511 34.565 48.6519 34.6583 48.8005 34.3838C48.9296 34.145 49.2648 34.4166 49.4187 34.1796C50.2185 33.9571 51.0043 33.6868 51.772 33.37C52.0786 33.2587 52.4463 33.3042 52.7106 33.0005Z" fill="#212222"/>
<path d="M81.703 63.2499C81.5932 63.0573 81.4434 62.8908 81.2638 62.7615C81.0843 62.6322 80.879 62.5435 80.6622 62.501L79.8907 61.704C79.7767 61.7283 79.6584 61.7222 79.5476 61.6862C79.4367 61.6502 79.3372 61.5856 79.2589 61.4989C78.7747 60.9855 78.0507 60.7154 77.7566 60.0128C77.4554 59.8441 77.1873 59.6218 76.965 59.357V59.0379C76.1423 58.8483 75.6662 58.1707 75.0827 57.6137C74.9641 57.5229 74.7773 57.653 74.6507 57.4763C74.5584 57.3474 74.5716 57.1654 74.4119 57.0728C74.2979 57.0066 74.1649 56.9946 74.0625 56.8815C73.813 56.6829 73.641 56.4025 73.5771 56.0892C73.5644 55.8901 73.4134 55.8211 73.2988 55.6713C73.238 55.2748 73.4066 54.8184 73.0728 54.4631L73.7101 53.8992H73.9135C73.9814 53.7099 74.0996 53.543 74.2555 53.4164C75.0904 52.8145 75.9247 52.2121 76.7657 51.6188C77.1647 51.3372 77.5782 51.0764 77.9845 50.8053C78.1326 50.7065 78.2789 50.6051 78.4494 50.489C79.0446 50.4646 79.6292 50.652 80.1003 51.0184C80.2997 51.1991 80.5525 51.3095 80.82 51.3323C81.2516 51.6075 81.4674 52.1314 81.9658 52.3271C82.2042 52.7536 82.7738 52.8852 82.94 53.4414C83.1689 53.4726 83.3904 53.5445 83.5941 53.6538L83.6293 53.9796C83.7373 54.077 83.8587 54.0114 83.9692 54.0288C84.1691 53.8278 84.369 53.627 84.5812 53.414C84.5926 53.3157 84.5635 53.1614 84.6256 53.0988C85.0155 52.6394 85.3426 52.13 85.5987 51.584C85.768 51.3163 85.9589 51.0633 86.1696 50.8274C86.4057 50.5744 86.5487 50.248 86.5747 49.9022C87.0139 49.3831 87.3582 48.7899 87.5915 48.15C87.7264 47.7505 87.9431 47.3836 88.2274 47.0731C88.5271 46.7213 88.5735 46.262 88.8254 45.8917C88.8951 45.7552 88.9756 45.6243 89.0661 45.5006C89.1302 45.4313 89.2443 45.3749 89.2583 45.2982C89.3751 44.6612 89.8679 44.2307 90.1329 43.6733C90.3674 43.1802 90.7065 42.7204 90.8949 42.2155C91.2152 41.3574 91.8124 40.6646 92.1726 39.8359C92.276 39.5977 92.5383 39.4291 92.6419 39.191C92.7627 38.9134 93.0929 38.6999 92.9539 38.3272C93.1276 38.0729 93.2689 37.7977 93.3746 37.5081C93.4103 37.4436 93.4555 37.3847 93.5083 37.3335V36.7774C93.8559 36.4764 94.1567 36.1249 94.4006 35.7343C94.5102 35.5183 94.7204 35.5915 94.8855 35.5345C95.2595 35.3826 95.669 35.3421 96.0652 35.4176C96.2768 35.4325 96.4892 35.4338 96.7008 35.4213C97.1713 35.4308 97.637 35.5167 98.0803 35.6756C98.121 35.6935 98.1648 35.703 98.2091 35.7039C98.7963 35.6389 99.3639 35.8586 99.9413 35.833C100.213 35.8211 100.386 36.0577 100.663 35.9996C100.902 35.9725 101.142 35.9694 101.382 35.99C101.434 36.0929 101.516 36.1773 101.617 36.2322C101.718 36.2871 101.834 36.3099 101.948 36.2975C102.51 36.821 102.198 37.3416 102.06 37.8389C101.91 38.3188 101.733 38.79 101.531 39.2506C101.394 39.6894 101.219 40.1155 101.009 40.5244C100.795 40.8259 100.617 41.1513 100.478 41.4942L100.538 41.5548C100.239 42.1754 99.9505 42.786 99.65 43.3907C99.3541 43.9858 99.294 44.6579 98.9385 45.3621L98.4776 45.7791V46.5758C98.1979 46.6836 97.9707 46.8959 97.8433 47.1683C97.7053 47.4254 97.8831 47.812 97.512 47.9556C97.4694 48.2219 97.2567 48.4625 97.2405 48.6848C97.2098 49.1113 96.9352 49.3704 96.7805 49.7158C96.8238 49.7731 96.9276 49.8132 96.9152 49.8837L96.3645 50.4192C96.3772 50.8708 96.2341 51.3129 95.9595 51.6706C95.7838 51.8719 95.7887 52.2264 95.6234 52.4437C95.3464 52.8077 95.345 53.2841 95.0316 53.608L95.1893 53.8068C95.1721 53.8338 95.1587 53.8779 95.1289 53.8975C95.0083 54.0009 94.9213 54.1384 94.879 54.2919C94.6627 54.7701 94.4474 55.2488 94.2182 55.7208C93.9981 56.1741 93.7236 56.6046 93.5438 57.0726C93.4335 57.3646 93.262 57.6296 93.0409 57.849C92.7611 58.4804 92.3455 59.0414 91.8242 59.4921V59.7835C91.0687 60.4221 90.6259 61.34 89.8939 62.0215C89.3496 62.6062 88.7308 63.1159 88.0534 63.5373C87.4409 63.7144 86.895 64.0498 86.2821 64.2202C86.1488 64.2503 86.0122 64.2627 85.8754 64.2571C85.4281 64.2668 84.9784 64.2358 84.5332 64.2689C84.2182 64.2829 83.9059 64.2052 83.634 64.0452C83.3789 63.9078 83.0461 63.9293 82.8591 63.7033C82.6694 63.4739 82.3057 63.6289 82.1512 63.3173C82.112 63.2381 81.8534 63.2687 81.703 63.2499Z" fill="#212222"/>
<path d="M79.1164 43.8069C79.3202 43.7776 79.5277 43.8205 79.7034 43.9283C80.1677 43.7247 80.6431 43.5475 81.1273 43.3975C81.283 43.3567 81.3732 43.1592 81.5585 43.2351C82.0258 42.684 82.7354 42.5401 83.3103 42.1723C83.5308 42.0314 83.9102 42.0753 83.9495 41.6889C84.149 41.6687 84.2922 41.4446 84.5207 41.5303C85.1577 41.2403 85.8194 41.0081 86.4975 40.8364C86.5383 40.8203 86.6148 40.805 86.6281 40.8232C86.7828 41.0371 86.9686 40.7336 87.0707 40.8319C87.1313 40.8848 87.2026 40.9239 87.2798 40.9463C87.3569 40.9688 87.4379 40.9742 87.5173 40.9621C87.6573 40.9619 87.7973 40.9621 87.9263 40.9621L88.2584 41.2959V41.7651L87.8752 42.15C87.3871 42.3388 86.865 42.4232 86.3427 42.3977C85.967 42.4262 85.6032 42.5422 85.28 42.7366C84.6413 43.16 83.9569 43.5092 83.2398 43.7774C82.8743 43.9248 82.5269 44.1136 82.2039 44.3402C81.9894 44.4786 81.7003 44.4262 81.5499 44.6559C80.85 44.666 80.2446 45.1265 79.5333 45.0823C79.5098 45.0809 79.4779 45.0721 79.4639 45.0836C79.0145 45.3544 78.5443 45.5889 78.0581 45.785C77.8129 45.9319 77.5549 46.0727 77.3056 46.2006C76.9988 46.358 76.6609 46.4609 76.3572 46.6415C75.9738 46.8506 75.5761 47.0319 75.1671 47.1842C74.8669 47.3087 74.5699 47.4514 74.2691 47.5792C73.5432 47.9329 72.7955 48.2396 72.0306 48.4979C71.8506 48.5779 71.6762 48.6699 71.5084 48.7733C71.0297 48.9839 70.5369 49.1639 70.0656 49.3895C69.2972 49.7803 68.5595 50.2293 67.8591 50.7329C67.5643 50.9503 67.2844 51.1873 67.0214 51.4425C66.7298 51.7365 66.4215 52.0132 66.0983 52.2716C65.7998 52.5089 65.5946 52.8449 65.5193 53.2197C65.4746 53.4413 65.3765 53.6484 65.2335 53.8229C65.1906 54.5865 65.2821 55.3633 65.1779 56.1353C65.1732 56.17 65.1122 56.197 65.0805 56.225C65.1729 56.3701 65.2246 56.5376 65.2303 56.7098C65.2359 56.8821 65.1952 57.0526 65.1125 57.2036C65.2535 57.438 65.1891 57.7869 65.4958 57.9102C65.6925 58.9494 65.9624 59.9731 66.3034 60.9739L66.2154 61.0715C66.2154 61.0951 66.2055 61.126 66.2166 61.1415C66.4792 61.502 66.4843 61.9833 66.769 62.3477C66.8713 62.6588 66.6179 63.039 66.9205 63.3353C66.8355 63.69 67.1492 63.9845 67.0705 64.3383C67.3698 64.5403 67.4071 64.9161 67.624 65.1989C67.638 65.6257 67.5841 66.1116 68.1645 66.2902C68.2044 66.3764 68.1016 66.3848 68.0928 66.4075C67.9535 66.6617 68.3473 66.7785 68.1775 67.0258C68.4838 67.2599 68.7093 67.5846 68.822 67.9543C68.8674 68.0823 68.8405 68.231 68.8935 68.3752C68.9239 68.4597 68.9767 68.5343 69.0462 68.5909C69.1157 68.6475 69.1992 68.6842 69.2878 68.6966C69.3276 69.015 69.437 69.3208 69.608 69.5918C69.779 69.8628 70.0077 70.0925 70.2773 70.2646C70.3807 70.3238 70.4662 70.4101 70.5243 70.5145C70.6608 70.7809 70.7934 71.039 71.121 71.106C71.2099 71.3715 71.3891 71.5968 71.6271 71.7429C71.8779 71.9967 72.1941 72.1755 72.5404 72.259C72.5347 72.7165 73.1821 72.6916 73.324 73.1827C73.4159 73.2844 73.6635 73.1301 73.7716 73.3393C73.8634 73.5172 74.0335 73.5104 74.2014 73.4946C74.3176 73.6034 74.3246 73.7725 74.4481 73.8891C74.9096 74.3797 75.4099 74.8316 75.9441 75.241C75.999 75.2782 76.0249 75.3469 76.1148 75.3446C76.597 75.332 76.791 75.7073 77.0097 76.0501C77.4195 76.0668 77.8541 75.968 78.1677 76.3362C78.4976 76.3362 78.8292 76.317 79.1573 76.3422C79.4442 76.3641 79.762 76.2109 80.0147 76.4692C80.2338 76.1425 80.6819 76.5517 80.8462 76.2047C81.0033 76.1722 81.0567 76.2574 81.1566 76.3558C81.474 76.0971 81.8929 76.184 82.2773 76.0728C82.9425 75.8804 84.5265 75.3613 85.2615 75.0721C85.8162 74.8082 86.4002 74.6111 87.0011 74.4849C87.1092 74.4643 87.2103 74.4159 87.2942 74.3444C87.6267 74.1294 87.9931 73.9728 88.3778 73.8813C88.9703 73.664 89.539 73.3828 90.122 73.1385C90.8069 72.9077 91.4648 72.6027 92.0841 72.229C92.1597 72.1758 92.2449 72.0587 92.3703 72.0752C92.8175 72.0624 93.2475 71.8989 93.5909 71.6109C94.1249 71.2182 94.7334 70.94 95.3788 70.7932C95.5656 70.7726 95.6676 70.5856 95.8135 70.4899C96.15 70.2689 96.5656 70.2457 96.8776 69.9557C97.1945 69.7166 97.5299 69.5031 97.8804 69.3173C98.2157 69.0945 98.5487 68.8649 98.8597 68.61C98.9902 68.5032 99.119 68.5447 99.2479 68.5161C99.3795 68.4696 99.2269 68.1889 99.4611 68.2404C99.6729 68.2324 99.5345 68.4429 99.6435 68.4999C99.6779 68.4883 99.7098 68.4703 99.7382 68.4476C100.289 67.8726 100.926 67.388 101.626 67.0116C101.845 66.9096 102.055 66.7877 102.253 66.6478C102.437 66.4852 102.688 66.4009 102.834 66.1746L102.676 65.9982C102.993 65.6115 103.242 65.1736 103.412 64.7029C103.435 64.6134 103.367 64.5744 103.322 64.5238C103.39 64.3996 103.427 64.2613 103.432 64.1199C103.436 63.9785 103.407 63.8383 103.346 63.7104C103.169 63.4459 103.361 63.1381 103.151 62.859C102.998 62.6554 103.259 62.2821 102.995 62.0534L103.125 61.923C103.022 61.8032 102.826 61.8264 102.745 61.6701C102.75 61.5495 102.744 61.4289 102.726 61.3097C102.699 60.8374 102.521 60.3864 102.219 60.0238C102.015 59.7838 101.885 59.4901 101.843 59.1775C101.823 58.967 101.721 58.7729 101.56 58.6369C101.718 58.2083 101.333 57.8853 101.305 57.493C101.272 57.0341 100.893 56.8104 100.726 56.4508C100.704 56.3352 100.828 56.3095 100.86 56.2268L100.466 55.8312C100.435 55.7366 100.64 55.7183 100.541 55.6287C100.218 55.3338 100.418 54.7315 99.9058 54.5473C99.8769 54.537 99.8984 54.4154 99.876 54.3529C99.7567 53.8906 99.5192 53.4676 99.1871 53.126C99.0895 52.853 99.3262 52.7171 99.3387 52.5089C99.4869 52.4137 99.7265 52.5544 99.8261 52.3193C100.035 52.411 100.221 52.5473 100.371 52.7187C100.944 53.2678 101.405 53.9236 101.728 54.6496C101.772 54.7607 101.845 54.8577 101.939 54.9305C102.034 55.0033 102.146 55.0494 102.264 55.0635V55.5152C102.69 55.7619 102.68 56.2698 102.812 56.6696C102.915 57.0505 103.079 57.4118 103.298 57.739C103.584 58.1035 103.583 58.6022 103.946 58.8998C103.957 59.2159 104.214 59.4776 104.103 59.8208L104.344 59.8704C104.499 60.0994 104.533 60.4166 104.833 60.6293C104.831 61.2902 104.983 61.9425 105.278 62.5334C105.273 62.5078 105.142 62.5449 105.125 62.6226C105.102 62.7274 105.057 62.8635 105.158 62.9518C105.254 63.0364 105.229 63.0744 105.155 63.1603C105.071 63.259 105.254 63.2765 105.253 63.3648C105.242 63.4827 105.244 63.6015 105.258 63.7188C105.294 63.8063 105.342 63.8875 105.403 63.9595C105.117 64.3752 105.311 64.8543 105.244 65.3086C104.969 65.6556 104.731 66.0312 104.535 66.429C104.481 66.6149 104.384 66.7856 104.253 66.9272C104.121 67.0689 103.958 67.1774 103.777 67.2442C102.961 67.8972 102.082 68.4658 101.152 68.9418C101.099 68.9749 101.018 68.992 100.987 69.0469C100.565 69.7907 99.7734 70.0558 99.1319 70.52C98.1601 71.1639 97.1371 71.7262 96.0734 72.2015C95.7014 72.479 95.2844 72.6894 94.8406 72.8233C94.3083 72.9529 93.8028 73.1756 93.3476 73.4814C92.3922 74.0106 91.3862 74.442 90.3446 74.7686C90.26 74.7914 90.1772 74.8206 90.0969 74.8558C89.6538 75.0943 89.1868 75.2852 88.7037 75.4247C88.0224 75.6584 87.366 75.9598 86.7443 76.3244C86.1049 76.385 85.4809 76.5571 84.9004 76.8331C84.3377 77.0721 83.7567 77.2655 83.1633 77.4113C82.6604 77.4932 82.1628 77.606 81.6736 77.749C81.3964 77.826 81.104 77.7229 80.8043 77.8779C80.5661 78.0011 80.2198 77.8328 79.9493 78.0344C79.9065 78.0555 79.8595 78.0668 79.812 78.0669C79.7643 78.0672 79.7173 78.0564 79.6744 78.0355C79.1908 77.7721 78.6734 77.9428 78.1739 77.9031C77.8928 77.8807 77.5706 77.9823 77.3366 77.8749C77.1201 77.7719 76.8932 77.6927 76.6598 77.639C76.3976 77.5945 76.1467 77.4987 75.9212 77.3571C75.8529 77.3123 75.7422 77.3329 75.6096 77.3194C75.4024 77.0655 75.1317 76.8715 74.8254 76.7572C74.5106 76.6721 74.4718 76.2581 74.0879 76.1637C73.7933 76.0912 73.6741 75.6685 73.5192 75.3552H73.1165C72.6219 75.0138 72.4434 74.3979 71.894 74.0672H71.6765C71.3087 73.7593 71.042 73.3507 70.5446 73.191C70.3288 73.1217 70.1826 72.8337 70.0246 72.6662C69.7269 72.6438 69.5489 72.6034 69.4427 72.2732C69.3463 71.9728 69.2474 71.5602 68.8053 71.4842C68.6869 71.3475 68.8683 71.0939 68.6254 71.005C68.6841 70.9303 68.7872 70.8884 68.7699 70.8204C68.7199 70.5001 68.366 70.5547 68.2739 70.2733C68.2498 70.167 68.2005 70.0682 68.1302 69.9854C68.0598 69.9025 67.9704 69.8382 67.8697 69.7977C67.628 69.7316 67.6537 69.3598 67.3658 69.3264L67.4897 69.1147C67.4765 69.0685 67.4772 69.0139 67.4503 68.9857C67.1995 68.7223 66.9093 68.4888 66.9145 68.0677C66.9154 67.9973 66.7936 67.933 66.755 67.8531C66.5786 67.5739 66.44 67.2722 66.3426 66.9564C66.234 66.4216 65.8608 65.9752 65.7482 65.4302C65.7361 65.3714 65.6435 65.3484 65.6477 65.2588C65.5634 64.4194 65.3446 63.5991 65.0001 62.8297C64.9457 62.6284 64.9344 62.6314 65.0821 62.3457C64.7872 62.0496 64.8307 61.5946 64.5827 61.2767C64.4906 61.2796 64.3903 61.2959 64.3778 61.1614C64.3546 61.0438 64.4544 61.0002 64.5112 60.925L64.3801 60.7802L64.4988 60.6484C64.093 59.9538 63.9724 59.1425 63.5184 58.4644C63.6351 58.2948 63.6857 58.088 63.6607 57.8833C63.6358 57.6787 63.537 57.4903 63.3831 57.354C63.4373 57.1359 63.2932 56.8782 63.5164 56.6444C63.6079 56.5486 63.5299 56.3401 63.3985 56.2222C63.5776 56.1145 63.5242 55.937 63.5271 55.7788C63.5435 55.5662 63.5421 55.3526 63.5231 55.1403C63.5251 54.5402 63.5827 53.9418 63.6951 53.3524C63.7802 52.956 63.9938 52.5992 64.3025 52.3382C64.5703 51.9918 64.8127 51.6261 65.0274 51.2441C65.2178 51.272 65.2809 50.9493 65.5122 50.9082C65.7189 50.8713 65.6442 50.5061 65.923 50.5611C65.8606 50.2697 66.1747 50.2646 66.2701 50.2404C66.6056 50.1554 66.7005 49.7481 67.0474 49.7159C67.0957 49.3486 67.4203 49.3235 67.6713 49.2004C68.2597 48.9112 68.8398 48.6053 69.4301 48.3203C69.9772 48.0478 70.5393 47.8069 71.1136 47.5985C71.374 47.5321 71.616 47.4074 71.8217 47.2337C72.0822 47.0739 72.3729 46.9705 72.6754 46.9298C73.1557 46.7814 73.6335 46.6076 74.0968 46.43C74.559 46.2272 75.0039 45.987 75.4271 45.7118C75.6131 45.6019 75.7992 45.4444 76.0498 45.5074C76.1518 45.533 76.2138 45.464 76.2926 45.409C76.6965 45.145 77.1306 44.9314 77.5856 44.7727C78.0861 44.5552 78.5751 44.312 79.0506 44.0439C79.0895 44.0238 79.0868 43.9212 79.1164 43.8069Z" fill="#212222"/>
<path d="M52.7106 33.0005C52.4463 33.3042 52.0786 33.259 51.772 33.3702C51.0043 33.6869 50.2185 33.9571 49.4187 34.1796C49.2649 34.4166 48.9297 34.145 48.8006 34.3836C48.6519 34.6581 48.3511 34.5648 48.1372 34.6817C47.9318 34.7578 47.7196 34.814 47.5036 34.8493C47.4171 34.8661 47.3323 34.8914 47.2508 34.9248C46.9565 35.0656 46.7232 35.3749 46.3389 35.2841C46.1032 35.5516 45.7281 35.5167 45.4491 35.701C45.1756 35.8817 44.8162 35.8787 44.5488 36.0872C44.3793 36.2193 44.1595 36.1562 43.9668 36.2089C43.6027 36.3085 43.3352 36.6002 42.919 36.6202C42.6417 36.6747 42.3712 36.7596 42.1123 36.8732C41.8574 36.9518 41.5977 37.1209 41.326 37.1839C40.6974 37.369 40.0871 37.6118 39.5027 37.909C39.3149 37.9908 39.1338 37.9135 38.9734 37.9974C38.4238 38.2101 37.8902 38.4627 37.377 38.7529C37.3001 38.7977 37.2147 38.8258 37.1263 38.8355C36.5524 38.9841 35.9811 39.1428 35.4105 39.3037C35.3722 39.3145 35.3465 39.3691 35.3182 39.3998C35.1021 39.2988 35.1237 39.0356 34.9597 38.9049C35.0938 38.5705 34.6744 38.4671 34.6618 38.1717C34.6516 37.9305 34.438 37.7436 34.3281 37.5322C34.1854 37.3046 34.1081 37.0419 34.1046 36.773C34.1231 36.4663 34.1162 36.1573 34.1053 35.85C34.1004 35.7151 34.1745 35.5577 34.0576 35.4468C33.9904 35.3809 33.9472 35.2943 33.935 35.2009C33.9228 35.1074 33.9424 35.0127 33.9904 34.9318C34.2112 34.6803 33.9608 34.229 34.3733 34.1184C34.3597 33.815 34.4255 33.5132 34.5642 33.2434C34.7031 32.9735 34.9098 32.745 35.164 32.5806C35.4181 32.3738 35.4981 32.0073 35.8547 31.8835C36.2672 31.7404 36.5922 31.3967 37.0297 31.3077C37.2983 31.2529 37.418 30.8863 37.7468 30.9862C38.8786 30.4193 40.0999 30.0527 41.2075 29.4393C41.4313 29.3153 41.6764 29.4063 41.8453 29.2725C42.3286 28.9614 42.8729 28.7589 43.4412 28.6788C43.869 28.5693 44.2277 28.3081 44.6421 28.1586C45.2479 27.9111 45.8406 27.6326 46.418 27.3239C46.7507 27.2161 47.0716 27.074 47.3752 26.9001C47.7979 26.5776 48.2876 26.3538 48.7134 26.0462C48.9239 25.8941 49.1621 25.8904 49.3748 25.7344C50.104 25.1149 50.7956 24.4524 51.4462 23.7503C51.55 23.6534 51.5782 23.4768 51.6482 23.3407C51.7063 23.1744 51.7946 23.0204 51.9088 22.8867C52.1096 22.7029 52.2455 22.4587 52.2959 22.1906C52.4102 21.8025 52.6173 21.4485 52.8992 21.1594L52.773 20.955C53.1189 20.4824 53.3182 19.9179 53.3463 19.3321C53.4386 19.2082 53.5839 19.0943 53.618 18.9531C53.7339 18.475 54.1422 18.1366 54.2055 17.6299C54.2118 17.5842 54.228 17.5406 54.2529 17.5017C54.2778 17.463 54.3108 17.4302 54.3497 17.4056C54.3885 17.381 54.4322 17.3652 54.4778 17.3594C54.5234 17.3535 54.5697 17.3578 54.6134 17.3717V17.0398C55.0317 16.5636 55.4078 16.0518 55.7377 15.5099C55.8339 15.3783 56.0757 15.4237 56.0696 15.1583C56.0666 15.0288 56.3558 15.0215 56.4514 14.9464C56.8054 14.6679 57.2205 14.4885 57.5629 14.2007C57.6041 14.1661 57.5996 14.0766 57.6163 14.0125C58.0661 13.8788 58.3916 13.5193 58.8254 13.3438C59.0024 13.2722 59.1785 13.1698 59.353 13.0844C59.6271 12.9914 59.8817 12.8488 60.1044 12.6634C60.1681 12.5854 60.2484 12.5228 60.3394 12.4801C60.4304 12.4373 60.5296 12.4156 60.63 12.4165C60.6977 12.417 60.7645 12.4025 60.8259 12.3742C60.8873 12.3458 60.9418 12.3044 60.9856 12.2526C61.3209 12.042 61.6711 11.8562 62.0334 11.6967C62.3738 11.472 62.808 11.4449 63.1125 11.2413C63.4308 11.092 63.758 10.9627 64.0923 10.854C64.3934 10.7244 64.703 10.6156 65.0188 10.5283C65.4161 10.3867 65.8284 10.3276 66.2268 10.2054C66.6151 10.1 67.0095 10.0189 67.4077 9.96305C67.7641 9.94849 68.1173 9.88958 68.4593 9.78752C68.789 9.6662 69.1272 9.56971 69.4712 9.49898C69.8757 9.3608 70.2989 9.28538 70.7259 9.27519C71.9337 9.30553 73.1305 9.05701 74.3447 9.12606C74.7124 9.14698 75.0396 9.34773 75.4174 9.28666C75.7867 9.22692 76.1045 9.45445 76.4455 9.52085C77.0781 9.64402 77.6588 9.91279 78.2702 10.0696C78.772 10.2546 79.2316 10.5391 79.6217 10.9061C79.9061 11.0549 80.1611 11.2545 80.3741 11.4952C80.454 11.6155 80.5924 11.5306 80.7233 11.5637L81.2334 12.1037C81.586 12.0785 81.8136 12.3505 82.1599 12.4262C82.4121 12.9637 82.7821 13.4368 83.2422 13.8101C83.7241 13.7404 83.7696 14.1519 83.9838 14.5924C84.0021 14.6186 84.1803 14.466 84.2853 14.5761C84.713 14.9003 85.2318 15.0804 85.7673 15.0901C86.0442 15.1162 86.3075 15.2223 86.5253 15.3957C86.9963 15.3237 87.5113 15.5213 87.9941 15.2526C88.165 15.1576 88.2774 15.4068 88.4275 15.3853C89.0473 15.397 89.6656 15.4476 90.279 15.5368C91.0799 15.5207 91.8824 15.5557 92.6826 15.5241C93.1405 15.559 93.601 15.5244 94.0487 15.4219C94.4336 15.2932 94.8659 15.261 95.2786 15.1538C95.6588 14.9998 96.0693 14.936 96.478 14.9679C96.9264 15.0616 97.3245 14.8186 97.763 14.8048C98.2322 14.79 98.6478 15.0643 99.0829 14.9592C99.364 15.1329 99.3165 15.6555 99.7939 15.5216C99.9836 15.9142 100.063 16.3541 100.531 16.5656C100.649 16.6369 100.744 16.7408 100.804 16.8651C100.864 16.9894 100.886 17.1284 100.869 17.2655C100.849 17.3756 100.861 17.4892 100.904 17.5926C100.947 17.6959 101.02 17.7843 101.112 17.8472C100.542 17.8094 99.9702 17.8487 99.411 17.9644C99.0155 18.1468 98.7071 18.3982 98.3511 18.5822C98.1007 18.7334 97.8123 18.8092 97.5203 18.8008C97.253 18.7831 96.9891 18.8691 96.7826 19.0404C96.5806 19.1809 96.3546 19.2828 96.1157 19.3409C95.8033 19.4859 95.469 19.5725 95.1481 19.7426C94.86 19.8953 94.5633 20.0239 94.2779 20.2049C93.9325 20.424 93.5135 20.4905 93.1558 20.7512C92.7995 20.923 92.4166 21.0321 92.0236 21.0736C91.3221 21.2437 90.643 21.4969 90.0009 21.8277C89.6921 21.9938 89.2988 22.0029 89.0771 22.3549C88.8975 22.3198 88.7122 22.3275 88.536 22.3772C88.3597 22.4272 88.1977 22.5179 88.0626 22.6421C87.2853 22.5503 86.6228 23.1117 85.8757 23.0655C85.0264 23.4893 84.0785 23.5701 83.2057 24.0486C82.4772 24.1097 81.7614 24.2766 81.0806 24.5443C80.7338 24.5963 80.3972 24.7023 80.0827 24.8583C79.7852 25.0396 79.4144 24.9503 79.157 25.1932C78.6946 25.0542 78.3473 25.4099 77.9328 25.4882C77.5498 25.5777 77.1747 25.6984 76.8113 25.8495C76.583 25.9335 76.3119 25.858 76.1147 26.0457C75.474 26.1036 74.8435 26.2446 74.2388 26.465C73.9285 26.5183 73.7404 26.916 73.3672 26.756C73.081 27.0281 72.6393 26.7962 72.3613 27.0549C72.0816 27.3152 71.7041 27.0888 71.3942 27.3014C71.2566 27.3958 71.0341 27.4121 70.8572 27.5379C70.7288 27.6291 70.5777 27.7946 70.3846 27.746C70.113 27.6777 69.8902 27.8551 69.6787 27.9312C69.3214 28.0499 68.9546 28.1374 68.5822 28.1921C67.8009 28.3146 67.0385 28.5376 66.3139 28.8556C65.7945 29.1024 65.2361 29.256 64.6641 29.3096C64.3556 29.345 64.0733 29.501 63.8787 29.7441C63.3889 29.6085 62.9694 29.9627 62.4869 30.0481C62.3199 30.1008 62.1487 30.14 61.9755 30.1653C61.9048 30.167 61.8065 30.1348 61.7677 30.1702C61.3405 30.5596 60.7577 30.4515 60.2656 30.6478C59.8005 30.8334 59.3536 31.0629 58.8804 31.235C58.4394 31.3953 57.9806 31.4388 57.5381 31.5758C56.4508 31.9122 55.3457 32.1899 54.2709 32.5709C54.1596 32.6103 54.0728 32.6868 53.9768 32.7137C53.5844 32.9119 53.1497 33.0105 52.7106 33.0005ZM69.4757 14.8107C69.3819 14.8116 69.2883 14.8008 69.1971 14.7785C68.9536 14.6869 68.7256 14.5031 68.45 14.5431C68.135 14.551 67.8226 14.4848 67.5378 14.3497C67.4159 14.2986 67.287 14.2669 67.1556 14.2552C66.7101 14.2228 66.2628 14.2279 65.8182 14.2707C65.3976 14.2839 64.9837 14.3787 64.5988 14.5492C64.3658 14.6687 64.1246 14.7709 63.8767 14.8548C63.6239 14.9653 63.2946 14.9899 63.1331 15.2839C63.0938 15.3387 63.0345 15.3759 62.9682 15.3876C62.3926 15.4923 61.9973 15.9903 61.427 16.0973C61.3607 16.1124 61.299 16.1428 61.2466 16.1862C61.1942 16.2294 61.1526 16.2843 61.1252 16.3466C60.9489 16.67 60.7084 16.9536 60.4184 17.1796C60.2861 17.2599 60.1713 17.3663 60.0807 17.4921C59.99 17.6178 59.9253 17.7604 59.8904 17.9116C60.0982 18.1076 59.9449 18.3593 59.9631 18.4337L60.3392 18.9426C60.519 18.9426 60.6698 18.8949 60.7486 18.9504C61.2099 19.2021 61.7394 19.2988 62.2593 19.2265C62.6121 19.228 62.9652 19.238 63.3172 19.2222C63.5095 19.2137 63.6209 19.451 63.8229 19.3681C64.4397 19.1952 65.0671 19.0632 65.7011 18.9732C66.4441 18.7904 67.1709 18.5462 67.8737 18.2428C68.216 18.0035 68.609 17.847 69.0216 17.786C69.2628 17.3555 69.7716 17.2432 70.0354 16.8629C69.976 16.4082 70.3109 16.0546 70.3218 15.6114L69.4757 14.8107Z" fill="white"/>
<path d="M69.4757 14.8106L70.3219 15.6112C70.3109 16.0543 69.9759 16.4079 70.0355 16.8626C69.7715 17.2429 69.2628 17.3552 69.0216 17.7856C68.6089 17.8466 68.2161 18.0032 67.8738 18.2426C67.1709 18.5459 66.4441 18.7901 65.7011 18.9727C65.0671 19.0629 64.4397 19.1949 63.8229 19.3677C63.6211 19.4507 63.5095 19.2134 63.3173 19.2219C62.9652 19.2377 62.612 19.2277 62.2594 19.226C61.7393 19.2986 61.2099 19.2019 60.7487 18.95C60.6697 18.8945 60.519 18.9422 60.3392 18.9422L59.9631 18.4334C59.9448 18.359 60.0983 18.1073 59.8903 17.9113C59.9253 17.76 59.99 17.6175 60.0807 17.4916C60.1715 17.3659 60.2863 17.2597 60.4183 17.1792C60.7084 16.9533 60.949 16.6699 61.1251 16.3465C61.1527 16.2842 61.1944 16.2291 61.2467 16.1857C61.2991 16.1425 61.3608 16.1121 61.4269 16.0969C61.9973 15.99 62.3928 15.492 62.9682 15.3872C63.0346 15.3755 63.0938 15.3384 63.1332 15.2835C63.2946 14.9897 63.6239 14.9651 63.8767 14.8545C64.1246 14.7705 64.3659 14.6684 64.5988 14.5488C64.9837 14.3782 65.3976 14.2837 65.818 14.2703C66.2626 14.2276 66.7101 14.2225 67.1556 14.2549C67.2871 14.2665 67.4159 14.2983 67.5376 14.3494C67.8226 14.4845 68.135 14.5508 68.4498 14.5428C68.7256 14.5028 68.9538 14.6866 69.1971 14.7782C69.2883 14.8005 69.3818 14.8115 69.4757 14.8106Z" fill="#212222"/>
</svg>
