<svg width="241" height="179" viewBox="0 0 241 179" fill="none" xmlns="http://www.w3.org/2000/svg">
<path d="M58.2426 131.931C60.7332 131.074 63.1915 130.137 65.7956 128.945C64.8938 129.032 64.4414 128.493 63.9414 128.308C63.1849 127.982 62.4571 127.593 61.7654 127.146C60.7073 126.546 59.7143 125.832 58.6839 125.182C57.611 124.596 56.6476 123.829 55.8364 122.916C55.2941 122.237 54.3108 121.977 53.6415 121.305C52.54 120.198 51.4304 119.117 50.375 117.957C49.1095 116.296 48.0171 114.512 47.1147 112.631C45.9733 110.541 45.0834 108.324 44.4637 106.026C43.4977 103.205 42.7767 100.307 42.3083 97.3637C41.9304 94.5876 41.3706 91.8433 41.2132 89.03C41.1049 87.0922 40.6496 85.1758 40.4389 83.2402C40.345 82.3746 40.2404 81.5096 40.1492 80.6439C39.864 77.932 40.0441 75.1999 39.8073 72.4815C39.6579 70.7651 39.7345 69.0522 39.4219 67.3191C39.1549 65.8155 38.9985 64.2944 38.9536 62.7681C38.9405 62.3481 38.6747 62.0468 38.5877 61.683C38.5249 61.4207 38.3741 61.0887 38.7489 60.8111C39.105 60.5473 39.37 60.7158 39.6271 60.858C41.3592 61.9388 43.209 62.8199 45.1406 63.4841C47.6973 64.2807 50.3311 64.8062 52.9985 65.0518C54.7962 65.2318 56.6025 65.3163 58.4092 65.3048C60.3699 65.4016 62.3354 65.306 64.2772 65.0188C66.1332 64.6514 67.969 64.1898 69.7777 63.6361C72.1546 62.8113 74.5123 61.9634 76.8249 60.959C78.8295 60.0883 80.7689 59.0736 82.8603 58.3669C84.5429 57.7985 86.1479 56.9616 87.8224 56.3307C90.1132 55.4675 92.3848 54.5304 94.7262 53.8285C97.6972 52.9379 100.703 52.1336 103.705 51.3728C106.812 50.5222 110.004 50.0188 113.222 49.8722C115.698 49.7083 118.181 50.0544 120.518 50.8889C121.185 51.1522 121.577 51.5252 121.032 52.1773C120.703 52.5723 121.002 52.8134 121.138 53.0288C122.086 54.527 123.003 56.0541 124.077 57.4596C124.73 58.3136 125.444 59.1303 126.104 59.9871C126.524 60.5328 126.489 61.0281 125.942 61.3831C125.402 61.7331 124.79 61.9081 124.295 61.2413C122.285 58.6135 120.527 55.8035 119.044 52.848C118.935 52.6272 118.77 52.4388 118.565 52.3022C118.361 52.1656 118.123 52.0854 117.877 52.0697C114.201 51.628 110.475 51.8643 106.884 52.7668C103.226 53.5878 99.5883 54.4637 95.9974 55.5509C92.6549 56.5242 89.3733 57.6941 86.1697 59.0543C82.184 60.7954 78.2027 62.5571 74.1496 64.1311C70.2946 65.7228 66.1902 66.6304 62.0218 66.8123C59.2543 66.8533 56.4868 66.7431 53.7314 66.4824C51.2931 66.2551 48.8725 65.8674 46.4855 65.3219C44.2883 64.7791 42.19 63.8966 40.2668 62.7067C40.5421 64.1697 40.8303 65.4388 41.0095 66.723C41.2242 68.2622 41.3499 69.8144 41.5059 71.3615C41.7439 73.7192 41.6615 76.0897 41.8728 78.4575C42.1126 81.1431 42.5183 83.806 42.7705 86.488C42.981 88.7275 43.4502 90.9427 43.7916 93.1705C44.0928 95.1367 44.4342 97.1133 44.9112 99.0252C45.2733 101.133 45.8317 103.202 46.579 105.206C46.9707 106.063 47.0525 107.207 47.4632 108.027C48.2128 109.962 49.0854 111.848 50.0763 113.672C50.8903 115.329 51.9463 116.858 53.2101 118.206C54.3016 119.086 55.267 120.125 56.4415 120.942C57.2237 121.487 58.0563 122.066 58.8311 122.67C60.889 124.251 63.1069 125.612 65.4487 126.733C67.1556 127.564 68.9138 128.375 70.7126 129.066C72.1599 129.622 73.6209 130.181 75.0527 130.797C76.2687 131.255 77.5134 131.633 78.7791 131.929C80.4705 132.406 82.1894 132.797 83.8546 133.351C84.7129 133.534 85.5801 133.672 86.4532 133.764C89.0503 134.415 91.7151 134.761 94.393 134.795C95.4368 134.826 96.4778 134.919 97.5106 135.072C98.893 135.218 100.306 135.045 101.7 135.123C104.215 135.264 106.738 135.289 109.253 135.395C110.242 135.436 111.344 135.446 112.363 135.427C113.518 135.31 114.682 135.323 115.834 135.468C117.152 135.739 118.526 135.429 119.886 135.679C121.766 136.025 123.673 136.131 125.559 136.579C126.969 136.914 128.373 137.278 129.734 137.738C130.786 138.117 131.775 138.65 132.671 139.318C133.437 139.87 134.324 140.131 135.119 140.605C136.099 141.19 137.023 141.842 137.937 142.51C139.21 143.238 140.41 144.085 141.522 145.04C141.832 145.371 142.131 145.199 142.441 144.9C144.287 143.117 146.371 141.583 148.098 139.679C149.614 138.006 151.508 136.763 153.071 135.137C154.092 133.862 155.241 132.694 156.499 131.651C157.661 130.866 158.204 129.624 159.358 128.84C160.363 128.181 161.189 127.287 161.764 126.235C161.901 125.967 162.206 125.786 162.427 125.559C163.579 124.376 164.753 123.208 165.92 122.05C166.788 121.018 167.746 120.063 168.781 119.197C169.227 118.884 169.445 118.117 169.946 117.76C171.124 116.919 171.72 115.489 173.027 114.801C173.632 114.483 173.405 113.687 174.077 113.306C175.212 112.435 176.223 111.414 177.085 110.273C177.905 109.491 178.673 108.655 179.381 107.771C180.614 106.297 181.945 104.907 183.367 103.611C184.346 102.405 185.49 101.342 186.765 100.451C187.363 99.9878 187.878 99.4263 188.288 98.7909C189.177 97.7318 190.38 96.9659 191.242 95.9329C192.345 94.7344 193.509 93.5933 194.73 92.5138C195.175 92.0607 195.577 91.5682 195.933 91.0428C196.517 90.2053 197.578 90.0812 198.104 89.2188C198.949 87.8341 200.684 87.3015 201.458 85.7738C201.792 85.1185 202.789 85.1455 203.386 84.602C204.006 83.8852 204.732 83.2658 205.538 82.7642C206.075 82.5061 206.141 82.0198 205.53 81.6815C204.407 81.0588 203.585 80.0112 202.4 79.4826C200.629 78.5625 198.713 77.9469 196.736 77.6619C195.628 77.5494 194.513 77.5138 193.4 77.5551L192.414 77.5587C190.132 77.8264 187.879 78.3047 185.686 78.9875C184.167 79.515 182.574 79.7346 181.063 80.2787C180.283 80.5595 179.457 80.7125 178.652 80.9233C178.288 80.878 177.918 80.9249 177.577 81.06L172.873 81.7169C172.447 81.7427 171.998 81.5598 171.602 81.8545L169.285 81.9162L168.109 81.9641C167.497 81.8483 166.871 81.8217 166.251 81.8851C163.67 81.8637 161.096 81.6978 158.522 81.5244L157.134 81.5164C155.21 81.484 153.299 81.1886 151.455 80.6385C148.974 80.0687 146.645 78.9746 144.625 77.4302C144.38 77.2582 144.017 77.0203 144.207 76.6315C144.248 76.549 144.308 76.4768 144.381 76.4203C144.454 76.3638 144.539 76.3246 144.63 76.3055C144.72 76.2864 144.814 76.2878 144.904 76.3099C144.994 76.332 145.077 76.3737 145.149 76.4324C146.497 77.2441 148.017 77.6858 149.394 78.4312C150.328 78.7827 151.308 79.0013 152.303 79.0802C155.248 79.6916 158.252 79.9688 161.26 79.9068C162.8 79.901 164.346 80.1343 165.882 80.0709C169.343 80.0287 172.796 79.7324 176.213 79.1844C179.824 78.5008 183.278 77.3342 186.815 76.4358C188.759 75.8427 190.766 75.4779 192.796 75.3489C196.723 75.029 200.666 75.7293 204.242 77.3813C206.169 78.3666 207.888 79.7117 209.309 81.3438C209.622 81.7189 209.7 82.235 210.217 82.5246C210.36 82.6873 210.452 82.8875 210.484 83.1015C210.516 83.3156 210.484 83.5341 210.394 83.7308C210.141 84.2929 209.562 84.7651 209.155 84.6014C207.809 84.0604 207.36 85.2708 206.614 85.7744C205.54 86.498 204.631 87.458 203.621 88.2782C203.322 88.5201 203.039 88.6589 202.901 89.1034C202.727 89.5376 202.394 89.8902 201.971 90.0917C200.672 90.6983 199.952 91.9227 198.895 92.7735C197.64 93.7845 196.694 95.0924 195.422 96.0965C193.617 97.523 192.2 99.4053 190.275 100.696C189.856 100.977 190.178 101.351 189.874 101.603C189.423 101.975 188.972 102.356 188.542 102.747C186.944 104.204 185.534 105.861 183.978 107.348C182.673 108.595 181.531 110.004 180.061 111.267C181.366 111.54 182.623 111.833 183.891 112.063C186.003 112.458 188.087 112.99 190.129 113.654C191.494 114.09 192.881 114.49 194.246 114.917C196.21 115.531 198.224 115.894 200.204 116.413C200.571 116.52 200.932 116.651 201.283 116.805C201.957 117.076 201.893 117.474 201.552 117.946C200.597 119.344 199.468 120.615 198.191 121.729C197.288 122.479 196.544 123.416 195.668 124.201C193.447 126.191 191.257 128.225 188.918 130.07C187.959 130.705 187.05 131.412 186.198 132.185C184.972 133.522 183.367 134.312 182.05 135.509C180.616 136.757 179.11 137.92 177.542 138.995C176.074 140.046 174.481 140.924 173.106 142.109C172.577 142.527 172.01 142.896 171.414 143.213C168.167 145.114 165.373 147.674 162.099 149.543C159.85 150.827 157.556 152.02 155.275 153.243C153.443 154.225 151.652 155.309 149.886 156.41C147.793 157.715 145.713 159.04 143.613 160.336C141.681 161.477 139.905 162.862 138.33 164.457C137.432 165.401 136.661 165.431 135.864 164.429C134.381 162.855 132.641 161.542 130.718 160.547C128.904 159.243 127.163 157.839 125.505 156.342C124.628 155.637 123.677 155.021 122.738 154.397C121.518 153.608 120.238 152.917 118.91 152.329C117.377 151.449 115.735 150.773 114.026 150.32C113.271 150.187 112.487 149.831 111.706 149.612C109.604 149.133 107.478 148.763 105.337 148.503C103.626 148.209 101.882 147.918 100.125 147.78C98.6626 147.671 97.2112 147.445 95.7849 147.104C94.3262 146.747 92.8351 146.811 91.3839 146.452C89.338 145.947 87.2558 145.598 85.2013 145.108C83.873 144.791 82.4489 144.526 81.2006 144.128C79.1164 143.801 77.0721 143.26 75.1002 142.512C74.728 142.303 74.1905 142.407 73.7827 142.238C71.589 141.382 69.3531 140.636 67.0836 140.005C65.8594 139.639 64.6219 139.317 63.4016 138.939C61.3337 138.299 59.2752 137.639 57.268 136.812C55.3516 136.091 53.3811 135.52 51.3751 135.107C50.1316 134.811 48.8949 134.486 47.6544 134.178C47.2312 134.016 46.7837 133.924 46.3305 133.907C46.2313 133.921 46.1304 133.914 46.0344 133.885C45.9384 133.857 45.8497 133.808 45.7744 133.742C45.6992 133.676 45.6394 133.594 45.5989 133.503C45.5584 133.412 45.538 133.313 45.5394 133.213C45.5191 132.696 45.955 132.728 46.3247 132.724C46.9214 132.719 47.5181 132.703 48.115 132.692L49.1008 132.749C49.5018 132.707 49.9155 132.93 50.3074 132.692C50.9908 132.703 51.6777 132.763 52.3567 132.713C53.2061 132.65 54.083 132.959 54.9061 132.539L54.8953 132.549C55.4226 132.408 56.0141 132.751 56.5051 132.337C56.6444 132.354 56.7858 132.341 56.9199 132.3C57.054 132.259 57.1778 132.189 57.283 132.096C57.6052 132.055 57.9826 132.332 58.2426 131.931Z" fill="#212222"/>
<path d="M129.183 91.7946C128.098 92.6504 127.098 93.609 126.198 94.657C125.79 95.1246 125.156 95.1502 124.623 95.3565C123.998 95.5069 123.446 95.872 123.065 96.3879C122.76 96.8857 122.084 96.8913 121.676 97.2527C119.16 99.1171 116.529 100.823 113.8 102.361C112.662 103.142 111.493 103.863 110.293 104.54C110.132 104.514 109.968 104.534 109.818 104.598C109.669 104.662 109.541 104.767 109.45 104.901C108.103 105.518 106.721 106.055 105.312 106.51C104.185 106.516 104.14 106.462 104.149 105.129C104.845 103.219 105.552 101.314 106.233 99.3989C106.789 97.8376 107.645 96.3977 108.086 94.7912C108.745 92.7035 109.564 90.6697 110.537 88.7074C110.878 87.9375 111.363 87.2392 111.965 86.6501C112.356 86.2293 112.646 85.7261 112.814 85.1778C113.874 82.0996 115.541 79.2638 117.717 76.8369C119.076 75.2936 120.37 73.6738 121.63 72.0354C122.391 71.0453 123.095 70.0115 123.82 68.9966C124.105 68.4719 124.448 67.9804 124.843 67.5317L125.412 66.7855C126.167 65.3802 127.129 64.0961 128.267 62.9766C128.809 62.4893 129.037 61.6731 129.626 61.1635C129.889 60.7799 130.023 60.2995 130.463 60.0477C131.083 60.1919 130.66 59.4608 131.021 59.3878L131.779 58.642C131.972 58.3834 132.105 58.0672 132.445 57.9501C132.605 57.5915 132.858 57.282 133.178 57.0533C133.692 56.3253 134.3 55.6676 134.986 55.0974C135.882 54.3941 136.691 53.5882 137.398 52.6962C137.806 52.6893 138.145 52.598 138.152 52.0928C138.56 51.8151 138.913 51.4641 139.193 51.0576L139.93 50.2996C140.04 49.9537 140.275 49.6606 140.588 49.4768C140.85 49.3603 141.069 49.1661 141.215 48.9211C141.452 48.8119 141.496 48.5671 141.605 48.3688L142.123 47.7178C142.368 47.1305 142.822 46.6546 143.399 46.3819L144.821 44.3588C144.938 44.3934 144.989 44.3391 144.999 44.2285L146.163 42.9515C146.214 42.5622 146.584 42.4043 146.773 42.1143C147.334 41.9339 147.441 41.3385 147.81 40.9831C148.37 40.135 149.37 39.7422 149.955 38.9206L150.553 38.3828C151.574 37.8814 152.035 36.7815 152.945 36.1608C153.309 35.9808 153.628 35.7218 153.878 35.4032C154.217 35.1109 154.683 34.9374 154.795 34.432C154.923 34.124 155.53 34.3455 155.468 33.8268C156.181 33.1144 157.223 33.2278 158.061 32.7932C159.552 31.9338 161.176 31.3278 162.866 31C164.043 30.8857 165.226 30.8385 166.408 30.8586C166.744 31.0939 167.126 30.9789 167.49 31.0034L167.684 31.0388C167.967 31.2755 168.315 31.4205 168.683 31.4543C169.377 31.6991 170.01 32.0899 170.54 32.5999C171.07 33.1098 171.483 33.7274 171.753 34.4104C171.948 34.9114 171.963 35.4645 171.794 35.9748C171.91 36.7077 171.939 37.4514 171.881 38.1911C171.562 38.5254 171.645 38.9916 171.488 39.379L171.484 39.3844C171.203 39.8064 170.993 40.2708 170.86 40.7595C170.466 41.3524 169.811 41.7738 169.682 42.5406L169.097 43.5497C168.728 44.0328 168.139 44.3248 167.893 44.9159C167.045 44.899 167.56 45.3882 167.599 45.7005C164.71 47.3936 162.167 49.616 160.106 52.2505L159.522 53.0805L158.898 53.7939C158.474 53.9295 158.581 54.4261 158.304 54.6618C157.673 55.0648 157.188 55.6581 156.92 56.3552C156.675 57.0131 155.687 56.9564 155.71 57.7752L155.249 58.6155C153.972 59.283 153.4 60.5794 152.548 61.6259L151.532 62.8057C151.165 62.9135 151.45 63.3909 151.123 63.5211C150.891 63.7151 150.512 63.7855 150.549 64.2039C149.837 64.9199 149.197 65.7043 148.64 66.5456C147.781 67.486 147.026 68.5152 146.387 69.6159C145.581 70.9059 144.65 72.1133 143.606 73.2207C143.23 73.6436 143.273 74.2442 142.968 74.6967C142.464 74.744 142.409 75.2025 142.204 75.5247C141.334 76.5486 140.528 77.6251 139.791 78.7481C139.402 78.8376 139.482 79.2346 139.315 79.4702C139.049 79.6717 138.863 79.9615 138.792 80.2875L138.312 80.8611C137.997 80.8251 137.901 81.0584 137.795 81.2787C137.502 81.5466 137.287 81.8887 137.174 82.269C136.248 83.27 135.389 84.3319 134.605 85.4471C134.365 85.7691 133.873 85.8041 133.717 86.2217L132.999 87.0002C132.638 87.0571 132.579 87.4117 132.377 87.6249L129.814 90.9877C129.564 91.2258 129.25 91.4137 129.183 91.7946ZM164.468 44.7794C164.722 44.2918 165.103 43.8805 165.57 43.5881C167.091 42.3218 168.263 40.6885 168.973 38.8438C169.354 37.8378 169.484 36.7547 169.353 35.6872C169.393 35.3006 169.352 34.9098 169.234 34.5396C169.116 34.1693 168.922 33.8272 168.665 33.5349C168.408 33.2427 168.093 33.0066 167.74 32.8413C167.387 32.6759 167.004 32.585 166.614 32.574C164.82 32.294 162.983 32.5112 161.304 33.2015C160.401 33.4454 159.537 33.8173 158.739 34.306C156.814 35.7994 154.974 37.3989 153.228 39.0972C156.638 41.6535 160.832 42.6754 164.468 44.7794ZM118.202 85.4427C118.149 85.1929 118.355 84.874 118.084 84.7076C117.755 84.5051 117.559 84.882 117.334 85.0147C116.34 85.6012 115.369 86.2265 114.401 86.8562C113.223 87.6227 112.005 88.3453 111.65 89.8771C111.05 92.3236 110.231 94.7115 109.203 97.012C109.055 97.3545 109.24 97.5309 109.485 97.6381C110.53 98.1471 111.535 98.7342 112.49 99.3947C113.364 99.9484 114.178 100.222 114.921 99.1976C115.026 99.0534 115.257 98.9997 115.432 98.9074C116.197 98.6145 116.918 98.2213 117.579 97.738C119.136 96.2455 121.277 95.5261 122.658 93.8219C123.218 93.1309 124.577 93.0205 124.22 91.6647C124.121 91.426 124.08 91.1677 124.098 90.9101C124.359 89.8906 123.723 90.2401 123.321 90.4211C121.974 91.1152 120.513 91.5649 119.008 91.7484C118.276 91.8021 117.246 91.2244 117.433 90.7842C117.864 89.7683 117.479 88.6804 117.855 87.6308C118.088 86.9248 118.205 86.1859 118.202 85.4427Z" fill="#212222"/>
<path d="M89.5678 82.2451C88.8261 82.7589 87.9762 83.0968 87.0832 83.233C86.1902 83.3691 85.2779 83.2996 84.4158 83.0301C84.0649 82.9663 83.7389 82.8058 83.4748 82.5667C83.2104 82.3277 83.0187 82.0198 82.9208 81.6777C82.5465 80.3561 82.601 78.9501 83.0762 77.6613C83.5516 76.3723 84.4234 75.2663 85.5672 74.5012C86.4807 73.6706 87.629 73.1412 88.8556 72.9853C90.0819 72.8293 91.3268 73.0545 92.4201 73.6299C93.04 74.0424 93.5369 74.6134 93.8593 75.2832C94.1815 75.9531 94.3172 76.6969 94.252 77.437C94.0812 78.0979 94.4335 77.9579 94.7202 77.8775C95.2535 77.7282 95.7552 77.4684 96.2875 77.3143C98.6859 76.6898 101.224 76.8767 103.504 77.8461C104.655 78.1528 105.874 78.0929 106.989 77.6749C108.104 77.2568 109.06 76.5016 109.723 75.5147C110.722 74.106 111.489 72.5471 111.994 70.8971C112.432 69.4369 113.016 68.0399 113.497 66.6029C113.607 66.2751 113.692 65.7638 114.223 65.8064C114.717 65.8459 114.783 66.3175 114.871 66.6707C115.161 68.2537 115.072 69.8828 114.61 71.425C114.234 72.745 113.676 74.0068 112.953 75.1746C112.086 76.7013 110.793 77.9446 109.231 78.7538C107.933 79.5937 106.395 79.986 104.851 79.8704C103.606 79.7694 102.38 79.5066 101.203 79.0884C99.1727 78.5036 97.0015 78.6383 95.0591 79.4692C93.3907 79.9597 93.1561 81.5625 92.285 82.6479C91.119 84.136 89.6945 85.4033 88.0793 86.3898C86.5828 87.3715 84.9922 88.2027 83.3311 88.8711C81.0047 89.796 78.6251 90.5816 76.2051 91.2242C75.0376 91.4897 73.8976 91.8725 72.7371 92.1713C69.071 93.1154 65.4074 94.0715 61.7283 94.9635C60.6726 95.1751 59.6046 95.3201 58.5305 95.3973C58.2572 95.4277 57.8991 95.4675 57.8793 95.0052C57.8616 94.589 58.0782 94.4593 58.4682 94.3805C63.7166 93.3203 68.7913 91.5987 73.9838 90.324C77.2008 89.5014 80.3342 88.383 83.3435 86.9825C85.5091 85.9508 87.5115 84.6087 89.2871 82.9987C89.3905 82.9082 89.3998 82.7111 89.5678 82.2451ZM89.5159 74.9316C89.103 74.9324 88.6962 75.0314 88.3295 75.2208C87.4539 75.6822 86.6968 76.3391 86.1172 77.1399C85.5376 77.9406 85.1512 78.8636 84.9878 79.8376C84.7362 80.8636 85.1787 81.3919 86.261 81.4909C87.2809 81.5474 88.2894 81.2559 89.1209 80.6644C90.1823 79.9871 91.672 79.7986 91.7211 77.9446C91.7759 75.8703 91.412 75.0462 89.5159 74.9316Z" fill="#212222"/>
<path d="M104.503 106.712C104.431 106.986 105.73 106.902 104.706 107.403C102.83 108.503 101.092 109.822 99.5282 111.33C97.8967 112.673 96.3565 114.122 94.7725 115.507C92.7617 117.254 90.4646 118.643 87.9814 119.614C86.2531 120.295 84.4152 120.657 82.5571 120.682C82.1648 120.69 81.7042 120.717 81.6813 120.297C81.6591 119.893 82.2063 119.887 82.5106 119.837C84.5756 119.489 86.5823 118.857 88.4733 117.96C90.8614 116.664 93.0496 115.031 94.9696 113.112C96.2123 112.015 97.4113 110.868 98.651 109.767C99.3273 109.167 100.083 108.655 100.734 108.017C101.162 107.557 101.688 107.197 102.273 106.965C102.858 106.733 103.487 106.633 104.116 106.674L104.503 106.712Z" fill="#212222"/>
<path d="M54.9061 132.539C54.083 132.959 53.2061 132.65 52.3567 132.713C51.6777 132.764 50.9907 132.704 50.3074 132.693C51.8322 132.499 53.3717 132.447 54.9061 132.539Z" fill="white"/>
<path d="M144.821 44.3588L143.399 46.3819C143.454 45.9553 143.613 45.5481 143.86 45.1957C144.108 44.8433 144.438 44.5563 144.821 44.3588Z" fill="white"/>
<path d="M104.503 106.711L104.116 106.674C104.051 106.158 103.627 105.633 104.149 105.129C104.14 106.462 104.185 106.516 105.312 106.51C105.099 106.802 104.781 106.678 104.503 106.711Z" fill="white"/>
<path d="M146.163 42.9518L145 44.2287C145.252 43.681 145.418 43.0541 146.163 42.9518Z" fill="white"/>
<path d="M151.532 62.8057L152.548 61.6261C152.561 62.32 152.08 62.5911 151.532 62.8057Z" fill="white"/>
<path d="M147.81 40.9832C147.441 41.3387 147.335 41.9339 146.773 42.1145C147.085 41.7064 147.149 41.0725 147.81 40.9832Z" fill="white"/>
<path d="M167.6 45.7005C167.56 45.3882 167.046 44.899 167.893 44.9159C167.785 45.1738 168.425 45.7094 167.6 45.7005Z" fill="white"/>
<path d="M171.794 35.975C171.963 35.4645 171.948 34.9114 171.753 34.4106C171.871 34.5027 171.967 34.6196 172.035 34.7531C172.102 34.8867 172.139 35.0335 172.143 35.1831C172.147 35.3324 172.118 35.481 172.057 35.6178C171.997 35.7549 171.907 35.8768 171.794 35.975Z" fill="white"/>
<path d="M170.861 40.7595C170.993 40.2708 171.204 39.8068 171.484 39.3846C171.486 39.9373 171.438 40.4675 170.861 40.7595Z" fill="white"/>
<path d="M130.464 60.0477C130.023 60.2997 129.89 60.7799 129.626 61.1635C129.599 60.5635 129.75 60.0957 130.464 60.0477Z" fill="white"/>
<path d="M153.879 35.4034C153.628 35.722 153.309 35.981 152.945 36.1612C153.121 35.7431 153.36 35.4018 153.879 35.4034Z" fill="white"/>
<path d="M171.488 39.3792C171.645 38.992 171.562 38.5258 171.881 38.1912C171.747 38.5864 172.196 39.173 171.488 39.3792Z" fill="white"/>
<path d="M56.5051 132.337C56.0141 132.752 55.4226 132.408 54.8953 132.55C55.3825 132.107 55.9702 132.422 56.5051 132.337Z" fill="white"/>
<path d="M157.134 81.5168L158.522 81.525C158.31 81.6449 158.07 81.7071 157.827 81.7057C157.583 81.7044 157.344 81.6391 157.134 81.5168Z" fill="white"/>
<path d="M155.468 33.827C155.531 34.3459 154.923 34.1246 154.795 34.4326C154.623 33.7926 155.325 34.119 155.468 33.827Z" fill="white"/>
<path d="M137.175 82.2694C137.288 81.8891 137.503 81.5466 137.796 81.2787C137.793 81.4846 137.734 81.6858 137.624 81.8605C137.515 82.0351 137.359 82.1763 137.175 82.2694Z" fill="white"/>
<path d="M169.098 43.5497L169.682 42.5405C169.685 42.9908 169.762 43.4831 169.098 43.5497Z" fill="white"/>
<path d="M139.93 50.2996L139.193 51.0576C139.278 50.6492 139.384 50.2622 139.93 50.2996Z" fill="white"/>
<path d="M133.718 86.2219C133.874 85.8042 134.366 85.7692 134.606 85.4472C134.578 86.0105 134.139 86.1062 133.718 86.2219Z" fill="white"/>
<path d="M133.179 57.0531C132.859 57.282 132.606 57.5917 132.446 57.9501C132.363 57.3862 132.527 57.0218 133.179 57.0531Z" fill="white"/>
<path d="M131.779 58.642L131.022 59.3878C131.109 58.9727 131.234 58.5951 131.779 58.642Z" fill="white"/>
<path d="M142.205 75.5247C142.409 75.2025 142.465 74.7438 142.969 74.6967C142.808 75.0589 142.728 75.4945 142.205 75.5247Z" fill="white"/>
<path d="M125.412 66.7855L124.843 67.5319C124.826 67.1264 124.819 66.7284 125.412 66.7855Z" fill="white"/>
<path d="M158.305 54.662C158.582 54.4263 158.475 53.9297 158.899 53.7941C158.738 54.1089 158.863 54.6175 158.305 54.662Z" fill="white"/>
<path d="M129.183 91.7946C129.25 91.4137 129.564 91.2256 129.815 90.9875C129.818 91.1736 129.757 91.3552 129.642 91.502C129.527 91.649 129.365 91.752 129.183 91.7946Z" fill="white"/>
<path d="M159.523 53.0807L160.106 52.2507C160.146 52.6912 160.062 53.0451 159.523 53.0807Z" fill="white"/>
<path d="M138.152 52.093C138.146 52.5982 137.806 52.6893 137.398 52.6962L138.152 52.093Z" fill="white"/>
<path d="M168.109 81.9645L169.285 81.9166C169.111 82.0287 168.91 82.0924 168.703 82.1009C168.497 82.1093 168.291 82.0622 168.109 81.9645Z" fill="white"/>
<path d="M150.554 38.3832L149.955 38.9208C150.046 38.6216 150.098 38.2794 150.554 38.3832Z" fill="white"/>
<path d="M168.683 31.4545C168.316 31.4207 167.967 31.2761 167.684 31.0394C167.873 31.0117 168.065 31.0358 168.241 31.109C168.417 31.1822 168.57 31.3015 168.683 31.4545Z" fill="white"/>
<path d="M171.602 81.8551C171.998 81.5602 172.447 81.7433 172.873 81.7175C172.477 82.0186 172.029 81.8366 171.602 81.8551Z" fill="white"/>
<path d="M177.576 81.0603C177.918 80.9253 178.288 80.8784 178.652 80.9237C178.324 81.2045 177.94 81.0514 177.576 81.0603Z" fill="white"/>
<path d="M138.312 80.8611L138.793 80.2875C139.029 80.8086 138.719 80.8748 138.312 80.8611Z" fill="white"/>
<path d="M132.378 87.6251C132.58 87.4119 132.639 87.057 132.999 87.0004C132.887 87.3017 132.814 87.643 132.378 87.6251Z" fill="white"/>
<path d="M139.316 79.4704C139.482 79.2347 139.402 78.8378 139.792 78.7483C139.8 79.0979 139.741 79.4042 139.316 79.4704Z" fill="white"/>
<path d="M192.413 77.5591L193.399 77.5553C193.259 77.6665 193.086 77.7274 192.907 77.728C192.728 77.7288 192.554 77.6691 192.413 77.5591Z" fill="white"/>
<path d="M109.45 104.901C109.541 104.767 109.669 104.662 109.818 104.598C109.968 104.534 110.132 104.514 110.293 104.54C110.188 104.66 110.058 104.754 109.912 104.817C109.767 104.879 109.608 104.908 109.45 104.901Z" fill="white"/>
<path d="M167.491 31.0034C167.127 30.9789 166.744 31.0939 166.408 30.8588C166.773 30.8753 167.163 30.7116 167.491 31.0034Z" fill="white"/>
<path d="M155.249 58.6155L155.71 57.7752C155.748 58.1597 155.747 58.5225 155.249 58.6155Z" fill="white"/>
<path d="M58.2426 131.932C57.9826 132.332 57.6052 132.056 57.283 132.097C57.5641 131.819 57.9204 131.973 58.2426 131.932Z" fill="white"/>
<path d="M141.216 48.9211C141.069 49.1661 140.85 49.3602 140.589 49.4768C140.586 49.397 140.601 49.3179 140.633 49.2445C140.664 49.1711 140.712 49.1055 140.772 49.0526C140.831 48.9995 140.902 48.9601 140.979 48.9374C141.056 48.9147 141.136 48.9092 141.216 48.9211Z" fill="white"/>
<path d="M49.1008 132.75L48.115 132.693C48.1817 132.628 48.2609 132.578 48.3478 132.546C48.435 132.513 48.5276 132.5 48.6204 132.505C48.7129 132.51 48.8037 132.535 48.8863 132.577C48.9691 132.619 49.0421 132.678 49.1008 132.75Z" fill="white"/>
<path d="M142.123 47.7178L141.606 48.3688C141.589 48.291 141.589 48.2107 141.607 48.1331C141.625 48.0557 141.66 47.9835 141.71 47.9213C141.759 47.859 141.822 47.8083 141.894 47.7731C141.965 47.7379 142.044 47.719 142.123 47.7178Z" fill="white"/>
<path d="M150.55 64.2039C150.513 63.7857 150.892 63.715 151.124 63.5213C151.094 63.6743 151.026 63.8173 150.925 63.9366C150.825 64.0561 150.696 64.148 150.55 64.2039Z" fill="white"/>
<path d="M164.468 44.7794C160.832 42.6756 156.638 41.6535 153.228 39.097C154.974 37.3987 156.814 35.7992 158.739 34.3057C159.537 33.8171 160.401 33.4451 161.304 33.2013C162.983 32.511 164.82 32.2938 166.614 32.5738C167.004 32.5848 167.387 32.6756 167.74 32.8411C168.093 33.0064 168.408 33.2425 168.665 33.5346C168.922 33.827 169.115 34.1691 169.234 34.5394C169.352 34.9098 169.393 35.3004 169.353 35.687C169.484 36.7545 169.354 37.8376 168.973 38.8438C168.262 40.6885 167.091 42.3216 165.57 43.5879C165.103 43.8804 164.722 44.2918 164.468 44.7794Z" fill="white"/>
<path d="M118.202 85.4427C118.205 86.1859 118.088 86.9248 117.855 87.6308C117.479 88.6804 117.864 89.7683 117.433 90.7842C117.246 91.2242 118.276 91.8017 119.008 91.7482C120.513 91.5645 121.974 91.1152 123.321 90.4209C123.723 90.2399 124.359 89.8904 124.098 90.9101C124.08 91.1677 124.121 91.4258 124.22 91.6645C124.577 93.0201 123.218 93.1305 122.658 93.8217C121.277 95.5259 119.136 96.2453 117.579 97.7378C116.918 98.2209 116.197 98.6143 115.432 98.9074C115.257 98.9995 115.026 99.0534 114.921 99.1976C114.178 100.222 113.364 99.9484 112.49 99.3947C111.535 98.7342 110.53 98.1467 109.485 97.6379C109.24 97.5305 109.055 97.3543 109.203 97.0118C110.231 94.7113 111.05 92.3236 111.65 89.8771C112.005 88.3452 113.223 87.6227 114.401 86.8562C115.369 86.2265 116.34 85.6012 117.334 85.0147C117.559 84.8818 117.755 84.5051 118.084 84.7076C118.355 84.874 118.149 85.1927 118.202 85.4427Z" fill="white"/>
<path d="M89.5153 74.9302C91.4118 75.046 91.7759 75.8701 91.721 77.9444C91.672 79.7982 90.1823 79.987 89.1207 80.664C88.2894 81.2555 87.2807 81.5472 86.261 81.4908C85.1785 81.3915 84.736 80.8635 84.9878 79.8374C85.151 78.8634 85.5374 77.9402 86.117 77.1397C86.6966 76.3389 87.4537 75.682 88.3295 75.2206C88.6962 75.0316 89.1026 74.9322 89.5153 74.9302Z" fill="white"/>
</svg>
