<svg width="80" height="81" viewBox="0 0 80 81" fill="none" xmlns="http://www.w3.org/2000/svg">
<path fill-rule="evenodd" clip-rule="evenodd" d="M75.8047 47.6457C75.6426 47.5235 75.501 47.3721 75.3912 47.1936C75.2512 47.0536 75.0912 46.9137 74.9412 46.7836L74.953 46.7953C74.489 46.391 74.0164 45.9925 73.5443 45.5943C73.2322 45.3311 72.9203 45.068 72.6112 44.8036C71.7212 44.0436 70.8912 43.2236 70.0912 42.3636C69.947 42.2055 69.8032 42.047 69.6597 41.8883L69.381 41.5796L69.097 41.2644L69.0959 41.2631C67.8881 39.9226 66.682 38.5839 65.3712 37.3436C65.1108 37.1252 64.8504 36.9139 64.5841 36.6977L64.5831 36.697L64.4312 36.5736C64.1734 36.3613 63.8869 36.172 63.6021 35.9839L63.4768 35.901C63.428 35.8686 63.3794 35.8362 63.3312 35.8036L62.9311 35.5413C62.6545 35.3601 62.3777 35.1788 62.1015 34.9967C61.6087 35.7728 61.0829 36.5282 60.5212 37.2636C59.0212 39.2237 57.1912 40.8836 55.3412 42.5136C53.9912 43.7036 52.6112 44.8637 51.1812 45.9636C50.4012 46.5637 49.6112 47.1436 48.8012 47.7036C48.0012 48.2536 47.1312 48.7136 46.2712 49.1636C45.4112 49.6136 44.5212 50.0236 43.6112 50.3836C43.4594 50.4444 43.3078 50.5045 43.1566 50.5645C42.4614 50.8402 41.773 51.1133 41.0912 51.4336C40.7712 51.6136 40.4512 51.8036 40.1412 52.0036C39.8512 52.2036 39.5812 52.4137 39.3212 52.6336C39.0512 52.8736 38.8012 53.1236 38.5712 53.3936C38.3612 53.6436 38.1612 53.9036 37.9812 54.1636C37.7712 54.5036 37.5712 54.8436 37.3812 55.1936C37.1912 55.6037 37.0212 56.0136 36.8712 56.4336C36.5054 57.5621 36.2395 58.7175 35.9735 59.8736C35.8105 60.582 35.6474 61.2907 35.4612 61.9936C35.0012 63.7636 34.2812 65.4436 33.5212 67.1036C33.4059 67.3544 33.2897 67.6052 33.1735 67.8563C32.8865 68.4761 32.5988 69.0974 32.3212 69.7237C32.0388 70.3554 31.784 70.9982 31.5281 71.6438C31.4396 71.8668 31.3511 72.0902 31.2612 72.3136C31.0013 72.9536 30.7012 73.5736 30.3312 74.1536C30.0574 74.5938 29.7262 75.0052 29.403 75.4065L29.3812 75.4336C28.7912 76.1736 28.1212 76.8836 27.4212 77.5136C27.0823 77.8192 26.7279 78.1094 26.3736 78.3996C26.0902 78.6316 25.8067 78.8637 25.5312 79.1036C25.5112 79.1236 25.4912 79.1436 25.4712 79.1536C25.1412 79.7036 24.5412 80.0236 23.9312 80.0236C23.6512 80.0036 23.3512 79.9337 23.0812 79.7736C22.2512 79.2937 21.9512 78.1836 22.4412 77.3536C22.7112 76.9036 23.0412 76.5936 23.4212 76.2536C23.9212 75.8136 24.4512 75.3936 24.9612 74.9636C25.4212 74.5336 25.8512 74.0836 26.2712 73.6236C26.6512 73.1736 27.0012 72.7237 27.3412 72.2536C27.4512 72.0836 27.5412 71.9136 27.6412 71.7336C27.8755 71.2324 28.0802 70.7186 28.2855 70.2031C28.3956 69.9265 28.506 69.6494 28.6212 69.3736C28.9612 68.5436 29.3312 67.7136 29.7112 66.9036C30.4312 65.3537 31.1412 63.8136 31.7112 62.2036C32.1212 60.8436 32.4412 59.4737 32.7612 58.0936C32.9212 57.3936 33.1012 56.7136 33.3012 56.0236C33.7412 54.5036 34.3912 53.1037 35.3012 51.8136C36.6812 49.8636 38.6912 48.5637 40.8612 47.6536C41.4612 47.4036 42.0712 47.1836 42.6612 46.9336C43.2912 46.6636 43.9112 46.3736 44.5312 46.0736C45.3012 45.6737 46.0612 45.2537 46.8012 44.7836C49.3812 42.9837 51.7812 40.9336 54.1412 38.8536C55.0512 38.0036 55.9612 37.1436 56.7912 36.2136C57.4736 35.4225 58.1071 34.5922 58.7013 33.7422L58.7012 33.7436C58.8692 33.4947 59.0333 33.2439 59.1936 32.9912C59.0251 32.8667 58.8576 32.7409 58.6912 32.6136C57.8973 32.0075 57.1063 31.3927 56.3197 30.7724L55.8112 31.2136C55.4988 31.4832 55.187 31.7542 54.8748 32.0253C53.728 33.0215 52.5781 34.0203 51.3912 34.9636C49.8812 36.1637 48.3612 37.3636 46.7612 38.4436C45.2012 39.4936 43.6212 40.5236 42.0012 41.4936C40.6412 42.3036 39.2912 43.1036 37.7912 43.6636C36.1612 44.2736 34.4512 44.4937 32.7412 44.6536C32.4561 44.6799 32.1709 44.7019 31.8858 44.724L31.7033 44.7381C31.6925 44.8932 31.6818 45.0484 31.6712 45.2036C31.6012 46.2036 31.5312 47.2036 31.4412 48.2036C31.3912 48.7436 31.3312 49.2936 31.2812 49.8436C31.2493 50.1627 31.1971 50.4816 31.1452 50.7981L31.1448 50.8007C31.1155 50.9793 31.0864 51.1571 31.0612 51.3336C30.9012 52.3736 30.6812 53.3836 30.4512 54.4036C30.3139 55.0397 30.1347 55.6654 29.9553 56.2919C29.9212 56.411 29.8871 56.5302 29.8532 56.6494C29.8189 56.7707 29.7847 56.892 29.7512 57.0136C29.6744 57.2954 29.577 57.5731 29.4802 57.8493C29.4258 58.0044 29.3716 58.159 29.3212 58.3136C29.0712 59.0636 28.8012 59.8136 28.4912 60.5436C27.6512 62.5436 26.4412 64.3336 25.0212 65.9536C23.878 67.2812 22.5817 68.4644 21.2892 69.6441L20.9612 69.9436C20.8731 70.025 20.7854 70.1059 20.6979 70.1863C20.3984 70.4618 20.1008 70.7327 19.7912 71.0036C19.7797 71.0151 19.7681 71.0233 19.7585 71.0301L19.7501 71.0362L19.7464 71.039C19.7445 71.0405 19.7427 71.0421 19.7412 71.0436L19.7012 71.0836C19.6895 71.0894 19.6813 71.0953 19.6744 71.1031C19.6727 71.1051 19.6711 71.1071 19.6695 71.1093C19.6667 71.1135 19.6639 71.1181 19.6612 71.1236C19.6412 71.1436 19.6212 71.1536 19.6112 71.1736C19.4712 71.3336 19.3012 71.4835 19.1212 71.6035C19.1093 71.6155 19.0974 71.6275 19.0834 71.6372C19.0795 71.6399 19.0756 71.6424 19.0714 71.6447L19.0646 71.6482C19.0603 71.6502 19.0559 71.652 19.0512 71.6536L19.0412 71.6636C18.4112 72.2136 17.7412 72.6936 16.9812 73.0536C16.4812 73.2836 15.9312 73.3836 15.3912 73.3836C15.0912 73.4036 14.8112 73.3736 14.5412 73.3236C13.5912 73.1436 12.8912 72.3236 13.0212 71.3236C13.1412 70.4036 14.0712 69.6336 15.0212 69.8136C15.1112 69.8336 15.2112 69.8536 15.3112 69.8635H15.3912L15.5112 69.8336C15.4923 69.8418 15.4733 69.8491 15.4542 69.8562C15.4407 69.8611 15.4272 69.8659 15.4135 69.8707L15.3829 69.8812C15.3536 69.8912 15.3232 69.9016 15.2912 69.9136C15.4212 69.8736 15.5612 69.8236 15.6812 69.7736C15.7912 69.7136 15.9012 69.6436 16.0112 69.5736C16.2412 69.4036 16.4512 69.2336 16.6712 69.0536C16.8112 68.8936 16.9712 68.7536 17.1512 68.6336C17.1712 68.6136 17.2012 68.5936 17.2212 68.5736C17.3079 68.4869 17.4035 68.4091 17.4991 68.3313L17.5588 68.2825L17.5946 68.253C17.6102 68.2399 17.6258 68.2269 17.6412 68.2136C17.6211 68.2287 17.6036 68.2437 17.586 68.2587C17.5686 68.2737 17.5512 68.2887 17.5312 68.3036C19.0512 66.9636 20.5112 65.5836 21.9312 64.1436L22.0233 64.035L22.0245 64.0335C22.6624 63.2818 23.2887 62.5437 23.8512 61.7237C24.1812 61.2136 24.4912 60.6836 24.7812 60.1536C25.1412 59.4036 25.4612 58.6436 25.7412 57.8736C26.0812 56.8736 26.4012 55.8736 26.6912 54.8535C26.9206 54.0469 27.0998 53.2278 27.2786 52.411L27.2791 52.4086L27.3483 52.093L27.3807 51.9459L27.4212 51.7636C27.4604 51.5012 27.5023 51.2398 27.5442 50.9785C27.6413 50.3732 27.7383 49.7683 27.8012 49.1536C27.826 48.8833 27.8524 48.6123 27.8788 48.3408C27.9481 47.6276 28.0178 46.9106 28.0612 46.1936C28.0862 45.8492 28.1102 45.5051 28.1339 45.1613L27.8512 45.2036C27.8788 45.1967 27.9051 45.1911 27.9311 45.1857C27.9806 45.1756 28.0287 45.1668 28.0812 45.1536C27.792 45.2148 27.5028 45.2728 27.212 45.3313C26.9798 45.3779 26.7465 45.4248 26.5112 45.4737C26.1544 45.5437 25.8016 45.6503 25.4477 45.7573L25.4408 45.7595C25.2416 45.8196 25.042 45.8798 24.8412 45.9336L24.6981 45.9842C23.928 46.2564 23.174 46.5228 22.4112 46.8336C22.1763 46.9296 21.9434 47.0275 21.7117 47.127C21.6514 47.3889 21.5932 47.6514 21.535 47.9143L21.5321 47.9273C21.4888 48.1224 21.4454 48.3184 21.4012 48.5136C21.3261 48.8589 21.2461 49.2042 21.166 49.5495C21.0861 49.8942 21.0061 50.2389 20.9312 50.5836C20.8759 50.8231 20.8056 51.0589 20.7363 51.2909C20.6928 51.4366 20.6498 51.5809 20.6112 51.7237C20.5928 51.7903 20.5748 51.857 20.5567 51.9237C20.4665 52.257 20.3762 52.5903 20.2512 52.9236C20.2026 53.0631 20.1543 53.2028 20.1059 53.3427L20.102 53.354C19.8431 54.1026 19.5833 54.8537 19.2812 55.5836C18.5412 57.3736 17.5912 59.1336 16.2912 60.5836C15.4282 61.5521 14.4548 62.401 13.4769 63.2539L13.4761 63.2547L13.3512 63.3636C12.799 63.8448 12.2417 64.3184 11.6858 64.7907L11.6813 64.7946C11.1413 65.2534 10.6026 65.7111 10.0712 66.1736L9.56121 66.6236C9.19122 66.9536 8.73123 67.1336 8.27121 67.1336C7.86123 67.1436 7.42123 66.9836 7.0812 66.6336C6.42123 65.9836 6.3612 64.7736 7.0812 64.1336C8.11902 63.2083 9.17639 62.3026 10.2337 61.3968C10.8676 60.8538 11.5015 60.3108 12.1312 59.7636C12.7012 59.2436 13.2412 58.7236 13.7512 58.1536C14.0212 57.8336 14.2712 57.5036 14.5112 57.1536C14.8612 56.6136 15.1712 56.0536 15.4712 55.4737C15.4557 55.5008 15.4417 55.528 15.4281 55.5545L15.427 55.5565C15.4058 55.5977 15.3853 55.6374 15.3612 55.6736C15.9912 54.3936 16.4712 53.0736 16.9412 51.7336C16.9742 51.62 17.0074 51.5063 17.0407 51.3926C17.2589 50.646 17.4776 49.8973 17.6512 49.1336L17.6639 49.0781C16.9571 49.4491 16.2531 49.8243 15.549 50.1994L15.5412 50.2036C14.2412 50.9036 12.9912 51.6736 11.7412 52.4536C11.4694 52.6405 11.1975 52.8274 10.9257 53.0124C10.7175 53.1541 10.5093 53.2948 10.3012 53.4336C10.1211 53.5562 9.94542 53.6877 9.77185 53.8229C9.63357 53.9306 9.49667 54.0407 9.36001 54.1505C9.22058 54.2627 9.08139 54.3746 8.94122 54.4836C8.6112 54.7736 8.28119 55.0636 7.9512 55.3636C7.71362 55.5732 7.49069 55.8024 7.26535 56.034C7.16821 56.1339 7.07061 56.2342 6.97122 56.3336C6.35122 56.9636 5.77121 57.6236 5.19122 58.2936L4.9786 58.5565C4.58987 59.0369 4.2034 59.5145 3.8312 60.0136V60.1236C3.8312 61.0236 3.13122 61.7836 2.26123 61.8836H2.21121C2.13162 61.895 2.05203 61.9063 1.97244 61.914C1.91201 61.9199 1.85162 61.9236 1.79123 61.9236C1.78122 61.9136 1.77121 61.9136 1.77121 61.9136C0.991206 61.9136 0.281182 61.3636 0.0811999 60.6136C-0.0387951 60.1636 -0.0287853 59.7836 0.131218 59.3436C0.271233 58.9236 0.518487 58.5571 0.765709 58.1907C0.800988 58.1384 0.836266 58.0861 0.871209 58.0336C1.17239 57.5899 1.51123 57.1774 1.85293 56.7616C1.94238 56.6527 2.03201 56.5436 2.12121 56.4336C2.54513 55.9001 3.00644 55.3879 3.46612 54.8776C3.63537 54.6897 3.80438 54.502 3.97122 54.3136C4.59121 53.6136 5.30121 52.9636 6.00122 52.3436C6.7012 51.7237 7.41119 51.1137 8.18121 50.5836C8.33477 50.4801 8.488 50.3762 8.6412 50.2723L8.64319 50.271C9.34729 49.7937 10.0508 49.3167 10.7812 48.8736C11.6412 48.3336 12.5112 47.8336 13.3912 47.3336C14.1412 46.9036 14.9112 46.5036 15.6812 46.1036C15.8753 46.0022 16.0693 45.8997 16.2636 45.7972C16.9503 45.4348 17.6397 45.071 18.3412 44.7436C18.4366 44.6984 18.5319 44.653 18.6274 44.6074L18.7414 44.5531C18.8695 44.1389 19.0127 43.7291 19.1712 43.3236C19.6312 42.1236 20.3212 41.0336 21.0412 39.9836C21.6612 39.0836 22.3412 38.2336 23.0212 37.3836C23.5712 36.6836 24.1412 36.0036 24.7212 35.3336C25.3512 34.6036 25.9712 33.8536 26.6512 33.1736L27.7412 32.0836C28.5137 31.3111 29.4019 30.6464 30.3041 30.022C30.8055 28.3892 31.4367 26.7985 32.2312 25.2936C33.1512 23.5535 34.3712 21.9836 35.6712 20.5036C36.6105 19.4368 37.6398 18.4421 38.738 17.5345C38.2481 17.1997 37.7619 16.8602 37.2812 16.5136C36.0812 15.6436 34.8912 14.7636 33.7012 13.8636L33.3934 13.6295C32.2857 12.7865 31.1744 11.9408 30.0212 11.1536C29.6912 10.9337 29.3412 10.7136 28.9912 10.5136C28.9812 10.5136 28.9712 10.5036 28.9612 10.5036C28.2312 10.2836 27.6812 9.59359 27.6812 8.80361C27.6812 8.38729 27.8316 7.99923 28.0811 7.6932C28.1263 7.04036 28.5316 6.38338 29.1612 6.15364C29.6911 5.96614 30.2543 5.92482 30.8182 5.8835C30.9459 5.8741 31.0737 5.8647 31.2012 5.8536C31.4112 5.83358 31.6238 5.81606 31.8363 5.79854C32.0487 5.78109 32.2612 5.76357 32.4712 5.74361C33.4112 5.65358 34.3512 5.57363 35.2912 5.4836C37.4112 5.27358 39.5412 5.06362 41.6712 4.8536C45.4212 4.47359 49.1712 4.14363 52.9212 3.84365C55.4012 3.64363 57.8812 3.43361 60.3512 3.1036C61.7712 2.91359 63.1912 2.71358 64.6012 2.49361C65.7762 2.31081 66.9326 2.0815 68.0973 1.85054L68.1017 1.84945L68.2312 1.82363C68.4452 1.77132 68.6591 1.71859 68.8731 1.66555C69.1261 1.60286 69.3792 1.53975 69.6323 1.47634L70.4659 1.26705L70.4671 1.26668C71.523 1.0013 72.5804 0.735553 73.6412 0.483603C74.0412 0.383628 74.4512 0.293662 74.8512 0.203635L74.9723 0.176719C75.6173 0.0327983 76.3014 -0.119851 76.9412 0.143638C77.6312 0.423667 78.0912 1.10366 78.0812 1.84365C78.0812 2.14363 78.0012 2.40364 77.8812 2.64363C78.062 5.67733 78.0389 8.72963 78.0159 11.7713C78.0096 12.5997 78.0034 13.4273 78.0012 14.2536C77.9912 17.9436 77.9812 21.6436 78.1312 25.3236C78.2012 27.0736 78.2812 28.8236 78.3712 30.5636V30.6836C78.3712 30.7136 78.3812 30.7536 78.3812 30.7736C78.4312 31.5036 78.4812 32.2337 78.5312 32.9536V32.9737C78.5803 33.6698 78.6369 34.3659 78.6936 35.0623L78.694 35.0678C78.8334 36.7804 78.9728 38.4945 79.0012 40.2136C79.0212 41.5136 79.0312 42.8036 78.9812 44.1036L78.9745 44.2854C78.9709 44.3784 78.9671 44.4715 78.9631 44.5645C78.945 44.9809 78.9231 45.3972 78.9012 45.8136C78.8945 45.8971 78.8901 45.9805 78.8857 46.0639C78.8768 46.2305 78.8679 46.3971 78.8412 46.5636C78.7512 47.1236 78.4312 47.6336 77.9312 47.9136C77.6512 48.0736 77.3412 48.1436 77.0412 48.1436C76.5872 48.1436 76.139 47.9719 75.8047 47.6457ZM51.3212 30.4136C52.056 29.7875 52.7865 29.1571 53.5165 28.5263C53.1458 28.2229 52.777 27.917 52.409 27.6098C52.0184 27.2836 51.6289 26.956 51.2393 26.6284L51.2358 26.6256C50.4785 25.9888 49.7212 25.3519 48.956 24.7257C48.3705 25.0628 47.7828 25.3966 47.1912 25.7237C46.2612 26.2436 45.3412 26.7436 44.3912 27.2136C44.2831 27.2663 44.1758 27.3206 44.0685 27.3748L44.0664 27.3759C43.8076 27.507 43.5494 27.6377 43.2812 27.7436C43.0463 27.8375 42.8114 27.9334 42.5773 28.0286L42.3159 28.1348C42.2176 28.1746 42.1196 28.2142 42.0218 28.2533C41.8944 28.3043 41.7676 28.3545 41.6412 28.4036C41.2314 28.5686 40.8191 28.7185 40.4068 28.8684C39.9944 29.0183 39.5811 29.1687 39.1712 29.3336C39.0845 29.3675 38.9974 29.4008 38.9103 29.4342L38.9081 29.435C38.5836 29.5593 38.2581 29.6841 37.9512 29.8336L37.9253 29.8461C37.3739 30.1119 36.8224 30.3778 36.2612 30.6436C36.2558 30.6463 36.2512 30.649 36.2468 30.6515C36.2351 30.6582 36.2258 30.6636 36.2112 30.6636C36.0824 30.7328 35.9536 30.8018 35.8248 30.8708L35.8232 30.8717C35.0013 31.3122 34.182 31.7512 33.3813 32.2282C33.3037 32.5242 33.2289 32.8206 33.1555 33.1173C33.0659 33.4791 32.9786 33.8414 32.8912 34.2036C32.5812 35.9536 32.2812 37.7036 32.1212 39.4935C32.0715 40.0487 32.0236 40.6038 31.9773 41.1591C32.9497 41.0789 33.9192 40.9913 34.8812 40.8136C35.4012 40.6936 35.9212 40.5636 36.4212 40.3936C36.9012 40.2136 37.3712 40.0136 37.8312 39.8036C39.1133 39.1436 40.3333 38.3771 41.5497 37.6128L41.7712 37.4737C42.8212 36.8137 43.8512 36.1436 44.8712 35.4536C47.1012 33.8636 49.2412 32.1836 51.3212 30.4136ZM28.4912 40.4236C28.4566 40.7927 28.4246 41.1619 28.3944 41.5311C28.2536 41.5512 28.1126 41.572 27.9712 41.5936C27.3835 41.6776 26.8029 41.7968 26.2235 41.9157C26.1127 41.9384 26.0019 41.9611 25.8912 41.9836C25.0732 42.146 24.2732 42.388 23.4805 42.6552C23.5788 42.5004 23.6792 42.3466 23.7812 42.1936C23.7412 42.2636 23.7012 42.3236 23.6612 42.3836C25.0097 40.4195 26.5587 38.57 28.1216 36.7698C28.4209 36.4449 28.7204 36.1202 29.0235 35.7995C28.9365 36.3593 28.8591 36.9182 28.7912 37.4835C28.6712 38.4636 28.5812 39.4436 28.4912 40.4236ZM35.212 27.2334L35.2275 27.226C35.3965 27.1463 35.5654 27.0665 35.7312 26.9836C35.7842 26.9571 35.8371 26.9303 35.8902 26.9035L35.8913 26.903C36.0902 26.8025 36.2904 26.7014 36.4966 26.6116C36.5674 26.5808 36.6388 26.5513 36.7112 26.5236C36.863 26.4625 37.0147 26.4011 37.1665 26.3397C37.8351 26.0691 38.5048 25.7981 39.1812 25.5536C39.9586 25.2733 40.7195 24.9686 41.4863 24.6615L41.4883 24.6608L41.7312 24.5636C42.4112 24.2936 43.0712 23.9436 43.7312 23.6136C44.4675 23.204 45.199 22.7897 45.9292 22.3729C45.7113 22.2146 45.492 22.0581 45.2712 21.9036C45.1741 21.8361 45.0776 21.7686 44.9812 21.7011C44.8492 21.6087 44.7177 21.5161 44.5862 21.4236L44.4146 21.3029C44.2441 21.1832 44.0734 21.0634 43.9012 20.9436C43.2289 20.4965 42.552 20.0548 41.8749 19.6131L41.8726 19.6117L41.8388 19.5896C41.4339 19.8946 41.0393 20.2125 40.6512 20.5436C39.7412 21.3536 38.8812 22.2136 38.0712 23.1236C37.4112 23.9036 36.7812 24.7136 36.2012 25.5536C35.8402 26.0994 35.5144 26.6593 35.212 27.2334Z" fill="black"/>
</svg>
